<svg xmlns="http://www.w3.org/2000/svg" viewBox="0 0 24 24">
	  	<g fill="currentColor">
			<circle cx="12" cy="12" r="10" fill-opacity="0.35"/>
            <path d="M11.995 11.842c-.573-1.11-2.126-3.181-3.571-4.2-1.385-.977-1.914-.81-2.258-.652-.4.183-.472.798-.472 1.16 0 .36.197 2.97.329 3.402.43 1.438 1.95 1.925 3.353 1.768.071-.011.143-.022.218-.029-.072.01-.147.021-.218.029-2.054.304-3.883 1.052-1.485 3.717 2.633 2.727 3.61-.583 4.11-2.265.502 1.678 1.078 4.87 4.062 2.265 2.243-2.265.615-3.413-1.439-3.717a4.554 4.554 0 0 1-.218-.029c.075.01.147.018.218.029 1.403.157 2.927-.33 3.353-1.768.129-.436.33-3.041.33-3.403 0-.361-.072-.976-.473-1.159-.347-.157-.873-.325-2.258.651-1.456 1.024-3.009 3.092-3.581 4.2Z"/>
		</g>
	</svg>