<svg xmlns="http://www.w3.org/2000/svg" fill="currentColor" viewBox="0 0 32 32">
    <path d="M26.611 9.873v12.255L16 28.253 5.388 22.128V9.873L16 3.746l10.61 6.127Z" opacity=".2"/>
    <path d="M28.021 10.214v11.572c0 .715-.381 1.375-1 1.732L17 29.302a1.996 1.996 0 0 1-2 0L4.979 23.518a1.999 1.999 0 0 1-1-1.732V10.214c0-.714.381-1.374 1-1.732L15 2.696a2.001 2.001 0 0 1 2 0l10.021 5.786c.619.358 1 1.018 1 1.732Zm-2 0L16 4.428 5.979 10.214v11.572L16 27.57l10.021-5.784V10.214Zm-2.339 8.005v1.061a2 2 0 0 1-1 1.732L17 24.292a2.001 2.001 0 0 1-2 0l-5.682-3.28a2 2 0 0 1-1-1.732v-6.561c0-.714.382-1.374 1-1.732L15 7.707a1.996 1.996 0 0 1 2 0l5.682 3.28c.618.358 1 1.018 1 1.732v1.062h-2v-1.062L16 9.439l-5.682 3.28v6.561L16 22.56l5.682-3.28v-1.061h2Z"/>
</svg>