<svg xmlns="http://www.w3.org/2000/svg" viewBox="0 0 24 24">
		<path fill="currentColor" d="M18.740831 6.3812222l-.868042-2.6004951c-.16477-.4626125-.149349-.4153612-.279981-.7681474l-11.2116639.003s-.1014231.3061865-.2544938.7650392l-.8674957 2.6022433H4.135787s-.0000599.251371-.0000599.561714c.0000074.540945-.00003 1.225375.0000599 1.685142h1.2581789l.9057672 11.3238038c.04666.583831.054899.382257.1098263 1.033898H17.60584s.02195-.175382.09387-1.033898l.90576-11.3238038c.359406-.0015.942076-.000749 1.258081-.000068.000248-.131247.000106-.41259.000173-.561624l.000546-1.125075c.000075-.139096-.000734-.41119-.000598-.561639-.294309-.000539-.775271-.000075-1.122829-.000075zM7.5972916 4.697721h8.8048624l.748832 2.2468552H6.8481006zm.340886 14.604558l-.269622-3.370284h8.6619774l-.269623 3.370284zm8.7971404-8.425707H7.2641206l-.179748-2.2468538h9.8303424z"/>
	</svg>