<svg xmlns="http://www.w3.org/2000/svg" viewBox="0 0 24 24">
		<g fill="currentColor"><path d="M13.99999916 19.999999H6.99999888c-2.2090004 0-4.00000036-1.79099995-4.00000036-4.00000036V9.9999988c0-1.10500043.89500045-1.99999948 1.99999949-1.99999948h10.99999924c1.10500043 0 1.99999948.89500044 1.99999948 1.99999948v5.99999984c0 2.2090004-1.79099995 4.00000036-4.00000036 4.00000036z" opacity="0.35"/><path d="M17.99999952 10.99999924v4.9999994h1.00000044c1.10500043 0 1.99999948-.89500044 1.99999948-1.99999948v-1.00000044c0-1.10500043-.89500044-1.99999948-1.99999948-1.99999948zM17.5 19.999999H3.50000084c-.82799998 0-1.49999996.67199998-1.49999996 1.49999996s.67199998 1.49999996 1.49999996 1.49999996H17.5c.82799998 0 1.49999996-.67199998 1.49999996-1.49999996S18.32799998 19.999999 17.5 19.999999zM13.00000012 7.00000028c-.55199999 0-1.00000044-.44800045-1.00000044-1.00000044V4.9999994c-1.1029995 0-1.99999948-.89699997-1.99999948-1.99999948V1.99999948c0-.55199998.44800045-1.00000044 1.00000044-1.00000044.55199998 0 1.00000044.44800046 1.00000044 1.00000044v1.00000044c1.1029995 0 1.99999948.89699998 1.99999948 1.99999948v1.00000044c0 .55199999-.44800046 1.00000044-1.00000044 1.00000044zM7.99999932 7.00000028c-.55199998 0-1.00000044-.44800045-1.00000044-1.00000044V4.9999994c-1.1029995 0-1.99999948-.89699997-1.99999948-1.99999948V1.99999948c0-.55199998.44800045-1.00000044 1.00000044-1.00000044s1.00000044.44800046 1.00000044 1.00000044v1.00000044c1.1029995 0 1.99999948.89699998 1.99999948 1.99999948v1.00000044c0 .55199999-.44800045 1.00000044-1.00000044 1.00000044z"/></g>
	</svg>