<svg xmlns="http://www.w3.org/2000/svg" viewBox="0 0 24 24">
		<g fill="none"><path d="M0 23.99999936V0h23.99999936v23.99999936z"/><path fill="#0277bd" d="M20.49999992 2.5000004H3.50000084L5.0000008 19.49999948l7.00000028 1.99999948 7.00000027-1.99999948L20.50000131 2.5000004z"/><path fill="#039be5" d="M11.99999968 4.00000036v15.9499991l5.59999939-1.60000041 1.2499995-14.35000009z"/><path fill="#fff" d="M16.5499991 6.49999936h-4.54999942v1.99999948h2.44999947l-.15 1.99999948h-2.29999947v1.99999949h2.2000004l-.14999999 2.24999994-2.05000041.70000044v2.09999995l3.94999943-1.30000043.34999953-5.74999939z"/><path fill="#eee" d="M11.99999968 6.49999936v1.99999948H7.54999933l-.15-1.99999948zm-2.29999947 4.00000036l.10000046 1.99999948h2.2000004v-1.99999948zm.19999953 2.99999992H7.90000025l.15 2.74999946 3.94999943 1.30000043V15.4499996l-2.05000041-.70000045z"/></g>
	</svg>