<svg xmlns="http://www.w3.org/2000/svg" viewBox="0 0 24 24">
		 <g fill="none"><path d="M0 23.99999936V0h23.99999936v23.99999936z"/><path fill="#e65100" d="M20.49999992 2.5000004H3.50000084L5.0000008 19.49999948l7.00000028 1.99999948 7.00000027-1.99999948L20.50000131 2.5000004z"/><path fill="#ff6d00" d="M11.99999968 4.00000036v15.9499991l5.59999939-1.60000041 1.2499995-14.35000009z"/><path fill="#fff" d="M11.99999968 12.4999992v-1.99999948h4.30000035l-.34999953 5.74999938-3.94999942 1.30000043V15.4499996l2.0500004-.70000045.15-2.24999994zm4.45000035-3.99999896l.15-1.99999948h-4.60000035v1.99999948z"/><path fill="#eee" d="M11.99999968 15.44999959v2.09999994L8.05000025 16.2499991l-.19999953-2.74999946H9.8500002l.10000046 1.2499995zM9.55000021 8.50000024h2.44999947V6.50000076H7.45000027l.34999952 5.99999984h4.19999989v-1.99999948H9.70000021z"/></g>
	</svg>