<svg xmlns="http://www.w3.org/2000/svg" viewBox="0 0 24 24">
		<g fill="none"><path d="M0 23.99999936V0h23.99999936v23.99999936z"/><path fill="#e7a42b" d="M4.00000036 2.5000004h16.99999908l-1.99999948 16.99999908-6.49999936 1.99999948-7.00000028-1.99999948z"/><path fill="#f2bf22" d="M19.31499995 4.00000036l-1.69000042 14.35499962-5.12500033 1.57499995V4.00000036z"/><path fill="#faf9f8" d="M12.4999992 10.49999972l.49999952 1.00000044-.49999952 1.00000044H7.89499932l.42499953-6.49999936h4.18000035l.49999952 1.00000043-.49999952 1.00000044h-1.98499948l-.165 2.5000004z"/><path fill="#ebebeb" d="M12.44999967 16.28500003l.04999953-.015L12.99999872 17.5l-.49999952.85999951-.03.01000465-4.16500035-1.1899995-.28000046-3.17999992h2.00999995l.13999953 1.63499996z"/><path fill="#fff" d="M17.03500001 10.49999972l-.78499951 6.70999936-3.7499999 1.15000043v-2.08999948l1.91500041-.58999952.37000046-3.17999991h-2.28499948v-1.99999948zM17.45999953 8.99999976H15.4649996l-.13000046-1.00000044H12.4999992V5.99999984h4.56499941l.08500047.62999998z"/></g>
	</svg>