<svg xmlns="http://www.w3.org/2000/svg" viewBox="0 0 24 24">
		<path fill="currentColor" d="M34.17578194 2.91015637c-4.66028713 0-6.68510718 3.3443547-7.4570312 6.986328-.77122303 3.6601345.240103 6.86889541 4.87304713 6.84374941l7.0722652-.02539a.32952237.32829448 0 00.298829-.232422l.59570302-2.26171893a.17527785.17462473 0 00-.177735-.230469h-1.14062504c-.112177-.000698-.176682-.07297299-.164062-.16796799.002103-.017463.008614-.034574.015625-.052735v-.015625s1.28951703-3.1235109 1.58398404-4.92773396c.39963401-2.41471073-.81307002-5.91601543-5.50000015-5.91601553zm48.10351732 1.33984376l-.75000002.0039062-.001953-.0019531-.47851601.0019531h-1.99218706a.51181133.5099042 0 00-.373047.1972657l-4.40429713 6.42578092c-.074318.108267-.159305.093924-.189453-.033203l-.32226601-1.41601556a.31550014.3143245 0 00-.292969-.2324219h-2.83007809c-.131809 0-.210286.1020873-.173828.2285156l1.26171903 4.42773377c.036458.12573.039362.333113.007812.46093799l-.56250001 2.14062494a.17527785.17462473 0 00.181641.232422h2.80273408c.131809 0 .266577-.104739.298829-.230469l.56250002-2.14257794a1.43026734 1.42493776 0 01.203124-.42187499l7.1484382-9.45312473c.079226-.1047748.036106-.188897-.095703-.1875zM57.9863296 5.669922c-4.60630213 0-5.69652316 2.78619803-6.30859418 5.59765595-.61277102 2.86594091-.56107701 5.54687484 4.20507812 5.54687484h.75586002l.58203101-.001953 3.03320309-.019531a.30848903.30733951 0 00.285156-.234375v-.001953l.46093802-2.24023493c.026642-.128524-.059597-.234375-.191406-.234375h-.003906c-.001704-.000035-.002185-.001953-.003907-.001953v.001953h-4.27539012c-1.55720205 0-2.10689106-.38520998-2.04882906-1.46288995.009039-.122419.131341-.308598.25586-.314453h6.61718719c.112178-.002096.213943-.06961.253907-.17578199.007011-.018859.014773-.038337.017578-.058594 1.01661103-3.82078849.72389303-6.39648372-3.6328131-6.39648372l-.001953-.0039062zm-23.95312566.0917969C36.393601 5.8123515 36.845845 7.66348864 36.214845 9.78124998l-.001953.0019531-.064453.2285159c0 .000698-.51757902 1.82617194-.51757902 1.82617194l-.51757801 1.82617095a.33653348.33527947 0 01-.30273401.228516h-2.73828108c-2.07669205 0-2.58362707-1.61713496-2.07812505-4.003906.50480001-2.44125373 1.49727604-3.95961138 3.5410151-4.11328118.174577-.0130968.340687-.0170474.498047-.0136718zm-8.07812523.0351562v.0058594h-2.60156207a.31550014.3143245 0 00-.292969.2324218l-.49414102 2.16406253a.18228897.18160971 0 00.1875.2324218h2.62304708c.131809 0 .262971-.1045965.291016-.2324218l.47656202-2.16992184c.028045-.1278253-.056242-.23242189-.189453-.23242189zm16.40429746.03125a.30848903.30733951 0 00-.28906301.234375l-1.11132803 5.17773385c-.60295502 2.74090992-.44160802 5.35577584 2.83398508 5.43749984h5.23437514c.131809 0 .261018-.105851.289062-.234375l2.21679707-10.3828118c.027468-.1258814-.057017-.2262826-.183594-.2304688h-2.36914007c-.131809 0-.26297101.1038981-.29101601.2324219l-1.68164105 7.75781178c-.028044.127826-.157954.232422-.289062.232422h-1.67773405c-1.66023205 0-1.46939604-1.14225097-1.12304703-2.70898393l.011719-.048828.201171-1.06835996.085938-.4394526.76562503-3.72460929c.026642-.1285238-.059597-.234375-.191406-.234375h-2.43164107zm22.43945361.0214844a.30848903.30733951 0 00-.289062.2324218l-.097657.45703128-.14062501.68749998-.037109.1738281.03125-.1660156-1.97656306 9.21093674v.001954c-.014022.064262.002755.121803.03711.164062.034408.041475.087137.068359.152344.06836h.24023402c-.063247 0-.155101-.013555-.23437501-.033204l.001953-.007812c.081082.020132.175199.033203.240234.033203h1.97851606c.128978 0 .286773-.022972.36132801-.050781-.001207.000611-.002723.005376-.003906.005859-.073282.027396-.235465.052734-.36523401.052735h.240234a.30848903.30733951 0 00.28710901-.234376l.033203-.169921c.007543-.023725.022622-.052424.027344-.072266l.75000003-3.69726589.80273502-3.7460933c.028044-.12782529.157954-.23172339.289062-.23242179l6.21093818-.0039063-.001953.0097656c.065553-.0003492.118865-.030181.152343-.0722656.039457-.0427086.059225-.1009987.042969-.16992189l-.011719.0078125-.109375-.44531249v-.0019531l-.017578-.0742187-.142578-.62304688c-.21313801-.82422877-.83851203-1.30078126-2.19726607-1.30078126l-6.25390617-.0039062zm-7.4257812 2.41992173c1.47724204 0 1.76432105.71918048 1.66406204 1.52734376h.001953c-.016826.1396998-.149441.24414099-.28125.24414099h-3.5898431c-.124097 0-.186899-.0827255-.167969-.1875004l.003906-.0195312.015625-.0605469c.350556-.90804857 1.04173602-1.50390625 2.35351606-1.50390625zm-34.78320396.91015627a.31550014.3143245 0 00-.291016.2324219l-.73632803 3.2519525-.103516.466797-.70117202 3.3203129a5.01995774 5.00125216 0 01-.125.45898399s-.49134802 1.45161296-1.31445304 1.43554696l-.81640602-.015625a.31550014.3143245 0 00-.294922.22851599l-.54296902 2.27929694a.18228897.18160971 0 00.179688.23437499h.001953l2.13476606.017578h.013672c2.05846306 0 3.14364009-1.13727497 3.8398431-4.40624988l1.57617205-7.2636719c.028045-.12782529-.057644-.23242189-.189453-.23242189l-.013672-.0078125h-2.61718708zm-.298828.2324219l-.36914102 1.62695255.36914101-1.62695255zm-.74414103 3.2519525l-.052734.232422-.048829.232422.103516-.464844h-.001953zm16.69335946 1.31054697l.57031302.003907-.57031302-.003907zm.57421902.003907l.57031301.003906-.57031301-.003906zm.75195302.236328l-.59570302 2.26171793.59570302-2.26171794z"/><path fill="#0868ac" d="M10.26953128 4.32031263l-.4082029.57226559c-.54826912.80327377-.60210772 1.80221704-.22070311 2.69140622.401036.94297347 1.22377203 1.67614105 2.18359406 2.02539054l.11914.0410156.052735.0175782.169922.0488281c2.65300508.50990409 3.3660381-1.35634926 3.5644531-1.63085935-.63100101.90385757-1.68336304 1.12096506-2.99023508.80664057a4.19264632 4.17702338 0 01-.314453-.0976562 3.8420906 3.827774 0 01-.37500002-.15429689 3.8631239 3.8487289 0 01-.65429702-.39843749c-1.16384503-.88010857-1.89326755-2.55630953-1.12695303-3.92187489zm-2.99609358.65039058l-.76367192 1.08007807c-.93037483 1.32714797-.87994712 3.12098061-.1542968 4.53124967a5.92439146 5.90231573 0 00.4101562.68359399c.14022231.19907199.29607652.43574698.48046882.59570298l.2089843.210938.0546875.052734.21289061.19726599.0097657.009765.25000001.20507799.0546875.044922.2617187.1875.18164071.12109399.19335931.119141.0273438.015625.171875.095703.0605469.03125.11914061.060547.0175781.00976499.25.115235.0546875.021484.21093751.083984.0859375.03125.18750001.064453.0839844.029297c.0897426.02793999.1782366.06974299.27148461.07812499 4.80471613.79279698 5.91406216-2.89257792 5.91406216-2.89257792-.99978502 1.43471696-2.93577808 2.11959094-5.00195313 1.58593796l-.27148401-.078125-.082031-.027344-.189454-.064453-.08593701-.033203-.205078-.082031-.056641-.023438-.24999991-.115234-.1269531-.070313-.07226561-.03710899-.1953125-.111328-.19335941-.117188-.1816406-.12109399-.25976571-.189453-.0585937-.044922c-.91144483-.71107197-1.62144945-1.67593955-1.96289066-2.78515581-.3505557-1.14344267-.2811908-2.42728804.33789061-3.4687499zM3.5195313 6.33398448L2.50781257 7.60351564c-1.28653944 1.84264015-1.12553633 4.24007128-.1425781 6.19726522l.0722656.138672.046875.087891.0273438.050781.0507812.091797.09375.16015599.0527344.087891.109375.169922.04687501.07226499.1582031.226563.0292969.041015.1445312.19140699.05468751.068359.1386719.16210899.0507812.060547.18554691.212891.0117188.011719.1875.19726499.0605469.060547.15039061.138672.0605468.05859399.20507821.1875.0410156.03125.1855469.15820299.0703125.060547.15625001.123047.0839844.068359.1757812.12695299.08007811.056641.1699219.111328.0742188.048828.26562502.16210899.0742187.042969.1992187.111328.1113282.056641.14257811.07226499.0332031.017579.0585938.027343.2265625.105469.04687501.019531.265625.109375.0644531.025391.24804692.09179699.03125.011719.2773437.089843.0683594.019532.28125001.082031c6.22236417 1.13156796 8.02929722-3.7265629 8.02929722-3.7265629-1.51790604 1.96976694-4.20656911 2.49046693-6.76562528 1.91210994-.0967534-.020955-.1912073-.052138-.2851563-.080078l-.07031251-.019532a8.89009284 8.85696605 0 01-.2734375-.089843l-.03710941-.013672c-.0813289-.02793999-.1615596-.05910999-.2421874-.08984399l-.0683594-.025391a7.76831451 7.73936778 0 01-.26171882-.109375l-.0507812-.021484-.2207032-.103516-.0703124-.02929599c-.0574912-.02794-.1131319-.058554-.16992191-.087891l-.1132813-.058594a6.58343618 6.55890471 0 01-.2050781-.113281l-.06835941-.039063a10.39748229 10.3587387 0 01-.265625-.16210899c-.0245389-.015367-.0484278-.031508-.0722656-.046875l-.18945311-.126953c-.0210334-.01397-.0402147-.027046-.0605469-.041016l-.17968751-.12890599-.078125-.060547-.1621094-.125-.07226561-.05859399-.2011719-.167968c-.0070111-.006985-.0144732-.011292-.0214843-.017579-.0715134-.069849-.14082641-.127144-.21093761-.19140599l-.0605468-.058594-.1503906-.148437-.0605469-.058594a7.99267022 7.96288747 0 01-.18554691-.19531199 8.90411504 8.87093605 0 01-.19921881-.22460999l-.0488281-.058593-.1367187-.167969-.0488282-.068359-.15625001-.20898499c-1.41063614-1.92226894-1.92195825-4.57960787-.78125002-6.7617184z"/>
	</svg>