<svg xmlns="http://www.w3.org/2000/svg" viewBox="0 0 24 24">
		<g fill="none">
			<path d="M21 9.1c0-4.2-2.7-5.4-2.7-5.4-1.4-.7-3.8-1-6.3-1s-4.9.3-6.3 1c0 0-2.7 1.2-2.7 5.4v3.3c.1 4.1.8 8.1 4.5 9.1 1.8.5 3.3.6 4.5.5 2.2-.1 3.4-.8 3.4-.8l-.1-1.6s-1.6.5-3.3.4c-1.7-.1-3.6-.2-3.9-2.3v-.6s1.7.4 3.9.5c1.3.1 2.6-.1 3.8-.2 2.4-.3 4.5-1.8 4.8-3.1.4-2.1.4-5.2.4-5.2z" fill="currentColor" fill-opacity="0.35"/>
            <path d="M17.8 9.4v5.1h-2v-5c0-1-.4-1.6-1.3-1.6-1 0-1.5.6-1.5 1.9v2.7h-2V9.8C11 8.6 10.5 8 9.6 8c-.9 0-1.3.5-1.3 1.5v4.9h-2v-5c0-1 .3-1.8.8-2.5.5-.6 1.2-.9 2.1-.9 1 0 1.8.4 2.3 1.2l.5.8.5-.8C13 6.4 13.8 6 14.8 6c.9 0 1.6.3 2.1.9.6.7.9 1.5.9 2.5z" fill="currentColor"/>
		</g>
	</svg>