<svg xmlns="http://www.w3.org/2000/svg" viewBox="0 0 24 24">
		<g fill="currentColor">
			<path d="M11.536 22H10c-.25 0-.46-.18-.5-.42l-.37-2.65c-.63-.25-1.17-.59-1.69-.99l-2.49 1.01c-.22.08-.49 0-.61-.22l-2-3.46a.493.493 0 0 1 .12-.64l2.11-1.66A7.77 7.77 0 0 1 4.5 12c0-.33.03-.66.07-1L2.46 9.37a.493.493 0 0 1-.12-.64l2-3.46c.12-.22.39-.31.61-.22l2.49 1c.52-.39 1.06-.73 1.69-.98l.37-2.65c.04-.24.25-.42.5-.42h4c.25 0 .46.18.5.42l.37 2.65c.63.25 1.17.59 1.69.98l2.49-1c.22-.09.49 0 .61.22l2 3.46c.12.22.07.49-.12.64l-1.4 1.081a8.033 8.033 0 0 0-2.65-.443c-4.105 0-7.482 3.377-7.482 7.482 0 1.688.571 3.252 1.528 4.51Z"/>
            <path d="M17.5 12c-.823 0-1.5-.677-1.5-1.5S16.677 9 17.5 9s1.5.677 1.5 1.5-.677 1.5-1.5 1.5m-3-4c-.823 0-1.5-.677-1.5-1.5S13.677 5 14.5 5s1.5.677 1.5 1.5S15.323 8 14.5 8m-5 0C8.677 8 8 7.323 8 6.5S8.677 5 9.5 5s1.5.677 1.5 1.5S10.323 8 9.5 8m-3 4c-.823 0-1.5-.677-1.5-1.5S5.677 9 6.5 9 8 9.677 8 10.5 7.323 12 6.5 12M12 3c-4.937 0-9 4.063-9 9s4.063 9 9 9c.823 0 1.5-.677 1.5-1.5 0-.39-.15-.74-.39-1-.23-.27-.38-.62-.38-1 0-.823.677-1.5 1.5-1.5H16c2.743 0 5-2.257 5-5 0-4.42-4.03-8-9-8Z" style="fill-rule:nonzero" transform="matrix(.59525 0 0 .59525 10.347 10.347)"/>
		</g>
	</svg>