<svg xmlns="http://www.w3.org/2000/svg" viewBox="0 0 24 24">
		<path fill="currentColor" d="M12 1.988c5.52 0 10.012 4.491 10.012 10.012 0 5.521-4.492 10.012-10.012 10.012-5.52 0-10.012-4.491-10.012-10.012C1.988 6.479 6.48 1.988 12 1.988Zm-7.57 8.485-1.851-.423a9.64 9.64 0 0 0 0 3.9l1.851-.423a7.76 7.76 0 0 1 0-3.054Zm0 3.054a7.705 7.705 0 0 0 1.661 3.437l.266-.212a7.347 7.347 0 0 1-1.593-3.301l-.334.076Zm1.661 3.437-1.483 1.183a9.688 9.688 0 0 0 3.042 2.429l.824-1.71a7.787 7.787 0 0 1-2.383-1.902Zm2.383 1.902a7.665 7.665 0 0 0 3.526.856c.066 0 .131-.004.197-.006v-.342c-.065.002-.131.005-.197.005a7.343 7.343 0 0 1-3.379-.82l-.147.307Zm3.723.85v1.899a9.568 9.568 0 0 0 3.8-.869l-.824-1.709a7.65 7.65 0 0 1-2.976.679Zm2.976-.679a7.779 7.779 0 0 0 2.981-2.379l-.264-.212a7.412 7.412 0 0 1-2.865 2.284l.148.307Zm2.981-2.379 1.483 1.182a9.575 9.575 0 0 0 1.695-3.508l-1.85-.422a7.687 7.687 0 0 1-1.328 2.748Zm1.328-2.748a7.713 7.713 0 0 0 0-3.82l-.333.076a7.39 7.39 0 0 1 0 3.668l.333.076Zm0-3.82 1.85-.423a9.57 9.57 0 0 0-1.695-3.507l-1.483 1.182a7.67 7.67 0 0 1 1.328 2.748Zm-1.328-2.748a7.768 7.768 0 0 0-2.981-2.379l-.148.307a7.392 7.392 0 0 1 2.864 2.284l.265-.212Zm-2.981-2.379.824-1.709a9.551 9.551 0 0 0-3.8-.869v1.898a7.656 7.656 0 0 1 2.976.68Zm-2.976-.68c-.066-.001-.131-.005-.197-.005-1.27 0-2.468.31-3.526.856l.147.306A7.355 7.355 0 0 1 12 4.621c.066 0 .131.003.196.005l.001-.343Zm-3.723.851-.824-1.71a9.699 9.699 0 0 0-3.042 2.428l1.483 1.183a7.772 7.772 0 0 1 2.383-1.901ZM6.091 7.035a7.709 7.709 0 0 0-1.661 3.438l.334.076a7.347 7.347 0 0 1 1.593-3.301l-.266-.213ZM12 18.458a6.458 6.458 0 1 0 .001-12.917A6.458 6.458 0 0 0 12 18.458ZM12 7.81c2.314 0 4.19 1.667 4.19 3.724a2.34 2.34 0 0 1-2.328 2.328h-.824a.701.701 0 0 0-.698.698c0 .177.07.34.177.466a.686.686 0 0 1 .181.465.702.702 0 0 1-.698.699c-2.298 0-4.19-1.892-4.19-4.19 0-2.298 1.892-4.19 4.19-4.19Zm-1.164 2.328a.701.701 0 0 0 .698-.698.702.702 0 0 0-.698-.699.702.702 0 0 0-.698.699c0 .383.315.698.698.698ZM9.44 12a.701.701 0 0 0 .698-.698.702.702 0 0 0-.698-.699.703.703 0 0 0-.699.699c0 .383.316.698.699.698Zm5.12 0a.702.702 0 0 0 .699-.698.703.703 0 0 0-.699-.699.702.702 0 0 0-.698.699c0 .383.315.698.698.698Zm-1.396-1.862a.701.701 0 0 0 .698-.698.702.702 0 0 0-.698-.699.702.702 0 0 0-.698.699c0 .383.315.698.698.698Z"/>
	</svg>