<svg xmlns="http://www.w3.org/2000/svg" viewBox="0 0 24 24">
		<g fill="currentColor"><circle cx="12" cy="12" r="10" opacity="0.35"/><path d="M18.248 8.09c.196-.231-.05-.57-.33-.453-.467.195-.978.37-1.34.442-.018.005-.033.011-.051.016-.549-.541-1.301-.877-2.133-.877-1.677 0-3.037 1.36-3.037 3.037 0 .088-.007.251 0 .337-1.896 0-3.413-.832-4.582-1.993-.296-.294-.8-.096-.823.322-.007.114-.01.229-.01.343 0 .946.739 1.874 1.89 2.45-.212.055-.445.094-.688.094-.223 0-.531-.092-.781-.189-.197-.076-.394.106-.336.309.298 1.046 1.498 1.753 2.58 1.97-.253.149-.763.164-1.012.164-.073 0-.225-.014-.389-.033-.264-.03-.443.269-.287.484.531.73 1.537 1.134 2.504 1.151-.655.514-1.734.801-2.809.926-.38.044-.463.564-.115.723.987.45 1.973.705 3.067.705 5.015 0 7.866-3.823 7.866-7.426 0-.058-.001-.18-.003-.302 0-.012.003-.024.003-.036 0-.018-.005-.036-.005-.054-.002-.092-.004-.178-.006-.222.378-.273.721-.594 1.019-.953.105-.126-.021-.31-.176-.26-.336.109-.686.187-1.047.23.317-.19.711-.53 1.031-.905z"/></g>
	</svg>