<svg xmlns="http://www.w3.org/2000/svg" viewBox="0 0 24 24">
		<g fill="none"><path d="M0 23.99999936V0h23.99999936v23.99999936z"/><path fill="#fff" d="M11.99999968 2.02499995c-5.50904078 0-9.97499973 4.46595895-9.97499973 9.97499973s4.46595895 9.97499973 9.97499973 9.97499973 9.97499973-4.46595895 9.97499973-9.97499973-4.46595895-9.97499973-9.97499973-9.97499973z"/><path fill="#01579b" d="M4.0004999 11.99999968c0 3.16799992 1.8400004 5.90299938 4.50899987 7.1999998L4.69249941 8.7439993c-.44350045.99550044-.69199952 2.09399995-.69199952 3.25600038zm13.40149917-.40300045c0-.98849998-.53149952-1.67500042-.83500044-2.20600041-.4065-.66449998-.78799952-1.2184995-.78799952-1.87600042 0-.73249951.73549952-1.42000042 1.52050043-1.42000042.03550046 0 .0675.003.10300046.00400046-1.42199996-1.3069995-3.31849945-2.09899948-5.40199939-2.09899948-2.69449946 0-5.0764994 1.33300043-6.5260003 3.37450038.114.03700046.15349954.0195.30550047.0195.8344995 0 2.13199947-.10000046 2.13199947-.10000046.43000046-.0285.48250046.60599998.0495.65800044 0 0-.43199999.0525-.9139995.07600047l2.96549991 8.88899976 1.75000042-5.2504994-1.30150043-3.6239999c-.43049999-.02299953-.83950044-.07600046-.83950044-.07600046-.43099952-.02800047-.381-.68749952.04900046-.65800045 0 0 1.32400043.10000046 2.10850041.10000046.83749951 0 2.13199948-.10000046 2.13199948-.10000046.43049999-.0285.48250045.60599998.05200046.65800045 0 0-.43499999.0525-.91600044.07600046l2.94550039 8.80499977.79949998-2.66299947c.40699952-1.0399995.60949952-1.90000041.60949952-2.58749993zm-5.26149893 1.10099997l-2.39999993 6.97600028c.71800044.21299999 1.4749995.32599952 2.2600004.32599952.93049951 0 1.82449949-.162 2.65799993-.45349952-.01999954-.03550047-.04249953-.07150046-.05899953-.10999953zm6.88099935-4.53899988c.03550047.255.054.52949998.054.82249951 0 .81400044-.153 1.72549949-.60949952 2.86849946l-2.44249947 7.06750028c2.37899994-1.38599997 3.9764999-3.96649943 3.9764999-6.91750029 0-1.39049996-.3555-2.69800039-.97849951-3.84100036z"/><path fill="#01579b" d="M1.99999948 11.99999968c0 5.51200032 4.48499988 10.0000002 9.99949927 10.0000002 5.51549985 0 10.00049973-4.48799988 10.00049973-10.0000002s-4.48499988-10.0000002-10.0000002-10.0000002c-5.51500031 0-10.0000002 4.48799988-10.0000002 10.0000002zm.99749997 0c0-4.96199987 4.03699943-8.99950023 9.0019993-8.99950023s9.00299976 4.03750036 9.00299976 8.99950023c0 4.96199987-4.0379999 9.0004993-9.00250023 9.0004993-4.9639994 0-9.00250022-4.03849943-9.00250022-9.0004993z"/></g>
	</svg>