<?xml version="1.0" standalone="no"?>
<!DOCTYPE svg PUBLIC "-//W3C//DTD SVG 20010904//EN"
 "http://www.w3.org/TR/2001/REC-SVG-20010904/DTD/svg10.dtd">
<svg version="1.0" xmlns="http://www.w3.org/2000/svg"
 width="2560.000000pt" height="2560.000000pt" viewBox="0 0 2560.000000 2560.000000"
 preserveAspectRatio="xMidYMid meet">
<metadata>
Created by potrace 1.14, written by Peter Selinger 2001-2017
</metadata>
<g transform="translate(0.000000,2560.000000) scale(0.100000,-0.100000)"
fill="#000000" stroke="none">
<path d="M14075 24964 c-407 -72 -769 -338 -955 -701 -23 -45 -300 -792 -616
-1659 -316 -868 -577 -1581 -581 -1584 -5 -4 -1691 -791 -3748 -1750 -2057
-959 -3776 -1761 -3819 -1782 -537 -268 -916 -762 -1041 -1358 -22 -102 -27
-162 -32 -325 -6 -227 8 -359 57 -551 42 -163 70 -229 295 -714 183 -393 5274
-11312 5725 -12277 208 -445 268 -548 397 -680 193 -196 449 -332 713 -378 51
-9 147 -16 223 -16 220 0 381 39 592 141 285 138 500 350 630 622 24 51 283
750 575 1553 292 803 548 1505 568 1559 l37 100 3765 1756 c2071 965 3799
1773 3840 1794 479 246 840 699 979 1227 48 183 64 313 64 504 -1 255 -43 481
-131 702 -21 54 -383 836 -804 1738 -421 902 -1311 2810 -1978 4240 -2819
6046 -3294 7064 -3333 7140 -120 240 -318 441 -557 569 -104 55 -265 110 -384
131 -111 19 -370 19 -481 -1z m263 -1286 c5 -7 269 -571 587 -1253 317 -682
811 -1742 1097 -2355 374 -802 526 -1137 540 -1194 26 -102 21 -257 -11 -356
-50 -157 -168 -296 -317 -372 -83 -43 -1425 -669 -7585 -3542 -1590 -741
-2459 -1141 -2500 -1151 -82 -19 -216 -19 -297 0 -147 35 -306 146 -395 277
-39 58 -814 1710 -849 1811 -30 87 -37 267 -13 357 30 120 81 207 175 300 68
69 101 94 170 127 47 23 1829 854 3960 1848 2131 993 3899 1821 3929 1838 70
42 148 128 182 202 15 33 305 823 644 1755 339 932 624 1701 633 1708 9 6 21
12 28 12 6 0 16 -6 22 -12z m2918 -6814 c170 -44 332 -173 411 -329 75 -147
800 -1709 819 -1765 29 -83 27 -290 -3 -385 -44 -137 -147 -274 -263 -347 -30
-19 -719 -344 -1530 -722 -811 -378 -3066 -1430 -5011 -2337 -2325 -1084
-3558 -1654 -3600 -1664 -249 -58 -522 42 -671 246 -58 79 -838 1741 -874
1863 -29 93 -32 235 -9 334 37 157 146 308 285 394 30 19 714 342 1520 717
806 376 3047 1422 4980 2324 1933 902 3539 1648 3569 1659 111 40 253 44 377
12z m1929 -4139 c173 -44 333 -174 417 -340 79 -156 794 -1697 814 -1755 15
-44 19 -83 19 -195 -1 -126 -3 -147 -27 -207 -53 -140 -146 -259 -258 -330
-30 -19 -1830 -862 -4000 -1874 -2987 -1393 -3959 -1850 -4004 -1884 -118 -89
-81 1 -771 -1897 -593 -1632 -632 -1733 -658 -1744 -15 -6 -29 -10 -31 -8 -1
2 -257 551 -568 1219 -312 668 -809 1737 -1107 2375 -349 751 -546 1183 -555
1225 -20 83 -20 229 -1 305 8 33 34 98 57 145 55 113 158 218 273 277 44 23
721 340 1505 706 784 365 3009 1404 4945 2307 1936 903 3544 1651 3572 1661
113 41 252 46 378 14z"/>
</g>
</svg>
