<svg xmlns="http://www.w3.org/2000/svg" viewBox="0 0 303.454 65.498">
  <g fill="#d1d1d1" font-family="Cordia New" font-size="72.055" font-weight="400" letter-spacing="-2.658" style="line-height:0%;-inkscape-font-specification:Cordia New" word-spacing="0">
    <path d="M32.392 50.161c0 4.9-1.333 8.622-4 11.168-2.665 2.547-6.472 3.82-11.42 3.82-4.035 0-7.302-.937-9.8-2.81-2.785-2.114-4.226-5.116-4.323-9.007H4.29c.144 3.458 1.44 6.1 3.89 7.925 2.21 1.633 5.116 2.45 8.72 2.45 9.366 0 14.05-4.516 14.05-13.546V38.848h-.145c-.72 3.17-2.485 5.716-5.295 7.638-2.81 1.92-5.897 2.881-9.26 2.881-4.947 0-8.814-1.8-11.601-5.403C2.105 40.698.832 36.52.832 31.426c0-5.188 1.321-9.463 3.963-12.824 2.93-3.652 6.917-5.478 11.96-5.478 3.314 0 6.293 1.01 8.935 3.027 2.643 2.018 4.348 4.612 5.116 7.781h.145V13.99h1.44zm-1.513-18.735c0-4.563-1.178-8.43-3.532-11.6-2.641-3.506-6.172-5.259-10.592-5.26-4.61.001-8.237 1.706-10.88 5.116-2.402 3.074-3.602 6.989-3.602 11.744 0 4.66 1.129 8.48 3.386 11.457 2.546 3.363 6.053 5.044 10.52 5.044 4.563 0 8.214-1.633 10.953-4.9 2.498-3.073 3.747-6.94 3.747-11.6zm38.467 1.225c0 5.38-1.416 9.896-4.25 13.548-3.076 4.034-7.231 6.051-12.466 6.051-5.188 0-9.343-2.017-12.466-6.051-2.786-3.652-4.18-8.168-4.18-13.548 0-5.332 1.418-9.847 4.253-13.545 3.122-3.988 7.277-5.982 12.463-5.982 5.188 0 9.32 2.018 12.396 6.054 2.834 3.65 4.25 8.141 4.25 13.473zm-1.442 0c0-4.9-1.273-9.054-3.817-12.466-2.836-3.745-6.631-5.618-11.387-5.618-4.755 0-8.55 1.873-11.383 5.618-2.594 3.363-3.89 7.518-3.89 12.466 0 4.996 1.272 9.175 3.817 12.538 2.835 3.747 6.654 5.62 11.456 5.62 4.804 0 8.6-1.873 11.387-5.62 2.544-3.411 3.817-7.59 3.817-12.538zm37.577 0c0 5.38-1.417 9.896-4.25 13.548C98.155 50.233 94 52.25 88.765 52.25c-5.188 0-9.344-2.017-12.466-6.051-2.787-3.652-4.18-8.168-4.18-13.548 0-5.332 1.417-9.847 4.253-13.545 3.122-3.988 7.277-5.982 12.463-5.982 5.188 0 9.32 2.018 12.396 6.054 2.833 3.65 4.25 8.141 4.25 13.473zm-1.442 0c0-4.9-1.273-9.054-3.818-12.466-2.835-3.745-6.63-5.618-11.386-5.618-4.755 0-8.55 1.873-11.384 5.618-2.593 3.363-3.89 7.518-3.89 12.466 0 4.996 1.273 9.175 3.818 12.538 2.835 3.747 6.654 5.62 11.456 5.62 4.804 0 8.6-1.873 11.386-5.62 2.545-3.411 3.818-7.59 3.818-12.538zm34.982 18.735h-1.44V40.939h-.145c-.96 3.41-2.786 6.147-5.476 8.213-2.69 2.065-5.812 3.098-9.367 3.098-5.092 0-9.078-2.041-11.96-6.124-2.547-3.603-3.82-8.07-3.82-13.402 0-5.237 1.297-9.704 3.89-13.403 2.882-4.131 6.845-5.835 11.89-5.835 3.698 0 6.869.997 9.511 2.99 2.643 1.994 4.42 4.768 5.332 8.323h.145V.063h1.44zm-1.44-18.662c0-5.188-1.178-9.391-3.532-12.61-2.641-3.698-6.46-5.547-11.456-5.547-4.66 0-8.286 1.921-10.88 5.763-2.307 3.363-3.46 7.494-3.46 12.394 0 4.947 1.13 9.078 3.387 12.393 2.595 3.795 6.246 5.693 10.953 5.693 4.707 0 8.454-1.898 11.24-5.693 2.499-3.363 3.748-7.494 3.748-12.393z" font-family="Aliquam" font-weight="200" letter-spacing="-1.3" style="-inkscape-font-specification:Aliquam Ultra-Light" transform="matrix(.99371 0 0 1.00633 -.827 -.063)" word-spacing="-.85"/>
    <path d="M144.725 51.648V14.047h4.834v7.562c1.445-2.668 2.323-4.194 3.547-5.044 1.224-.85 2.776-2.16 4.148-2.682 1.802-.686 4.375-1.47 6.468-.396l.086 5.325c-1.539-.92-5.134.187-6.869.97-1.253.567-2.82 1.361-3.694 2.428-1.026 1.254-1.957 1.8-2.423 3.287-.7 2.266-.98 3.774-.98 6.465v19.686zm23.017-21.628h23.742c-.32-3.622-1.228-6.339-2.723-8.15-2.295-2.811-5.271-4.217-8.928-4.217-3.31 0-6.092 1.122-8.348 3.366-2.255 2.243-3.503 5.244-3.743 9zm23.049 9.617 5.915-.068c-1.026 3.848-3.22 7.618-5.993 9.742-2.773 2.124-6.316 3.186-10.628 3.186-5.43 0-9.737-1.693-12.918-5.08-3.182-3.387-4.773-8.138-4.773-14.251 0-6.326 1.609-11.235 4.825-14.729 3.216-3.493 7.389-5.24 12.516-5.24 4.965 0 9.02 1.711 12.167 5.134 3.147 3.423 4.72 8.238 4.72 14.445 0 .378-.012.945-.035 1.7h-29.061c.233 4.13 1.582 8.175 3.657 10.37 2.074 2.195 5.837 3.293 8.937 3.293 2.307 0 5.159-1.397 6.79-2.625 1.632-1.227 2.925-3.186 3.88-5.877zm33.374 7.373c-2.331 2.006-4.575 3.422-6.73 4.248-2.157.826-4.47 1.24-6.94 1.24-4.08 0-7.214-1.01-9.405-3.028-2.191-2.018-3.287-4.597-3.287-7.736 0-1.841.414-3.523 1.242-5.045.827-1.523 1.91-2.744 3.25-3.665 1.341-.92 2.85-1.617 4.528-2.089 1.236-.33 3.1-.649 5.594-.956 5.081-.613 8.822-1.345 11.223-2.195.023-.873.035-1.428.035-1.664 0-2.596-.594-5.503-1.783-6.565-1.608-1.44-3.997-2.16-7.167-2.16-2.96 0-5.145.525-6.555 1.576-1.41 1.05-3.14 3.007-3.13 6.654l-5.688-.017c.56-2.668 1.015-5.654 2.297-7.295 1.282-1.64 3.135-2.903 5.56-3.788 2.423-.885 5.232-1.328 8.425-1.328 3.17 0 5.26.378 7.241 1.133a9.87 9.87 0 0 1 4.232 3.058c.932 1.145 1.377 2.383 1.75 4.13.21 1.085.315 3.044.315 5.877v8.497c0 5.925-.213 7.732.056 9.302.268 1.57 1.837 2.243 3.876 1.881l.08 4.86s-4.897.293-6.583-.357c-1.376-.53-2.25-2.798-2.436-4.569zm-.525-14.857c-2.284.944-4.948.846-9.586 1.784-2.933.655-4.209.872-5.281 1.344-1.072.472-3.159.705-4.63 2.487-1.182 1.432-1.012 2.887-1.012 4.482 0 1.7 1.397 3.115 2.667 4.248 1.27 1.133 3.752 1.007 6.2 1.007 2.424 0 4.58-.537 6.468-1.61 1.888-1.075 3.274-2.544 4.16-4.409.676-1.44 1.014-3.564 1.014-6.373zm40.096 19.772V47.18c-2.354 3.73-9.002 5.594-13.57 5.594-2.96 0-5.682-.826-8.164-2.478-2.482-1.652-4.405-3.96-5.769-6.922-1.363-2.962-2.045-6.367-2.045-10.214 0-3.753.618-7.158 1.853-10.215 1.235-3.056 3.088-5.399 5.559-7.028 2.47-1.628 5.233-2.443 8.286-2.443 2.237 0 7.417.478 9.165 1.434 1.748.956 3.17 2.201 4.265 3.735V.02h5.427v51.905zM238.893 33.16c0 4.815 1.002 8.414 3.006 10.798 2.005 2.384 6.526 4.556 9.253 4.556 2.75 0 7.882-2.118 9.804-4.396 1.923-2.278 2.885-5.754 2.885-10.427 0-5.146-.98-8.922-2.937-11.33-1.958-2.407-6.577-4.787-9.444-4.787-2.797 0-7.877 2.332-9.753 4.645-1.876 2.314-2.814 5.96-2.814 10.94zm34.214 6.04 4.705-.061c.35 2.525 1.764 5.245 3.36 6.59 1.597 1.345 4.416 2.214 7.283 2.214 2.89 0 5.427-.498 6.825-1.69 1.398-1.192 3.175-2.1 3.175-4.587 0-1.44-.813-3.259-2.049-4.085-.862-.567-3.594-1.776-7.02-2.65-4.615-1.18-7.422-1.515-9.205-2.376-1.783-.862-3.723-1.858-4.644-3.38-.92-1.523-1.38-3.205-1.38-5.046 0-1.676.378-3.228 1.135-4.656a10.279 10.279 0 0 1 3.095-3.558c.979-.732 1.823-1.351 3.513-1.859 1.69-.507 3.502-.76 5.436-.76 2.914 0 5.472.424 7.675 1.274 2.202.85 3.828 2 4.877 3.452 1.049 1.451 1.82 4.373 2.216 6.804l-4.683-.032c-.28-1.936-2.119-4.818-3.459-5.904-1.34-1.086-4.703-1.432-7.15-1.432-2.891 0-4.268 1.267-5.503 2.235-1.236.968-1.853 2.1-1.853 3.399 0 .826-.038 1.765.475 2.426.513.685 1.709 1.741 2.804 2.19.63.236 2.776 1.072 5.853 1.922 4.452 1.204 7.46 1.504 9.22 2.27 1.76.768 3.14 1.883 4.142 3.347 1.003 1.463 1.504 3.28 1.504 5.452 0 2.124-.612 4.125-1.836 6.001-1.223 1.877-2.989 3.328-5.296 4.355-2.308 1.027-4.918 1.54-7.832 1.54-4.825 0-8.501-1.015-11.03-3.045-2.53-2.03-3.653-6.362-4.353-10.35z" letter-spacing="-3.06"/>
  </g>
</svg>