<?xml version="1.0" encoding="UTF-8"?>
<svg id="Layer_1" data-name="Layer 1" xmlns="http://www.w3.org/2000/svg" xmlns:serif="http://www.serif.com/" version="1.1" viewBox="0 0 1410.8 1998.8">
  <defs>
    <style>
      .cls-1 {
        fill: #fff;
      }

      .cls-1, .cls-2 {
        stroke-width: 0px;
      }

      .cls-2 {
        fill: #000;
        fill-rule: evenodd;
      }
    </style>
  </defs>
  <rect class="cls-1" width="1410.8" height="1998.8"/>
  <path class="cls-2" d="M446.3,1998.8H0V0h1410.8v1998.8H470l91.6-61.4c-7.4-5.7-11.1-15.9-11.1-30.4v-387.5c0-2.7-.3-4.9-1-6.6,10.1-9.1,15.2-22.4,15.2-40-4.7,6.1-12.3,9.9-22.8,11.4s-22.6,1.6-36.4.3c30.7-2.4,45.7-11.6,45-27.8v-25.8c0-21.6-11-32.2-32.9-31.9-28.7,0-59.3.4-91.8,1.3-32.5.8-63.7.3-93.3-1.8-7.8-.3-15.4-1.2-23-2.5s-14.5-3.5-20.7-6.3c-6.2-2.9-11.3-6.4-15.2-10.6-2.6-2.8-4.4-6.3-5.4-10.2-.5-1.9-.8-4-.9-6.2-.4,2.1-.7,4.2-.8,6.2-.4,6.6.6,12.9,3.1,19.1,3.2,8.1,10.2,16,21,23.8,8.4,5.4,16.7,9.6,24.8,12.6v59.2c-11.8,6.7-20.1,14.8-24.8,24-4.7,9.3-7.4,19.5-8.1,30.6,2-9.1,5.9-16.2,11.6-21.2,5.7-5.1,12.8-8.8,21.2-11.1v415.8c0,17.2-7.2,28.8-21.8,34.9h135.1c-14.5-6.1-21.8-17.7-21.8-34.9v-411.3c4.7,1,9.2,2,13.4,3,4.2,1,8,1.9,11.4,2.5,3.7.7,7.4,1.4,11.1,2.3,3.7.8,7.4,1.6,11.1,2.3l6.1,1.5v425.4c0,15.8-3.2,30.7-9.6,44.5-1.3,2.4-2.6,4.6-4,6.7h0ZM1082.8,864.7c-2.4-6.2-11.5-4.2-18.1-6-9.3-2.6-17.1-7.8-24.2-12.8-4.9-3.5-10.5-9.4-18.4-9.5l-.7.9,10.5,5.3c10.6,7.5,20,17,32.5,22.5,5.5,2.4,14.8,6.1,18.4-.5h0ZM1125.1,934.4c-3.3-2.3-4.8-10.6-6.5-14.4-4.8-10.9-11-20.5-17.7-29.3l-.7-.2,4.6,7.2c3.3,5.7,7.8,14.8,7.9,22.8l-.7.9c-2.9-4.7-2.9-10.3-6.3-14.2h-.9c-1,2.8-.3,10.7-.5,14.6l-.5.5h-.5c-2.3-2.5-2.2-6.9-3.3-10.7-1.7-5.8-8.4-26.6-12.6-28.6.2,8.7,10,25.1,6.5,35.1v.7h-.2c-1.1-10.3-6.2-16.2-13.2-20.5l-.5.2.2,4.2-4.6-7.2-.5-.2c-1.1,6.3,4.6,16.5,3,27-4.5,29-17.3,55.3-44.4,61.8v2.1c13.8,6.9,25-12.1,38.8-11.4,5.4,6.1,6.2,16.5,7.7,26.5l.2.2.7.2c1.2-2.1,1-4.4,2.1-7,.7-1.6,2.6-2.8,3.5-4.6l.7-.2c2.6,3.3,8.1,4.5,13.3,5.1-4.4-21.5-26.3-37-14.2-63.5l2.1,3.5h1.6c2.2-2.3,1.9-5.9,3.5-8.8,3.2,9.8,5.5,18,9.8,26.3l.7.2c.3-4.8-.3-11.3.7-15.8h.5l8.8,25.8h.9l1.2-27.2,4,9.3c2.7,4.5,7.2,6.3,8.6,12.3-14.1,2.5,1.5,20.9,5.1,25.6l.9.2-2.3-14.4h.7c5.8,7.2,9.1,12.4,14.2,20.7l.5.2c.9-3.3-.9-7.4,0-10.5,6.8,11.2,10.6,24.6,17.7,35.1l.2.2-4-10.2c-1.9-6.3-3-14.3-3-21.8,5.3,2.6,5.1,10.1,7,16.3,4.2,13.5,11.1,24.5,19.1,34.2,2,2.5,7,8.1,11.4,7l.7-.2c-11.5-4.5-15.9-15.4-19.3-27.9-.7-2.5-2.1-6.6-1.4-9.5h.2c6.3,9.9,16,38.1,29.8,38.3l.5-.9-5.8-5.3c-5.5-6.9-10.7-16.8-10.7-28.8,6.3,4,9.4,17.4,14.2,23.5,8.6,11,32.7,20.2,49.3,10.5,4.2-2.5,4.6-5.8,7.7-8.4,4.2-3.6,9.1-7,9.1-14.9l-.2-.2h-.5c-12.8,27.9-45,10.2-55.1-7.4l-.9-8.4-9.5-20.9h-.9c-1.4,4.3,2,12.8,3.3,17,1.6,5.2,4.2,7.9,5.6,11.6l1.4,7.2c3.6,9,10.7,16,19.3,20.2-4.5,1.3-18.8-6.7-20.7-9.3l-8.1-19.1,2.1,1.4h.5c1.9-11.7-5.7-15.2-8.6-23.7-4.2-12.1-2.8-26.2-8.6-36l-.5-.2c-.8,6.5,3.4,18,.7,26l-.2.9c-6.8-10.5-4.9-40.8-14.4-47.2l2.3,10.2c.9,14.3,1.7,28.7,2.6,43-2.6-1.5-9-14.4-9.3-18.4-.2-2.9,1.7-6.7.9-10.7-2.4-13.3-12.1-44.6-23-47.4l6,7.9c4.4,7.2,6.9,17.7,6.7,29.1l-.2.2c-8.9-5.6-11.9-19.6-17-29.1-3.3-6-7.2-11-11.9-15.6h-1.6v.2l4.6,6.7c5.5,10.9,7.2,24.2,7,40.9l-.2.5h-.5c-12.1-17.2-6.9-42.9-27.4-52.8l-.2.5,6.7,5.1c5.2,6.6,8.5,24.1,4.4,35.3v.7h-.2ZM1147,1076l1.2.5.9,1.6h.5c2.5-7.4,9-.5,10.9,2.6l.5-.2c6.3-8,8.2-18-.7-25.3-1.9-1.6-4.6-2.7-5.6-5.1l-1.2-15.3c-6.9-2.7-13.8-7.7-18.1-13l-6.5-9.1-7.7,1.4c-6.1-.9-17.9-10.3-16.5-17,3.1,1.3,4.4,3.8,8.8,4.2l-7.4-10.7c-5.5-9-9.2-19.1-12.1-30.7-1.2-4.9-3.5-14.2-.5-18.8l.2.2h.2c-6.7,14.3,15.7,43.8,23.5,48.3-.7-7.1-6.7-16.9-3-25.1l.7.2c4,21,15.1,35.9,28.8,47.2,2.2,1.8,3.8,4.7,6.7,5.8-4.6-10.6-14.9-17.7-18.1-30.2l.7.2,10.7,10.5c14.1,19.1,25.2,40.1,44.4,54.2,6.3,4.6,18,13,30.2,9.3l-.2-.5c-6.1-5-9.9-7.3-12.5-16l.2-.2,9.1.9c10.1,4,18,14.6,33.9,11.4,24.8-5,38.5-35.8,30.2-66.2-1.3-4.7-2.4-9.9-4.6-13.9-.6-.6-1.2-1-1.8-1,.5,5.9,1.6,12.3.3,18.4-4.5,21.7-23.2,31.1-41.6,16-13.9-11.4-17.1-34.4-24.2-52.8-4.9-12.7-10.9-24.1-18.4-34.2-2.5-3.5-5.4-8.9-9.3-10.9l1.9,8.4-.7-.2c-7.2-13.4-18-32.9-32.5-38.6-13.4-5.2-31.7-1.4-43.2-8.8v-.7l.2-.2c7.5,0,14.8,2.1,21.4,3.7,3.5-2.3,8.2-3.3,11.6-6,3.8-3.1,5.7-9.1,9.5-11.9,0,4.5.7,6.8,2.1,9.5,3.9,0,6,2.4,9.5,3.3,6.4,1.5,21.3-1.7,20.7,5.8-8,2.6-13.6,12.4-2.6,16.3l.5,3.7c18.4,3.2,26.4-5.8,33.7-16.5l4.2-7.2c-.2,13.6-17.3,27.7-9.3,38.1,11.9-.2,22.6-26.4,24.6-38.3,2.1-11.9-7.8-30.3-16.3-29.1l-6.3,6.5v8.4c-1.5,9.6-6.6,15.3-13.9,19.1-2.2,1.1-11.2,5.4-13.9,1.9v-.2c10-.2,21.9-8.2,20.5-19.5-.8-5.8-3.1-10.2-5.3-14.6-7.6-1.7-14.2-2.5-19.8-6-6.4-4.1-12-17.8-24.2-8.6l-4.9,5.8c-2.2,6.7,3.1,15.7-4.7,17.9l-.2-.2c.2-3,1.6-5.9.9-9.8l-1.2-9.3c.7-4.3,1-10.1.2-14.9-.9-5.7-3.5-8.1-3.5-14.9-1.6,1.1-1.7,3.8-2.6,5.6h-.7c-.6-14.5-4.7-27.4-7.2-41.1-1-14.4-2-28.8-3-43.2-1.9-13.2-3.7-26.3-5.6-39.5-1.1-7.1,1.1-36.5-3.7-38.4l-2.1-.2-1.6,2.3,1.9,13.7c0,12.5-1.2,24.9-1.2,36-4.5,2.3-12,8.5-13.5,13.7l.7-.2c2.5-3.2,6.4-5.7,10.9-6.7,9.7,3.8,3.6,31.8,5.8,44.4l2.6,14.6c-4.3,2-8.4-.5-12.6-.2v.2l.2.5c5.3,2.4,9.1,6.2,13.5,9.5,4.5,17.8,4,37.2,7,56.2,1.4,9-4.2,20.4.5,24.6l2.3.2c2.7-5.7,2.9-13.4,3.9-21.1h.2c1,16.2.8,35.8-17.4,32.1l-4.9.2c-3.5-.9-8.7-4.1-11.4-6.3-8.4-6.8-13.7-20.3-17-32.1l-1.9-10-.2-.2c-1.5-3.2-5.3-4.6-7.7-7l-6.7-8.8c1.8,7.6,7.2,12,9.1,18.4,2.4,8.4-8.2,25.5-13.7,26.5-6.7,1.2-12.3-5.8-15.8-8.6-8.5-6.8-17.8-15.2-32.3-15.6v.7l1.4,2.1-.2.2c-3.1-1-6.9-.4-11.2-1.2-10-1.7-19.1-3.9-29.3,0l-9.1,4.6v-.7c8.3-6.3,15.2-14.2,27.9-16-.5-4.5-1.5-9.6-2.3-15.1-1.8-12.4,2.3-26.7,4.9-36.3,8.4-30.9,23-52.8,37.2-77.4,7.5-13.1,10.1-29.9,16.3-44.6,3.8-9,10.5-15.7,14.6-23.7l-3-3.5c.5-2.8,1.8-4.9,4.9-5.1,1.2,1.8,2.3,3.3,5.1,3.5,1.2-2.4.4-4.9.9-7.7,1.1-.8,1.6-1.4,3.5-1.6l.2.2c1.2,3,2.1,4.1,4.2,6,2.7-.2,2.9-2,4.2-3.5,1.8,0,2.4.3,3.5.9l-1.2,3.2.9.2c5.6,2.7,11.5,4.5,14.9,9.3,4,5.7,4.4,13.4,9.5,17.9l2.8-.2c3.7-4.9.3-16.2-1.6-20.9-2.2-5.3-5.1-10.6-9.3-13.9-5.6-4.5-27.7-15.1-36.7-15.3l-10,6c-8.7,7-21.1,33.2-25.1,45.6-2.2,7-7.9,11.9-5.3,21.8h.5l3.5-4.4h.2c2.1,8.1-11.5,36.1-14.9,41.6-2,3.2-3.9,8.9-8.6,9.3-.6-1.4-.9-2.3-2.6-2.8-4.1-1.4-11,9-12.1,11.9,2.1.7,4.2.7,5.3,2.3,5.7,8.1-15,32.4-18.6,37h-.5l-.5-.5c1-10,13.4-15.3,13.5-27.9l-2.6-2.3c-6.6,2-15.2,10.4-18.4,16l-2.3,5.6c-4.6,6-10.4,8.9-13.7,16.7-2.5,6-2.2,12.6-3.9,20l-.5.5-.7-.2c-4.5-7.6,2-20,1.4-26.7-4.6-3.8-26.4-5.7-26.7,2.8l2.8,2.3-.2.5c-7.9,3.1-15.8,5.5-26,7l-15.3.7c-3.1,1.1-4.5,6.3-8.1,7.9l-.2-.2c0-2.1.2-7.3-.2-7.7l-21.6-1.4c-16.1-2.5-42.7-9.5-54.2,0v.2c-2.2,2-1,7.9-1.9,11.2l-2.8,5.3c-1.7,8.3,2.9,13.4,4.4,18.6,3.7,12.8,4.6,25.5,16.7,29.5,2.4.8,29.5-8.6,33.5-9.8,6.3-1.9,26.9-3.6,29.1-8.1,2.4-7.2-12.9-22.2-4.9-36h.7v.2c-4.2,12.8,7.5,36.6,20.9,33.9l12.5-4.9c15.6-5.4,33.3-9,39.3-23.9l3.3.5c-.6,17.5,6.6,18.8,18.1,10.7v-.5l-2.6-.9-2.3-12.3c-1.7-10.6-1-28.8,8.6-29.7,4.7,7.7.6,12.5-1.6,20.2-4.3,14.6-2.3,29.4,7.4,35.8l-.2.5c-4.1.9-7.8.7-11.2,2.1l-9.8,5.3-20.5-1.9c-10.2-1.5-21.8,1-30,3-10.3,2.5-20.1,5.6-29.1,9.5l-17,9.1v-.7l5.1-5.3c-10.4,0-19.6,2.4-27.7,4.9-13.2,4.1-25.2,9.1-35.3,16.3l-31.4,23.2-5.8,1.2c-3.2,1.7-23,18.8-24.4,21.6,7.2-2.5,13.5-7.8,20.2-10.5l-.2.9-14.4,16.7-12.8,8.1c-15.1,10.8-29.2,22.7-48.6,29.3-5.5,1.8-11.5,1.5-17.9,3v.5l.5.5c7.3.3,14.9.5,21.4-1.2l16-4.9c-9.9,8.1-25.4,11.9-40.7,14.2-7,1.1-20.2-2.1-24.2-.9,6.6,3.6,13.5,5.4,22.8,6.7l10.2-.2v.9l-.7.7c-14.6,2.7-39.4,0-46-8.8l-5.1-10c-7.3-10.4-11.7-16.6-9.8-33.2l-.9.2c-4.2,5.7-5.1,17.8-2.3,26l-.2.2-2.6-1.9c1.1,8.4,6.4,15.8,10.9,21.1l4.4,4.2-.5.5c-4.4-.4-6.9-4.4-9.1-7.2-8.6-10.9-17.2-29.5-7.2-46.5,3-5,11.5-12,17.7-5.3h.7v-.7c-7.1-7.3-15.9-4.5-21.4,2.3-9.8,12.1-10.5,27.9-4.7,44.4,1.4,3.9,7.5,14.6,6.7,17.4l-1.9-.5c.8,4.6,6.2,9.5,9.3,12.3l9.8,8.8c11.4,6.5,33.6,8.4,50,5.1l17.9-4.9,11.4-.9c9.8-2.4,31.6-12.7,33.9-21.2l-.2-.2h-1.2c-6.2,5.7-16.3,8.4-25.3,11.2-7.3,2.3-14.2,6.3-21.1,7.9-14.5,3.3-32.8-.4-43.2-4.2-6.8-2.4-22.1-8.5-22.3-16.5l.5-.5c4.8.4,5.7,4.2,9.1,5.8,7.6,3.7,17.2,5.3,26.7,6.7,8.2,1.3,19,.8,26.5-.7l10.9-2.3-.2.2-15.3,8.6v.2c9.7,2.1,22.2-4.5,26.3-9.5l3-5.6,12.6-7c5.4-1.6,11.6-1,16.3-3,10.3-4.4,14.3-13.6,22.3-20l10.5-5.8c-8.7-2-27.7,16.3-36,19.3l.5-2.1c-13.8,5.7-26.4,10.7-44.2,13.7-3.8.6-9.6,1.6-13.2.2v-.5l14.4-3.3c8.6-2.3,17.1-4.8,24.9-8.1,22.6-9.7,39.8-25.7,54.4-43.5l15.1-14.9c-9.2,4-21.9,17.2-30,23.7-3.1,2.5-5.9,6.3-10,7.7v-.7l17-17.4c11.1-10.9,23.1-21.7,36.3-30.4,3.3-2.2,26.8-13.5,27.4-14.6-4,.3-7.5,2.2-10.7,3.5-10.2,4-19.2,8.7-27.4,14.6l-12.8,10.2-.2-.9,10.2-10.2c11.3-9,24.7-16.4,39-22.3,3.6-1.5,20-8.8,20.9-1.4-1.5,2.5-3,1.7-5.3,3.3-5,3.4-9.6,8.6-15.1,11.9-11,6.6-24.3,11.3-30.2,22.8l14.9-7.2,22.3-9.1,11.6-8.8,16-9.5c4.6-2.7,20.3-11.2,27.2-8.8v.7c-33.7,15.3-50.4,30.7-71.4,58.3l-12.3,15.3c6.5-2.6,9.4-7.8,13.5-12.8l21.1-22.1h.7l-.5.7c-3.3,6.3-8.9,10.8-11.4,18.4,11.1-2.1,17.1-16.4,23.2-23.9,6-7.3,41.3-25.7,53.5-26.5v.7c-12.8,2.8-35.4,20.2-39.7,31.1l22.1-16.7c12.6-9.3,25.6-17.3,39.5-25.6l17.4-10.5-.2.7-33,26c-7.2,8.8-9.8,21.3-18.6,28.4v.7c11.9-3.4,33.5-25.6,41.1-34.9,3.2-3.9,13.4-15.2,19.8-14.2v.2l-.2.5c-10.3,2.5-23.7,24.9-30,33.2l-9.8,11.9c19.2-3.8,18-17.8,30.4-24.2l.2.9c-4.1,2.2-6.1,8.6-7,13.9l.7-.5c7.8-4.2,20.4-26.8,27-27.9l-7.4,12.1c-1.8,5.4-1.4,10.2-3.2,14.9-2.6,6.8-6.8,12-10,17.9,16.1-9.4,26-25.5,40-37,3-2.5,11.8-11.4,17.4-9.5-9.6,7.1-19.8,12.8-24.9,24.2l.2.2c15.5-1.5,21.9-11.1,32.8-15.3-2.7,5.6-19.8,13.8-25.6,17.9-7.6,5.4-11.1,12.6-16.5,20.2l-6.3,7.7c6.1-1.4,9.5-7.7,13.9-11.2,7.4-5.7,16.2-9.6,24.2-14.9l8.1-6.3h.2c-3.8,7.9-14.8,14.6-21.6,19.8l.9,4.2.2.2c15.6-3.2,19.9-21.5,32.5-22.3v.5c-7.2,5.8-10.8,11.4-14.9,20.5l-3.9,7.9.9-.2,11.6-7c2.8-2.7,4.4-8.1,8.6-9.3l.2.2v.5c-1.9,5.5-4.8,9.6-4.9,17.4l.7-.2c4.2-7.9,7.7-16.8,11.9-25.1h.2l.2.7c-2.8,12.1-5.7,24.6-10.2,35.1-1.2,2.8-6.4,8.9-4.9,12.1l.7-.5c4.8-2.5,15.2-14.6,17.2-19.8l-1.9.7c.8-9.2,4.2-13.3,8.1-19.1h.5l.2.2c.2,5.5,0,10.2-2.1,13.7l-2.6,2.6-.2,6.3-1.4,7c3.5-6.2,7.3-12.4,8.8-20.7l.9-13c7.4,17.8-4,48-13.5,55.1-2.7,2-6,1-9.5,2.6s-7.5,6-10.9,8.4c-6,4.2-18.1,13.2-26,14.2v-.7l4.9-4.4c-1.1-3.2,5.5-9.6,7.2-13v-.2l-10,1.4.2-.7,3-4.9h-.7c-4.8,6.1-35.9,27.9-45.1,28.1v-.7c7.5-5.6,19.5-14,24.9-21.4l-24.9,17c-2.7,1.9-5.2,5.1-8.8,6l-.2-.2.2-1.2c8.5-6.8,15.9-15.7,23.2-23.7l6.3-7.7-31.8,28.6c-2.6,2.2-7,8.6-10.7,8.4l29.3-35.8c1.9-2.5,6-6,6.5-8.8l-.2-.2c-6.5.7-18.5,15.8-21.8,21.2-8.6,13.7-20.3,25.5-33,35.1l.7.5c18.4-3,36.1-5,49.7-12.8l13.9-9.5c5.3-3.4,10.9-5.1,14.6-10h.7v.2c-2.6,8.4-6.6,17.5-12.8,22.5l-8.8,6.7c15.6.2,24.9-10.7,34.2-17.2,5.3-3.7,10.8-6.1,14.6-11.2h.7l-6.3,13.9,8.4-3.5c7-2.2,15-3.5,21.4-5.3l.2.2v.9c-4.5,4.2-10.3,6.4-15.1,10.5l-3.3,5.6c-4.3,5.7-14.3,10.4-23.9,10.5v.9c9.1,4,22.2-3.4,27.9-6.7,21.3-12.5,32.1-32.5,41.1-57.2h.5l.2,1.4c4.8-3.5,4.7-12.8,8.1-17.7l1.6.2c5.1,7.3,4,23.5-2.3,28.6l-7,3.5c.2,16.3-18.8,42.4-29.7,46.9-4.7,2-9.2.9-15.1,2.1-5.9,1.2-19.5,5.8-25.6.9l-1.6-3c-5.8,2.1-10.5,5.3-17.9,6.7-19.6,3.7-43.6,1.3-59,6.5-1.1,15.1-12.3-1.2-14.9-2.8-3-1.8-10.2-2.6-14.4-1.4-8.5,2.5-14,5.2-17.7,12.6l-2.3,6.3c-4,4.3-10.9,6-13.2,11.9,6.4,3,9.4,9.2,9.5,18.4h.7c3.7-6.4,5.7-8.5,6.3-17.4l1.4.5c.8-7.4,13.7-22.7,23.5-16,4.9,3.4,1.3,6.8,2.8,11.2,1.6,4.9,12.8,24,19.3,22.3,1.9-.5,3.2-5.7,4.2-7.4,3.2-5.5,8.5-23.1,13.5-25.6,1.9-1,4.3,0,5.8,0,3.9-6,11.2-10.3,19.5-11.9,7.2-1.3,16,1.6,14.9,8.4l-8.4-2.3c3.3,2.5,7.3,5.6,6.3,12.3-.3,1.7-1.4,2.5-1.4,3.3,0,5.7,5.5,20.3,8.4,23.9h.7l6.5-9.3c7.1-10.3,7-22.5,20.7-26.7,4.1-1.3,7.9.8,11.4.5l11.2-1.4.2.2c-.2,9.1-7.9,6.4-13.7,8.8l.2.5c5.3,3.4,10.6,12.4,16,13.9l12.8-13c3.2-4.4,3.8-8.5,8.6-11.4,3.7-2.2,10.2-3.8,15.3-1.9l4.2,2.1,8.1-3.7.5.7c1,8.1-3.7,11.8-10.5,13.2,2.2,3.8,12.4,23.3,15.1,24.6h.5l9.5-9.5c2.9-6.5,4.3-10.9,12.5-12.8,4.7-1,7.4,2,10.7,1.6l3.5-3,1.4.9c1.6,7.7-1.9,10.2-7.4,12.3l6.3,10c2.1,4.8,2.8,10.2,4.6,15.6l.2.2,4.9-.5c0-6.7,9.8-12.2,16-7.9,6.5,4.5,4.6,21.2.5,27.9h.9ZM1147,1076l-.5-.2-.2-.2c-1-6.7-1.6-13.6-6.3-16.5h-.2c-13.9,7.9-9.2,25.2-17.4,37.7-.7-.5-.3,0-.7-.9-2.2-7-.8-23.4.2-29.3,1.4-7.6-4.1-20.4-6.5-25.1-2.8-5.3-4.2-6.1-10.9-7.7-1.6-.4-2.4-1.7-4-.9-4.5,2.3-4.6,8.5-7.2,12.8l-5.6,5.3c-2.4,4.5-3.2,9.4-2.3,14.4.7,3.6-.3,12.8,2.6,14.2h.5c3.2-6.5,3.1-15.1,2.6-23.9h.7c5,12.4,1.4,37-2.8,47.2l-3.3,5.3.2.2c5.6,2.6,21.9,8,27.2,5.8,3.8-1.6,4.5-7.1,8.6-7.9l.5.5c.4,2.5-.6,4-.9,6.5,5.3,3.2,7.2,11.3,10.7,16.3h.5c10.6-17.1,15.4-25.5,13.7-52.8l.9-.7h0ZM1049.6,925.1c-6.1,10.2-15.4,14.4-24.4,21.6-3.9,3.1-6.8,7.9-10.5,11.4l-.2.7.2.2,15.3-3c8.3-3.4,23.7-17.3,20.2-30.9h-.7,0ZM730.9,926.3l-18.4,15.8v.7c4,2.2,9.8-3,12.3-4.9,7.6-5.6,14-11.8,20-19.1l7-7.7-.5-.2-20.4,15.3h0ZM127.8,42h-21.7c-10.3,25.8-18.2,54-24.4,85-4.7,23.6-6.3,49.2-6.3,76.9s-1.5,25.6,1.6,29.8c4,5.4,14.8,4.2,22.1,3.3l-.2-16c0-16.5-1.1-33.1,1.2-48.3l3.3-31.8c5.8-32.7,11-63.6,21.6-91.3.9-2.5,1.9-4.9,2.9-7.4v-.2ZM1157.9,1100.9c.4-7.4.3-20.8-5.3-22.1-4.2,4.3-1.5,13.7-2.8,21.6-1.5,9.5-3,19.3-7,26.5l-4.2,5.3c.7,2.6,2.2,6.5,4.4,7.7,1.3-.9,1.2-2.4,2.1-3.7,6.2-9.8,12-19.6,12.8-35.3ZM1002.9,1169.2c2.8-7,6.2-42.2,1.9-48.1-3.7-5.1-12.7-5.9-21.6-5.8-3.8,1.3-7.3,1.1-9.3,4.2-2.2,3.4-9.3,52-8.1,57.9,1,4.8,4,7.7,7,10.5,10.3.2,19.5-11.8,26-16.5,1.2-.9,3.4-.7,4.2-2.1h-.1ZM996.1,1094.8c7.8,2,17-2,23.9-2.8,4.9-10.8,3.8-27.2,4.2-42.5l.7-6.5c-.6-1.5-2.9-3.1-3.7-4.9-3.9-8.3-6.9-21.2-18.8-21.2-11.8,5.1-13.5,16.3-18.6,28.1-1.2,2.8-4.5,5-5.3,7.4-1.2,3.3-1.4,9.5-1.6,12.3l1.9,8.8.2,12.3,17.2,8.8v.2ZM1001.7,1325.8c-.4-.3-.8-.5-1.2-.8-1.5-.9-3-1.8-4.5-2.8-1.8-1.1-3.6-2.2-5.4-3.2-.2,0-.4-.2-.6-.3-.4-.2-.9-.5-1.3-.7h0c-1.7-1-3.6-1.8-5.6-2.5-2.4-.9-4.9-1.7-7.7-2.3-5.9-1.3-10.6-1.6-14-1-1.1.2-2.1.5-2.9.9-.7.3-1.3.7-1.8,1.2.6,0,1.2,0,1.8,0h.5c9.1.9,16.8,4.5,23.2,10.9,3.3,3.3,6.2,7.3,8.8,12.1.6,1,1.1,2.1,1.6,3.2.9,1.8,1.7,3.5,2.5,5.4,4.7,11.3,7.1,24.3,7.1,39.1v14.2h-46.5c-10.1,0-20.1-.3-29.8-1-7.8-.3-15.4-1.2-23-2.5s-14.5-3.5-20.7-6.3c-6.2-2.9-11.4-6.4-15.4-10.6-3-3.2-5-7.1-6-11.7-.3-1.5-.5-3.1-.6-4.7-.3,2.3-.5,4.5-.6,6.7-.2,6.4.9,12.6,3.1,18.6,3,8.1,10.1,16,21.2,23.8,3,2,6.1,4,9.1,5.8,3,1.9,6.4,3.5,10.1,4.8l-55.1,38.4c7.1,5.1,10.6,15.2,10.6,30.4s0,10.5-.3,16.2c-.2,5.7.4,11.2,1.8,16.4,1.4,5.2,3.7,9.6,7.1,13.2,3.4,3.5,8.6,5.5,15.7,5.8h120.4v381.4h-52.6v-290.9c8.8-1.7,16.2-6.2,22.3-13.7-5.1,4-11.9,5.2-20.5,3.5s-17.4-4.7-26.3-9.1c-8.9-4.4-17.3-9.3-25-14.7-7.8-5.4-13.3-9.8-16.7-13.2,10.1,5.4,21.4,10.5,33.9,15.4s24.2,7.5,35.2,7.8,20.4-2.4,28.3-8.3c7.9-5.9,12.4-16.9,13.4-33.1-4.4,4.4-9.9,7.3-16.4,8.6-6.6,1.3-13.7,1.7-21.5,1s-15.8-1.9-24.3-3.8-16.5-3.8-24.3-5.8c-5.7-1.3-12.4-3-20-5.1-7.6-2-15.1-3.3-22.5-3.8s-14.3.3-20.7,2.5-11.3,6.8-14.7,13.9c4.4,0,8.1.4,11.1,1.3,3,.8,6.1,2.1,9.1,3.8,3,1.7,6.2,4,9.4,6.8,3.2,2.9,7.2,6.3,11.9,10.4l-24.8,4,6.6,3,4.6,1.5v310.1c0,27,15,40.5,45,40.5h148.7c28.3,0,42.5-11,42.5-32.9v-363.7c0-6.7-3.5-17-10.6-30.9-7.1-13.5-20.4-20.2-40-20.2h-94.6v-59.9c0-5.2.3-10.4,1-15.4h51.6v62.7h32.4l59.7-65.3c0-2.4-.3-5.2-1-8.6.3-13.5,3.9-22.6,10.6-27.3l-102.2-69.3h-.2ZM194.2,915.9c10.6,8.5,32.2,4.6,43.2-.2,29.7-12.9,42.9-42.6,52.5-75.5,33.3-113.5-6.9-241.7-52.8-312.8-17.1-26.4-49.1-64.6-91.8-64.4l-10.9,1.4c-6.2,1.5-21.8,7.5-23.7,12.3l.2.2,2.1,1.2c6.3-2.1,12.3-5.3,19.8-6.7,36-7,69.3,21.2,83.9,39,34.6,42.2,57.3,93.9,70.2,158.3,3.3,16.3,3.9,33.4,6.5,50.9,3.1,20.9.9,53.2-2.1,71.8-9.8,60.4-28.5,124.5-97.4,123.7l.2.9h.1ZM642.8,1234.7c-4,9.9-8.5,13.9-8.6,27l.7-.2c7-9.3,10.8-17.6,13-32.3.4-2.4.9-8-.2-10l-4.9,15.6h0ZM1114.9,583.7c1.6-5.2-2.2-7.8-1.2-13.5.8-4.6,5-9.2,3.5-14.2-1.4-4.7-14-9.6-18.8-11.6-20.6-8.4-44.2-12.8-69-17.7-1,.8-1.8,2.8-3.9,2.3-1.4-.3-12-20.5-13.9-23.2-15.8-22.5-37.6-40.9-61.1-55.8-49.6-31.3-110.4-51.8-178-64.8l-19.8-2.8-5.6.7-4.6-2.1c-22.8-3.2-45.6-6.4-68.3-9.5l-28.4-3.9-3.5,1.6c0,4.2-2.3,4.7-3,7.4l-2.8,30.9c-.8,5.7.7,9.8,2.3,12.8l.5,1.9c-.3.5-2.9,1.3-3.5,1.9.3,7.6,10.3,7.3,13.7,12.1,8.1,11.4,12.4,26.2,16.3,41.8,3.3,13.5,3.2,27.8,5.6,42.5,7.5,46.6,6.4,99.5,23.5,136.4,16.7,36.1,48.8,56.5,87.2,71.1,19.9,7.6,41.1,12.9,63.9,17.7l29.3,3.9c12.3,2,33.5,4.5,46.3,2.1,17.1-3.3,32.3-10.5,44.4-19.1,5.4-3.8,24.1-18.8,25.3-24.9-2.6-2.1-5.8-4.5-10.7-3.5-15.2,20.3-49.6,40.4-88.3,34.4-7.7-1.2-22.8-1.9-27.9-5.1,24.2.2,51,2.2,70.4-4.4,39.1-13.3,59-48.3,71.4-88.5,7.5-24.4,14.4-58.1,4.4-84.8-20.1-53.7-62.1-86.5-111.1-111.3-19.2-9.7-39.2-18-61.4-25.1-5.2-1.7-20-7.7-26-6,85.1,26.9,159.5,63.6,190.8,143.9,13.3,34.1,2.9,73.4-9.1,102.5-3.2,7.8-9.5,23.7-16.3,27.2,1.2-3.8,3.4-6.1,2.3-11.2-1.7-.4-3-1.7-5.6-1.2-6.6,1.5-10.5,8.5-15.1,12.3-6.5,5.4-13.2,11.2-21.4,14.9l-18.8,7.2-10.5,2.8c-3.9,2.4-4,7.9-.5,10.7v.2c-11.4,3.4-38.6,0-50-1.6-5.4-.8-12.9,3.7-9.5,8.6l3,1.6c-4.5,1.6-13.8-2.1-17.7-3.3-15.2-4.5-29.8-8.5-43.5-14.4-37.9-16.4-66.2-44.7-81.4-83.7-3.6-9.4-4.5-19.3-7.2-30.2-4.3-17.8-8.1-36.4-11.4-56.5-8.5-51.9,2-120.8,33.7-139,9.7-5.5,30.8-4.3,44.4-2.1l21.2,1.9c27.2,5,53.4,11.6,76.5,20.7,58.1,22.9,124.4,61.9,146,119.9,5.6,15.1,6.9,44.1,3.7,63-1.7,10.4-2.8,19.7-4.9,30-3.4,16.9-9.7,34.1-17.4,47.4l-10,15.8,4.9,2.1c10.4-14.3,17.7-30.9,24.6-48.8h.2v2.8l.7-.2,3.7-4.9-4.6,11.9c-4.7,11-9.7,21.5-15.6,31.4l-6.5,10.5,1.2,1.2.7-.2c20.7-24.1,30.5-59.9,42.1-93l5.3-17.9,2.1-.9c2.9-3.1,2.8-11.5.2-14.4-4.7.2-4.2,2.1-5.8,5.3l-.5-.2c-2.9-6.6,1.3-17.9,0-27-.8-5.5-4.6-20.5-3.9-23.7h.5c1.4,1.5,20,2.3,26.7,3.7,12.6,2.6,23.4,6.6,33.9,10.9,6.3,2.6,13,3.5,17.9,7.4,5.5,4.4-2,9.8-.9,15.8.5,2.7,1.7,6.1,2.3,8.4,1.7,5.8-4.1,11.6-8.8,10.2-1.2-1.9-.6-3.5-.9-5.8-2-1.4-3.2-.9-5.8-1.9-13.1-4.6-28.1-11-45.1-11.4.2,2-2.2,2.5-3.5,3.7l.2,2.3c3.9,4.1,21.3,2.9,27.9,4.6,7.3,1.9,13.4,5.2,19.3,8.4.5.3,1.8,1.3,2.6.5,1.5,1,1.3,3,3.5,3.5,6.8,1.7,11.7-7.2,13-11.4h0ZM781.6,392.4c-3,2.6.6,4.6,1.9,6.3l-.5.2-26.5-3c-8.6-1.2-19.4,1.5-26.5.5l-.2-1.4c-4.5.2-4.2,3.5-7,5.1-7.7,4.6-12.4,6.9-17.4,13.9-15.8,22.2-26.4,75.5-20.5,116,3.9,26.6,3.4,55.4,10.7,79,13.7,44.3,37.3,75.3,72.7,97.6,18.5,11.6,40.4,20.4,64.2,26.7,4,1.1,26.7,4.5,27.7,6.5v.2l-.5.2c-27.9.4-46.4-5.4-67.2-12.3-18.5-6.2-35.5-13.1-50-23.2-7.4-5.2-13.7-11.6-20.7-17.2l2.1-2.6c2.2-7.3-10.8-23.4-16-23.7-2.1.9-1.8,2.2-3.3,3.5l-.2-.2c-6.7-12.2-19.2-34.6-17.4-53.7h.2l3.5,2.3,1.2-.7c1.1-4.2,0-10.7-2.6-12.8l-3.3-2.3-3.3-17.7c-3.9-19.4-3.8-40.2-6.7-60.9l-1.4-28.4-3.7-22.5c-1.2-4.5-4.7-10.5-3.9-15.1,10.3-4.1,1.3-22-6.7-20.7-1.3,1.3-2.2,1.9-2.3,4.4l-.7-.2-9.1-12.3c-2.1-2.6-5.4-4.3-6.7-7.7-1.8-4.5,1.1-20.9,1.9-25.8.7-4.2-.2-12.7,2.3-15.3l6.7,1.6c0,2,.2,2.7.9,3.7,4.7,2,10.3.7,11.6-3.3,16.8-.2,33.5,1.5,48.1,4.2l17.2,3-.2.5c-2,1.2-2.4,3-1.6,5.8,5.6,3.1,7.9-3.3,10.2-5.8,14.3-.2,32.4,2.5,43,7v.5h0ZM1018.7,532.1c-2.6,1.4-2.8,2.6-4.4,4.9h-.5c-.7-.9-.9-1.1-2.6-1.2-25-52.7-81.3-87.6-135.3-111.6-15.9-7-33.8-11.9-51.6-16.7-4.7-1.3-22.1-4.3-24.4-7,22.1,0,43.5,10.4,61.6,15.6,35.8,10.2,64,27,92,44.6l9.5,5.6,5.8,1.2c21.9,14.7,44.2,39.6,53.9,66.5l-4.2-1.9h.2ZM1014.7,539.6c5.1,5.2,2.4,23.3,13.5,17.4,10.1,23.2-1.7,71-8.4,89-1.4-5.6,4.6-13.2.9-18.8-1.6-.3-2.3,0-3.5.5,1.3-12.7,6.3-27.3,4.2-42.8l-2.6-28.1-4.2-17.2h.1ZM897.6,748.7l-27.9-3.5c-.6-2.5-1.1-3.2-2.1-4.9,8.7,0,15.5,3,23,4.2,6.9,1.1,16.4.2,22.3-.7,31.1-4.9,54.8-14.4,70.4-34.4h.9l-.5,2.1c-4.8,4.8-8.1,10.4-13.5,14.6-13.4,10.6-45.6,26.5-72.8,22.5h.2ZM305.6,1735.1c-6.1-10.8-13.3-17.6-21.8-20.5-8.4-2.9-17.5-3.5-27.1-2s-19.4,4.5-29.3,9.1c-9.9,4.6-19.2,9.1-27.8,13.7s-16.3,8.3-23,11.1c-6.7,2.9-11.6,3.5-14.7,1.8,4,4.7,8.2,8.2,12.4,10.4,4.2,2.2,8.7,3.6,13.4,4.3v160.4h-52.6v-1.5c0-35.7,0-71.3-.3-106.7-.2-35.4-.3-211.1-.5-245.9-.2-34.7-.3-69.5-.3-104.2v-15.9c0-5.2.5-10.4,1.5-15.4h51.6v62.7h32.4l59.2-65.3c0-21.2-11-31.9-32.9-31.9h-105.7c-10.1,0-20.1-.3-29.8-1-7.8-.3-15.4-1.2-23-2.5-7.6-1.4-14.5-3.5-20.7-6.3-6.2-2.9-11.3-6.4-15.2-10.6s-6-9.7-6.3-16.4c-1.7,8.8-.9,17.2,2.3,25.3,3.2,8.1,10.2,16,21,23.8,3,2,6.1,4,9.1,5.8,3,1.9,6.4,3.5,10.1,4.8l-55.1,38.4c7.1,5.1,10.6,15.2,10.6,30.4l.5,324.3c0,35.4-.2,71-.5,106.7,0,17.2-7.1,28.8-21.2,34.9h224.1c21.9,0,32.9-11.1,32.9-33.4v-191.7c5.1-1.7,9.9-2.3,14.4-1.8,4.6.5,8.7,2.3,12.4,5.3v-.2ZM1060.7,898.4c-.9-4.5,1.1-11.6-1.4-15.1l-3.3,11.9c-2.8,6.6-9.2,12-8.1,20.5l.2.2c6.5.8,6.9-3.1,9.8-6.5h.2c1,5.4-1.2,9.2-1.9,13.2,3.5-2,15.6-23,4.4-24.2h.1ZM1134.8,1368.9c-.6-2.1-.9-4.3-1.1-6.7-.3,2.3-.5,4.5-.6,6.7-.2,6.4.9,12.6,3.1,18.6,3,8.1,10.1,16,21.2,23.8,3,2,6.1,4,9.1,5.8,3,1.9,6.4,3.5,10.1,4.8l-55.1,38.4c7.1,5.1,10.6,15.2,10.6,30.4s0,10.5-.3,16.2c-.2,5.7.4,11.2,1.8,16.4,1.4,5.2,3.7,9.6,7.1,13.2,3.4,3.5,8.6,5.5,15.7,5.8h120.4v381.4h-52.6v-290.9c8.8-1.7,16.2-6.2,22.3-13.7-5.1,4-11.9,5.2-20.5,3.5s-17.4-4.7-26.3-9.1-17.3-9.3-25-14.7-13.3-9.8-16.7-13.2c10.1,5.4,21.4,10.5,33.9,15.4s24.2,7.5,35.2,7.8,20.4-2.4,28.3-8.3,12.4-16.9,13.4-33.1c-4.4,4.4-9.9,7.3-16.4,8.6-6.6,1.3-13.7,1.7-21.5,1s-15.8-1.9-24.3-3.8-16.5-3.8-24.3-5.8c-5.7-1.3-12.4-3-20-5.1-7.6-2-15.1-3.3-22.5-3.8s-14.3.3-20.7,2.5c-6.4,2.2-11.3,6.8-14.7,13.9,4.4,0,8.1.4,11.1,1.3,3,.8,6.1,2.1,9.1,3.8,3,1.7,6.2,4,9.4,6.8,3.2,2.9,7.2,6.3,11.9,10.4l-24.8,4,6.6,3,4.6,1.5v310.1c0,27,15,40.5,45,40.5h148.7c28.3,0,42.5-11,42.5-32.9v-363.7c0-6.7-3.5-17-10.6-30.9-7.1-13.5-20.4-20.2-40-20.2h-94.6v-59.9c0-5.2.3-10.4,1-15.4h51.6v62.7h32.4l59.7-65.3c0-2.4-.3-5.2-1-8.6.3-13.5,3.9-22.6,10.6-27.3l-102.2-69.3c-3.7-2.4-7.6-4.7-11.6-7.1s-8.9-4.2-14.7-5.6c-9.4-2-15.7-1.7-18.7,1,15.8.7,27.8,9.4,35.9,26.3,6.4,12.5,9.6,27.3,9.6,44.5v14.2h-46.5c-10.1,0-20.1-.3-29.8-1-7.8-.3-15.4-1.2-23-2.5-7.6-1.4-14.5-3.5-20.7-6.3-6.2-2.9-11.4-6.4-15.4-10.6-2.6-2.7-4.5-6-5.5-9.7l-.2.2ZM97.7,42h-7.6c0,0,0,.3-.2.4-4,10.4-6.2,22.7-11.2,32.1-1.9-6,2.4-15.5-2.6-18.8-7.9-5.4-13.1,11.1-15.1,15.8-7.1,16.8-13.6,36.5-13.7,59.7,0,9.1,1.6,27.5,6.3,30.9h.5c3-5.5,5.7-12,7.7-18.8l3.3-13c1.6,16.8,1.1,34.4-1.2,51.1l-.9,23.7c-1.5,11.2,2.3,23.3-5.1,28.4-6.9-1.7-11.9,5.4-15.8,8.9v9.9c1.5-1.2,3.1-2.3,4.7-3.5,5.7-4.1,17.6-7.1,21.4-13l.5-49.5,2.6-32.3c3.9-24.8,6.9-48.4,13-70.7,4-14.4,8.5-28.2,13.6-41.3h-.2ZM63.9,222.8l.2-.7.5.7s-.7,0-.7,0ZM42,259.6v9c10.7-7.1,22.1-12.6,30.5-13.8,6.1-.9,13.9,1.1,17,3.7,1,.9,1,2.8,2.8,3,4.2.5,9-7.7,7.9-11.9-6.5-4.9-18.4-5.6-29.5-5.6l-8.1,1.2c-6.5,2.3-12.7,8.4-17.9,12.3-.9.7-1.7,1.3-2.6,2h-.1ZM42,275.5v34.5c2-1.9,4-3.7,5.8-5.6l7.9-7.7c-1.9-7.4,3.5-26.5-5.3-28.1-2.4,2.4-5.3,4.7-8.4,6.9h0ZM42,317.9v6.2c7.9-8.1,15.7-14.9,20.2-17.7,3.9,0,6.7.2,8.1,2.6l2.1,15.3,6.7,34.2,3,12.6-.2-.2c-3.1-5-11.6-7.9-14.6-.7-1.8,4.3-.6,11.5.7,15.8,2,6.5,12.6,28.8,21.4,16,1.4-2.1,1-4.8,1.9-7.7,3.1,6.5,5.9,12.6,9.8,18.1,2.7,3.8,7.5,7.3,8.8,12.1l-1.6,3c-1.6-1-1.6-2-4.4-2.1-2.7,2-2.6,2.9-3.5,7l-11.6,3c-10.6,4.3-21,13-27.7,21.4-3,3.8-16.7,22.6-18.1,23.2-.4-.2-.7-.5-1-.8v75.4c.8-6.5,1.9-12.8,3-18.6,9-46.7,22.7-89.7,68.6-99.5,17.6-3.7,35.2,3.1,47,8.1,35.6,15.3,61.7,42.8,81.4,73.9,16.3,25.9,28.9,54.9,40.9,85.3l4.6,16.5c2.7,7.1,5.2,16.1,11.2,20,2.8,1.8,7.9,2.7,9.3-1.2-.8-2.8-3.1-2.9-4.6-4.9l-4.7-9.1-2.3-13.2-6.5-24.2c-11.1-33.2-25.7-62.5-44.2-88.3-5.8-8.1-13.3-14.7-19.5-22.3-5.7-6.9-11.9-13.8-19.3-19.1-9.7-6.9-20.6-12.8-32.3-17.4-23.5-9.3-52.7-15.3-66.9-33.5-3.9-5-5.7-12.6-8.1-18.8-7.5-19.3-13.5-40.1-18.8-61.8-1.8-7.2-3.3-30-9.8-31.1-9.8,5.9-19.8,13.8-28.8,22.4h-.2ZM42,628.9v45.1l5.1-1.3c-1.4-14.1-3.1-28.9-5.1-43.8ZM42,706.7v66.7c2.8,2.6,5.3,4.5,6.8,4.9,5.8,1.3,12.1-5.4,13.5-8.8l-4.2-10.5-7.4-22.5-2.6-10.9v-5.8l-4.9-10-1.2-3h0ZM42,395.6v63.3c1.2,1.4,2.7,2.5,4.4,3,9.7,3.1,13.4-11.7,10.9-20.2-5.1-15.4-10.2-30.7-15.4-46.1h0ZM42,46.9v110.3c2.7-43.3,11.4-81.5,24.4-115.2h-21.9c-.8,1.6-1.7,3.3-2.5,4.9h0ZM42,193.2v3.5l9.1-1.3-.2-.7-8.9-1.5ZM720.1,1368.9h9l2.7-4.7c3.1-4.5,13.6-21.8,10.9-30l-6,12.6c-4.6,7.7-10.3,14.4-15.8,21.2-.2.3-.5.6-.8,1h0ZM792.5,1368.9h5.8l.4-3.1-3-1.4-3.2,4.5ZM619.3,1399.2c-21.9,0-32.9,10.6-32.9,31.9v492.2c0,22.3,11,33.4,32.9,33.4h170c22.3,0,33.4-11.1,33.4-33.4v-492.2c0-21.2-11.1-31.9-33.4-31.9h-170ZM678.5,1433.6h52.6v489.7h-52.6v-489.7h0ZM245.4,1368.9c.1-3.4.5-6.7,1.2-10.2l10.5-11.8c0-5.6,1-11,4.1-15.4l7.7-8.6c1.1,1.4.3,3.8.7,6,.9,5.6,0,9.7-1.5,13.4l8.2,7.8c.3-5.1,1.3-10.1,2.8-13.3l4-5.8c3-8,3.6-18.8,4.7-27.9h-.2l-1.2.7c1.9-6.9,6.4-13.9,10.2-19.3l5.6-7-.5-.5c-7,.5-22.1,14.9-26,19.8l-4.6,5.8c.6-5.2,3.6-9,5.3-13l4.4-12.3,5.6-8.8v-.2c-7.3,1.3-19.4,12-22.8,17.7-1.7,2.9-2.7,9-5.3,10.9v-.7l.5-11.2,1.6-12.3c2.4-8.3,10.9-21.7,15.6-29.1l7.9-12.3-.7.2c-7.9,8.2-19.6,12.7-26.7,21.6-4.1,5.1-5.7,11.7-9.5,17.2-1.8-5.1,1.3-11.4,2.6-14.4l1.4-7.7,8.8-13.5,1.2.7c1.5-4.6,4.7-8,7-11.9l12.3-28.1c1.5-3.5,6.3-10.3,4.9-14.4l-.2-.2-.7.2-15.8,25.6-4.6,9.3-11.9,9.5-8.8,10.5c-4.4,6.3-5.4,15.4-10,21.6l-12.1,13.7-4.4,3c-2.5,3.4-3.7,7.1-6.3,10.2l-13.7,12.6c-1.3,1.7-1.9,4.4-3.9,5.3l-.2-.2c-1.2-12.5,8.9-24.8,16-30.2-3.6-7.4,5.5-23,8.4-27.2,6.4-9.1,14.9-14.9,23.7-21.6l13.5-17c3.7-4.7,10.5-10,11.4-17l-.9.2c-2,3.2-18.7,18.2-22.1,20,.2-1.4,10.6-28.1,11.2-28.8,1.4-1.6,4.3-.9,6-3.7,5.4-8.7,7.1-21.1,9.8-32.3h-.7c-1.9,4.3-4.9,7.6-7.2,11.4l-5.6,11.4c-2.9,4.6-12.1,11.8-17.7,13.5,1.7-5.9,9.5-23.1,9.1-28.6l-.5.2c-5.5,8.7-12.9,15.3-17.2,25.3-3.3,7.5-2.1,17.8-5.1,25.6-2.7,6.9-6.2,13.8-10.2,19.5l-7.2,8.6-2.6,8.8c-5.6,9.3-17.5,11.5-24.2,19.8h-.2c-5-11.2,12.1-25.7,18.1-29.3l7.7-3.3c2.7-2,4.5-7.4,5.8-10.7,1-2.7,5.8-21,3.9-22.3l-.7.5c-3.8,3.9-5.6,10.1-8.4,15.1l-.9-.2c-.8-4.4,1-7.9,1.4-11.9l-.7.2c-9.6,11.8-31.8,21.9-44.4,32.1-3.1,2.5-10.6,12.5-13.9,13l-.5-.9c3.8-13.7,26-31.9,36.5-40.4,16-12.9,25.9-30.3,38.4-46.7,7.1-9.4,19.2-24.5,21.1-38.1h-.2l-.7.5c-14.1,7.1-27.9,37.7-38.1,51.1-19.9,26.2-50.7,41-68.3,70-7,11.4-16.8,33.8-7,48.6h.5c5.8-27.2,21.6-44.2,40.9-57.9,5.8-4.1,15.6-12.6,25.1-11.4v.7c-14.7,8.1-33.4,41-38.1,59.7-.5,1.8-.8,3.8-1.1,5.9,0,.6,0,1.1-.1,1.7,0,.2,0,.4-.1.6-.7,8.8.4,18.9,3.8,24.3.2,0,.3-.2.5-.4l4.4-13.2c6.9-15.7,15.7-28,28.6-37.7,2.7-2,12.7-9.8,15.8-9.5l-.5.2-10.7,11.6c-8.7,11.8-23.7,37.6-17.2,59.3,1.7,5.7,4.6,10.1,7.7,14.4h.7v-.7l3.5-14.6c5.8-15.3,17.2-36.5,37.4-32.1,3.3-4.8,7.6-8.2,11.4-12.5h.7c-.6,19.4-11.3,23.1-19.3,34.4-4.7,6.6-3.4,10.2-6.3,18.6h-.2l-.7-.7c-1.1-15.1,5.1-21.4,8.8-31.6-9.8.9-21.9,14.9-25.1,22.5-2,4.9-1.9,10.1-2.6,16.5-.4,3.4,0,7.9,1.4,10.2l.7-.2c3.5-9,4.2-17.3,10-23.7h.5v.2c-1.1,5.6,0,12.6-.9,19.3-1.3,10.2-1,20.7,3.2,27.3h5.3c.2-11,2.9-30,10.1-28.9v.2c-1.6,6-5.4,11.1-6.7,18.4-.9,4.6-.6,7.7.1,10.3h14.1c.8-1.8,1.9-3.3,3.2-4.5l1.6.2.7,1.4-.2,2.9h5.6l-.5.4ZM231.7,1327.9c-5.8-14.6,6.5-26.1,11.8-33.5h.9l1.4,11.6c-1.6,9.4-8.1,14.7-12.1,21.8h-2.1.1ZM259.3,1307.7c5.5,20-4.5,17.5-9.8,29.7-1.1,2.7-.2,5.9-.7,8.6l-.5-.2c-4.2-9-1.4-25,3.3-31.6l7-6.5h.7ZM282.1,1355.9l4.3,4.1c.4-1.3.8-2.6,1.3-3.7l4.6-7,2.1-14.4c1.5-7.2,4.3-13.6,7.7-19.1,3.4-5.4,10.4-9.8,12.3-16l-1.2.2c-6.6,8.4-23.2,18.9-26.5,29.7-1.2,3.8,1.7,7.5.9,11.6-1.1,5.5-3.6,9.9-5.5,14.5h0ZM838.5,1368.9c0-3.3.3-6.6.9-9.9l2.5-8.1c-1.4-5.7,1.1-13.5,3.2-17.7l4.1-6.2,6.3-20.6c-1.6,1.3-3.4,2.5-5.1,4.5-4.7,5.5-17.1,29.2-14.6,40l2.1.9c-.2,9.1-4.3,6-6.5,9.5l-2.2,7.5h9.3ZM855.7,1306.3l3.5,7.5.3-.3-.7-1.2,4.9-6.3c5-5,13.3-8.2,15.8-15.6,2.7,2.3-2.9,12-3.9,13.5-2.6,3.7-6.4,5.2-10,7.9-1.6,1.2-3.1,3.7-4.3,6.3l14.1,30.5c.8-2.9,2-5.6,3.7-8.2l.5.2c-1.1,2.9-2.3,6.4-3.1,10.3l4.3,9.3c2.5-10.5,5.3-23.7,10.4-26.4h.5l.5.5c-1.6,8.1-5,19.2-3.3,30,.2,1.5.5,3,.7,4.5h11.2c0-6.2-.6-12.2-2.2-17.7l.2-.2c4,1.7,5.7,8.9,6.2,18h11.9l.7-11.2c-.8-2.3-3.9-3.2-4.7-6.3-1.2-4.9.9-12,3.7-17.9l-7.6-.3c-.7,7.6-.5,15.7-5.2,19.2-14-1.5,6.1-30.8,9.1-33.2l.5.9c-2,1.9-3,4.7-3.7,7.8l33-29.4c3.1-2.8,7.8-5.3,14.2-6.6-.9-12.2-.9-24.4,5.9-27.2-.7,4.9-2.4,11.5-1.2,16.5l.5-.2c2.4-5.3,11.4-23.6,19.8-20.5l3.9,4,.2-.2c1.8-3.5,11-17.3,17-14.6,2.5,1.1,1.7,4.8,3.7,6,4.1-4.6,13.4-6.4,20.5-4l3.5-2.6,1.9.2.2.2c.2,12.3-5.6,19.1-10.2,26.5h-.5l-.2-.2-1.2-11.2,3.5-10.2c-15,.3-13.2,14-20.7,18.1-8.9,4.9-6.6-8.9-5.8-13l-.7.2c-3,4.5-8.7,19.3-13.7,20.5-5.5-1.7-3.4-5.4-4.6-11.4h-.5l-.2.2c-3.6,5.9-4.9,11.2-7.4,19.1l-1.4,3c3.3.2,6.9.7,10.9,1.5h.2c2.7.7,5.2,1.4,7.6,2.2,1.2-2.7,2.6-4.5,4.2-4.8,1.6,1.2,2.2,3.9,2.2,7.2,1.2.5,2.3,1,3.4,1.6.3-7.8,8-17.5,13-18.4-1.4,4.9-.3,13.4-1.9,18.4-.7,2.2-2,3.4-3.3,4.5,2.6,1.6,5.2,3.2,7.9,4.9l2.5,1.7c.4-2.5.7-4.9.9-7.1.3-4.4-3-7.6-.7-14.2,1.3-3.7,4-6.2,6.5-8.6l2.1.5c1.3,5.5,4.9,14.1,1.2,20.2l-5.3,6-.5-.2-1.4-1.6c0,2.1,0,4.4-.2,6.7l12.3,8.3c.2-6.1.9-12.1,1.6-17.4.6-4.3-1.3-8.9,0-13.2,1.1-3.8,3.5-7.4,7-8.8l.2.2,1.9,16.7c-.7,4-2.6,6.7-3.7,10-.5,1.5,0,2.8-1.4,2.8-.6-1.8-1-4.2-2.6-5.1-.5,5.8-.4,11.4,0,16.9l15.4,10.4c-2.4-20.2-2-42.5,5.9-56.4h.7c4.5,7,5.8,20.3.9,28.4l-6.7,9.3,1.4,10.2c.9,4.1,1.9,8.1,2.9,12l16.3,11-1-8.4-2.8-2.3c-3.9-7.5-3-18.3-3-29l4.4,8.8,1.2-.9c0,5.3,6.3,11.1,10,13-1-10.6-8.8-22.6-4.7-36h.5l.2.2c-.3,16.9,8.7,20.8,13.2,31.8,2,4.8-1.3,8.6-.7,11.4l4.9,10.7,6,19.8,4.2,2.8h9.4c0-2.4.2-4.8.5-7.2l-.3-3.8-10-23.5.5-.5c8.7,2,11,8.9,12.6,17.3l5.5-17.9-2.1-4.3-2.6-10.7-6.3-14.6c-5.5-16.2-5.2-24.2-14.9-36.5h-.7l-.2.2c-.3,4.3-1.1,12.6-3.5,15.3l-1.9-.5-1.6-8.1c-1.9-6.3-5.3-10.9-7.4-17.4l.2-.2c1.5.5,4.8.3,6.3,1.2l3.5,4.4c0-2,.4-3.3,1.2-4.4,2.3-.5,5.5-2.1,7.9-.7,9.4,5.2,11,42.6,16.5,54.2h.5c4-4.4,6.6,1.2,9.9,6.5l3.6-11.6,8.1,17.6c11.6-7.2,1.5-54.5-2.8-62.7-6.4-1.5-4.8-4.9-5.8-11.9-.3-2.1-1.6-4.8-.7-7.2,1.4-3.7,5.6-3.6,6.5-8.1,1.6-8.5-2.9-13.9-3.9-20-1.8-.2-3.9,1.5-5.6,2.3,1.3,10-.8,20.5-6,26.7l-.5-.2c2.5-8.2.2-14.2-2.3-20.7l-.9-3.7-4.6-2.6c-1-1.2-.8-3.2-2.3-3.9l-.2.2c-5.4,6.4-6.4,27.2-16,28.6,4.1-8.7,5.4-13.3,3.5-25.1-.8-4.9.8-6.7-2.6-9.1-5.9,1.5-14-1.4-18.6,2.1-2.5,1.9-2.7,5.9-3.9,9.1-3.2,8.2-7,16.3-14.2,20.5-.4-1.8-.2-1.6-1.2-2.8,7.6-6.2,11.5-22,4.4-31.8-3.2.8-5.7,2.7-10.2,1.9-1.6-3.8-2.6-9.3-6.3-10.9-1.6,2-4.9,3.2-5.8,5.6l-1.4,9.8c-2.6,9.5-8,15.5-14.4,21.1l-5.1,5.8-.9-.7c.2-14.2,17.3-16.4,13.2-33.5-.6-2.6-.9-4.8-2.3-6.5-3.4,0-6.1,1.9-9.5.7-7.1-2.6-7.8-14.8-20-12.6-5,.9-8.7,3.9-12.8,5.8.8,9.4-5.3,12.3-7.4,19.5l.9.2c4.6,2.2,7.5-1.4,10.7-2.3v.2l-.5,1.4c-3.6,3.4-7.2,8.3-13,9.3l-5.6-.5-9.1,9.3-.2,3.9-3.5,8.1-.2,12.1-1.2.2-2.1-4.6c-6.6.8-14.5-10.8-10.5-18.1,2.3-4.2,7.6-4,11.9-6.3,6-3.2,17.1-15.4,14.4-26-4.4-1.5-6.3-2.8-7.2-7.7l-.2-3s-9.8-5.9-10-6c-11,3.9-17.3,27.9-31.8,12.5-2.2-2.4-2.7-5.4-4.4-8.4l-1.2.2c-5.5,6.1-8.9,15.6-7,27.7.5,3.4.2,6.5,1.9,8.6,9.2,0,16.5-1.3,20.5-6.5h.7v.2c-1.7,6.5-9.3,12.9-15.6,14.9l-7,.9c-3.1,3.4-6.4,12.4-5.3,19.3.4,2.8,2.8,5.8,1.9,7.4l-1.9-.7c-3.8-5.3-8.8-16.3-6.3-26.5l3.5-7.4c-2.6-7.7-5.4-19.2-2.3-29.3,3.4-11.4,12.9-13,5.3-24.6-11.3,3.3-21,28.3-31.1,25.6-6.4-1.7-8.8-7.2-13.7-10l-.2.9c-2.9,6.2,2,13.2,3.3,18.1.8,3.2.6,6.9.5,10.5,9.2,2.1-1.9,38.7-7.4,40.9-1.3-3.4,6-14.6,4.2-22.5-3.7-16.2-19-27-13.2-48.8,1.1-4.2,1.9-7.6,4.7-10-2-.5-4.5,1.2-6.3,1.9l-9.1,3.5c-4.8,3.1-10.4,14.3-19.8,11.2-1.6-.5-1.9-2.2-3.3-3-1.5.4-5.2,1.9-5.6,3.3l4.2,17.4c2.5,8.1,8.1,13.9,10.2,20.7,4.1,13.5-2.1,32.6-11.8,35.3l.2-.7c13-9.3,3.9-23.4,1.2-35.3-.7-2.8.9-5.9.5-8.1l-12.8-23.5c-3.5-8.6-3.4-21.6,6.3-23.2l.2-.2-.9-5.3h-.2l-8.8,5.6c-6.8,5.4-13.2,19.6-25.6,15.3l-.9.2c-2.1,5.9,2.3,11.7,4.6,15.6l.9-.2c1.4-1.8,4.5-3.6,7.4-2.3-1.1,3.7-4.9,5.1-4.6,10.5.2,4.8,3,7.9,4.9,11.2,4.4,7.7,2.4,16.3-.7,23.5-2-1.6-3.3-12-4.9-14.9l-5.8-9.1-4.4-12.1-4.4-4.4c-2.8-4.7-6.3-17.8-6.5-24.4-3.7-1.8-5.4-6.5-10.9-5.6-2.5,3.9-8.2,9.4-15.3,7.7l-5.3-2.1c.4,12.2,12.7,12.7,20.2,17.9,3.1,2.1,4.9,8.1,6,12.1,1.1,3.7,3.9,15.1.2,17.7,2.5-11.6-4.2-18.9-9.5-24.4h-.5c-1.3,3.4-3.3,7.9-2.6,13,.9,5.9,7.5,20.8.5,24.6,3.3-13.3-12.3-21.4-13-35.8l1.9-6c-6.4-4.7-9.5-10.5-11.2-20.2l-6-3.3c-7.1,3.2-11.3,5.3-14.9-4h-.5c-4.1,13.4,3.8,19.6,7.9,29.3h.5c1.2-2.8,2.5-5.6,5.6-6.5l.7.2.2.2c-5.5,13.3,10,29.5,14.4,37.9l-.2.2c-8.7-3-18-10-21.4-18.4-1-2.4,0-5.7-.5-8.4l-4.9-7.4c-3.3-5.2-11.2-10.2-12.5-16.3-1.6-7.2,6.3-11,7-17.2.3-3.4-3.5-8.1-4.9-10.7-3.6.5-8,2.2-10,4.4,1.4,7-7.7,22.5-14.9,20.9,1.6-3,4.3-9.5,1.4-14.4l-4.4-2.8c-2.5-3.7-4.9-8-11.9-5.6-8.4,2.9-6.4,12.6-.2,16.3,2.4,1.4,5.6,0,7.4.9,1.5.7,2.2,1.9,2.3,4-.9,1.1-1.1,1.9-2.8,2.3-11,3.8-22.9-27.9-28.1-33.9-2.8.6-5.5,1.1-7.4,2.6-5.3,4.1-15.7,28.1-13.2,39.5,2.7,12.8,10.1,29.4,5.1,43l.7.2.2-.2c2.6-7.1,5.3-13.9,7.2-21.8l1.9-13.9.7.2c4.7,11.5,1.1,29.3.2,41.8l.7-.2c4.5-5.9,9-11.6,11.6-19.5l2.3-12.3c3.6,9.8-3.1,27.2-5.6,33.7l.2.2.5-.2c8.7-11,17.8-19.1,17.7-38.1l.7.2.9,1.2.9-5.3.7-.2h.2c1.4,23.1,3.2,45-4.4,63.7-5.5,13.5-15.4,22.4-20.9,36.3h-.7l-3-11.6c-1.4-8,2.8-18.2,3.3-27.2l-.7-.2c-2.8,3.6-21.5,19-25.3,19.1v-.5l9.3-12.1.7-8.8,2.1-7.4c-3.4,4.5-17.1,17.6-22.5,19.1l6-8.4c1.5-2.6,5.7-22.2,5.1-24.9h-.2c-2.4,5.2-11.3,24.3-16.5,25.1l-.5-.7c1.1-3.8,5.7-9.5,4.6-13.9l-.2.2c-6.6,9-14.3,21.9-15.1,36.3l.7-.2c2.4-4.5,7.5-13.7,13.5-14.4l-8.6,26.3.5-.2,14.2-18.1h.5l.2.2-5.4,28.8.7-.2,8.8-9.3c3.8-5.1,5.8-12.1,12.3-14.4h.2c-.5,8.2-6.8,17.9-4.7,27.7l.5-.2c4.5-6.5,7.5-11.1,10-20.2h.7l.2.2c1.2,10.1-3.7,29.8-6.7,38.6-1.9,5.5-7.1,8.7-4.4,16.3l-1.2.2.7,1.6h.2c6-13.8,16.7-42.4,30.4-47l.2.2-3.7,7.4-1.9,23.5c.4,1.4,1.4.2,1.2,2.3-.4,3.2-1.9,7.2-.7,10.2l.2.2,1.6-.2c6.2-10.2,9.6-26,13.7-37.9,1.2-3.6,1.4-11.9,5.6-12.6l.2.5c4.2,5,.5,19.6-1.4,24.4-3.7,9.6-9.2,12.9-14.2,20.2l-4.2,12.1-5.1,6.3c-2.5,4.1-4.1,9.4-5.6,14.5h10.8c1.2-1.8,2.4-3.7,3.4-5.7,3.9-7.5,2.3-14.3,9.8-18.8l1.2,16.7.7.2c3-3.6,4.8-14.7,7.7-17l.2.5c.9,6.5-1.5,12.6-3.3,17.4-.8,2.2-1.6,4.4-2.4,6.6h8c1.5-10,5.2-16.3,8.4-25.2l1.4.5c4.4,5,0,16.2-4.2,24.7h5.5c.2-.5.3-1,.5-1.5l3.7-8.1-.7-9.8c.7-4.5,3.4-7.9,4.2-11.4.5-2-1.2-3.7-.5-6,1.6-5,6.5-8.5,9.5-12.3,4.9-6.2,9.4-12.9,13.5-20,1.3-2.2,5.4-8.2,4.7-11.4-.9-3.7-2.1-7.9-.7-12.6,2.3-7.6,7.5-13.8,11.4-20.2h.5c2.1,6.9-1.5,24.6-3.7,30l-4,5.8c-5.6,12-9,24.3-15.3,35.3-3.9,6.8-11,15.1-11.8,24.2h.2c8.3-2.7,25.6-26.4,27-36.3l-1.9-5.1c-1.1-4,.2-9,1.4-11.9,4-9.7,13.6-16.2,20.2-23.5h.7l.2.2c-.6,8.1-6.1,15.4-8.8,22.3l-3.7,12.8-6.3,9.1-3.5,11.6c-3.6,9.2-12.1,26.6-19.5,31.6-2.2,1.5-5,.5-7.4.9-.7.9-2.5,3.5-4.3,6.1h16.5c2.9-13,12.6-15.6,19.7-24l9.1-11.2c-.6-4.3-3.9-6-4.6-10.7-2.3-14.3,12.9-29.2,18.8-37,1.2.3.9,0,1.4,1.2-4.5,24.7-11.5,49.5-22.8,67.9-2.8,4.6-6.3,11.3-12.3,13.8h7.7c.5-2.7,2.3-5.3,4-6.6,7.8-6.4,27.1-19.4,29.3-30-18-8.8,1.3-35.2,7.7-41.4,1.4,0,1.4.2,2.1.7.5,6.8-1.6,12.5-2.6,18.4l.5,7c-1.5,10.5-.5,20-2.1,31.1l-2.3,14.9h.5c6.8-7,12.1-12.6,16.7-22.1-.9-4.1-5.2-5.9-6.5-10.2-5.6-18.4,2.6-35.8,14.6-41.6,1.4,0,1.6.3,2.3.9,0,8.5-3.4,15.7-4.9,22.8l-.5,19.3c-2.6,10.7-7.7,23.5-11.4,33.9l.7-.2c7.1-9.3,12.1-17.8,16.5-30.4l2.6-7.2-2.1-4.9c-1.5-5-.7-12.4.7-16.7,1.7-5.1,6.9-17,13.7-15.6.9,1.9-1.7,29-2.8,33.2-.9,3.4-2.6,5.9-3.7,9.8h-.7l-1.9-2.8h-.2l-.2.9-1.9,15.3-3.9,18.1c5-7.8,7.6-17.1,12.3-25.8,2.3-4.2,4.9-9.3,7.7-13.5l4.6-6c-2.1-7.1.4-27.4,6-29.5,6.3,2,6,17.7,3.7,24.2-1.5,4.1-4.5,6.1-6.3,10.5l-6.7,12.3-.9,6.3c-1.4,4.7-3.9,9.6-6.5,13.2-3.1,4.3-6.7,8.1-10.5,11.7h11.2c2.4-5.4,5.6-10,7.9-15.4,3.6-8.5,6-17,10.5-24.4,2.2-3.7,6.8-7.4,8.4-11.2v-9.1c1-5.6,2.8-11.7,5.6-15.6,8.1.5,1.7,21.5,1.2,22.8l-4.6,5.3c-3.1,5-10.7,24.9-7.4,33.5l2.1-.9c3.5-13.8,10.4-25.7,19.1-34.4h.7l-4.2,7.4c-3.7,7.5-5.3,16.5-5.3,27.7,2.3,0,1.3.6,2.8,1.6l.2-.5.9-.5.7-9.5c4.1-13.8,14.3-22.4,21.4-33,2.2-3.4,1.2-10.2,2.8-14.2,2.4-6.1,7.4-11.8,6.3-20,8.8-1.9,11,13,8.1,20-1.6,4.1-3.7,5.9-5.8,7.6h-1.2ZM937.5,1270.3l.7.2c-2.1,3-4.4,5.5-5.6,9.5-2.3,7.6-.9,14.5-5.8,19.1h-.2c-9.7-8.9,5.3-24.3,10.9-28.8h0ZM917.8,1307c-1.5-2.7-3.8-5.1-4.4-8.6-1.9-10.6,8.1-23.4,13.7-27l1.4.2v.2c-10.4,3.5-6.1,25.5-10.2,35.1h-.5ZM911.5,1282.4c-4.2,7.2-13.4,36.1-27,27.9v-.5l4.9-5.8c9.6-9.4,16.3-21.4,27.4-29.3h1.4c-1.8,2.8-4.9,4.5-6.7,7.7h0ZM869.9,1297h-.5l-.2-.2c-.3-6.4-1.8-12.7,1.2-17.4l1.2-.5,2.3.9c3.8,6.2-1.6,12.7-3.9,17.2h0ZM1092.1,1294h.9c-4.5,11,9,22.9,5.6,37.4-6.9-4.3-15.3-28.1-6.5-37.4ZM892.7,1294.5c-2.8,5.2-10.5,19.5-19.1,15.8l-.5-.7c8.1-6.8,17.4-14.1,22.3-24.2,1.5,1.3-1.8,7.3-2.8,9.1h0ZM839.7,1301.2c-1.9,7.6-11.1,18.4-17.9,20.7l-.2-.2c2.2-6.3,9.3-31.3,12.8-34.6,4.9.5,6.8,8.2,5.3,14.2h0ZM664.9,1226.8c2.4,1.7.2,12.7-.2,15.1-3,14.7-4.8,26.9-17.4,31.6l-.2-.2c2.7-19.5,13.9-28.8,17.9-46.5h0ZM685.4,1231.3l-.2.7c-2,.5-2,.4-3.5-.2l.7-1.4,3,.9ZM687.2,1305.2c-2.6,4.5-7.2,4.6-9.5,7.7-3.5,4.6-11.7,19.9-16.3,21.8l-.2-.2c-.8-18.9,15.1-28.2,2.8-45.1h-.2l-3.3,6.7h-1.6c-2.2-2.8-4.5-9.1-3.3-14.4,2.3-9.5,18.8-29.5,25.6-35.6.9,1.8-1.8,5.7-3,7.2-5.1,6.2-13.6,28.6-.7,33.2,1.5.5,2.6,1.6,4.2,1.4,5.2-10.8,8.7-22.9,8.1-38.4l.7.2c3.8,15.8,3.8,43-3.3,55.3v.2ZM1036.6,1275.2c1-9.3.5-23.9,6.7-28.1l1.6.5.5.5c-1.2,10.1-4.8,19.6-8.1,27.4l-.7-.2h0ZM1074.2,1281.5l-4.2-12.5.2-12.3-2.6-7.7.9-.5c3.3-.2,5.7.5,6.7,2.6l-4.9-1.6-.2.2c4.4,12.5,7.4,16.8,5.1,31.8l-.9.2-.2-.2h0ZM1054.9,1271.5c-2.5-7.2-3.2-10.7-2.3-19.8,10.9-.4,8.3,17.3,2.3,19.8ZM940.3,1293.1l-.7-.2c-6.4-12.5,5.4-21.5,12.3-27.9h.7l-3.5,7.7-4.4,14.6-4.4,5.8h0ZM888.7,1281.7l-.7-.2c-1-3.8-4-6.1-3.5-10.9l.9-.7c3.4,1.9,3.4,6.3,3.3,11.9h0ZM537,42h-133.3c14,5.3,28,11.6,40.4,18.3l19.1,11.4,7.9,6.3c5.5,2.9,9.8,3.1,14.9,6.7,6.5,4.7,10.9,12.2,17.9,16.3,6.9,4,19.7,3.8,28.8,1.9,3.2-.7,8.1-2.7,12.1-1.4,2.8.9,3.6,3.1,4.4,6h.5l29.1-12.6c-2.9-25.8-16.3-35.2-32.8-46.9-2.9-2.1-5.9-4.1-8.9-6h0ZM1152.4,1356.2l2.3,5c0,1.2,0,2.2.8,3,1.8,1.8,4,3.4,6.5,4.8h1c-1.8-8-3.6-15.4-3.4-15.9,5.6.9,9.7,10.4,12.2,15.9h25c-3.2-4.5-13.7-14.3-12.3-19.4l1.9-1.2c6.3-2,12.6,13.6,16.7,16-2.5-11.5-6.7-21.6-11.8-30.9l-13.5-.6,8.6-7.7c-6.1-9.8-13-18.8-19.6-27.8-2.7-3.7-11-18.4-14.4-19.8-1.9,2-5,3.2-4,7.4,3,1.4,6.4,5.4,4.4,10l-6-2.1.9,17.4-1.2,10.5,3.3,6.3,4.2,16c.8,4.3-.5,8.8-1.5,12.9v.2ZM1179.7,1351.9l-11.2-11.2c-4-5.1-15.4-26.1-13.9-34.4,3.2,1.3,5.6,7.2,7.7,9.8,8.2,10.3,16.8,18.7,18.4,36h-.2l-.7-.2h-.1ZM1075,1350.1l17.1,11.6c-1.3-8.1-2.9-15.3-4.4-17.5-2.6-3.9-8-8-13-9.5l-1.4,8.6c.6,2.3,1.1,4.6,1.7,6.8h0ZM973.9,1350s0,0,0-.2v-.3c-3.5-7-7.7-11.9-13.5-13.7-.3,4.9-1.1,9.5-2.3,12.5l-4,5.6-.2,14.9h7.6c1.8-8,.8-21.1.8-28.9,1.7,2.4,1.7,5.8,2.3,9.3,1.3,6.8,1.5,13.3,1,19.6h8.8l.9-11.7-1.3-7.2h0ZM952.5,1335l-6.5-.3c0,1.3,0,2.5,0,3.7l1.6,1.6,3.3-1.2,1.5-3.9h0ZM936.2,1334.3h-3.3c0,1.4-.2,2.8,0,3.9,1.5,10.2,2.9,20.4,1.5,30.8h6.9c.4-2.5.9-5,1.3-7.5l1.2-9.3c-.4-1.4-2.3-7.8-3.2-9.5-1.1-2-3.2-2.9-4-5.6-.2-.9-.4-1.8-.4-2.7h0ZM928.9,1334l-7.1-.3c-1.3,10.8.8,23.2,1.6,35.2h7l-.4-4.3.2-8.6c-.6-1.6-2.7-2.2-3.2-4.4-1-4.1.2-11.1,2.1-17.7h-.2ZM42,849.9v61.4c1.5-9.7,2.9-19.2,5.1-28.5l9.5-34.4c-.9-1.2-1.4-2.4-3-3l-2.6-.2c-3.2,1.5-6.3,2.9-9.1,4.7h0ZM42,943.5v7.4h0v38.5c.4,2.8.8,5.4,1.4,7.8l-1.4-1.9v10.7c3.8,4.6,7.8,8.9,11.9,13.1,6.2,6.2,24.8,27,37.7,15.8,0-16-1.9-35.4.7-51.6,2.3-14.6,6.9-31,3.7-46.7-8,1-8.8,12.9-10.7,20-5.8,21.5-9.2,48.9-6.3,75.1l-.9.2-.7-.5c-4.5-5.3-2-17-3.3-25.6-.9-6.4-.2-15.5.7-21.6,2.5-16.9,3.1-32,6.7-46.9,1.6-6.4,6-20.9,2.1-26.7l-2.8-.2c-4.1,6.8-15.7,3-17-4-1-5.6,4.8-6,6.7-8.6,2.6-3.5,1.2-16.7-.7-20.2-6-2-10.9,1-13.5,5.1-4,6.2-11.3,36-11.4,45.8,2.2,1.6,5.4,4.2,4.9,8.4-.2,1.4-.9,2-.2,3.3l3.7,4.2-.5.2c-3.9.2-7.7,0-11-.9l.2-.2ZM65.7,916.6c2.3.3,4.3.8,6.7.2l-6.3,23.2c-2.9,11.7-3.7,24.1-5.6,37-1.4,9.7-1.6,23.5,0,33.2l.9,8.8h-.2c-4.9-5.6-2.5-19.1-3.7-28.4-1.1-8.6-.2-19.3.9-27.2,2.5-17,3.8-32,7.2-46.9h.1ZM42,1150.5v1.6c2.1-1.4,4.4-3.7,6.6-6.1,3-10.8,27-18,36.2-21.9,15-6.4,27-15,39.7-23,4.8-3,10-5,14.2-8.6,2.3-2,3.6-6.7,5.6-9.1,8.2-10.1,19.4-17.9,30.4-25.1h1.9l-.2,1.2c-7.3,1.9-20,20.1-23.5,27,3.9.7,10.4-1.7,13.7-3l.2.2-.2.7-15.1,12.8-33.9,20.7-4.8,4.5c0,0,0,.3.2.4-.2.2-.5.3-.7.5-.7.5-1.4,1-2,1.5l-8.1,7.5c-16.3,13.4-31,31.2-42.1,49.7-3.1,5.2-6,11.2-8.6,17.3,0,.4-.3.9-.4,1.3-.3.8-.8,1.8-1.3,3-2.7,6.7-5.2,13.6-7.5,20.1v7.3c1.1-2,2.1-4,3.1-6s1.1-2.1,1.7-3.1c8.9-30.4,41.7-46.1,65.9-61.2,6.9-4.3,14.3-8.1,21.4-12.6,3.9-2.5,6.9-5.6,12.1-7l-.2.9c-17.6,18.1-38,32.4-51.8,54.4-2.8,4.4-7.1,9.5-8.1,15.3l.7-.2c6-9.9,24.5-23.5,34.6-30,4.2-2.7,8.9-6.5,16.3-4.7l.2.2-.2.7c-13.9,11.1-23,18.2-30.4,36-1.5,3.5-5.7,11-4.4,15.6,9-18.6,25.8-29.9,48.8-34.4l-.2.7c-3.9,2.3-25.3,16.7-26.7,19.3,21.6-1.9,53.4-21.2,60.2-35.6-6,0-21,6.9-24.2,6.3l.2-.2c14.5-9.3,33.7-19.7,41.6-35.3-5.4,1-15.4,8.9-19.1,8.1-1.4,5.4-19.5,15.1-27.4,12.1l-.2-.7c8.4-3.8,19.5-19.9,28.1-18.1l.2.2.2,5.6c3.9-4.3,10.5-8.6,14.6-13.7,6.2-7.7,11-17,15.6-26.3l-11.4,10.9-28.6,24.2-8.4,4.4-3-1.2-5.3,3-18.4,4.9-5.6,4.2c1.8-9.8,16.8-18.5,23.9-23.9l10-8.6,8.8-3.5c9-6.5,15.6-19.5,21.8-28.8,3.1-4.7,12.5-18,11.4-24.9l-.7-.2-.2.2c-6.1,13.1-17.3,27.2-29.3,34.4-2.6,1.6-10.9,6.4-13.9,5.1,7.4-5.6,15.9-13.4,19.8-22.3l-9.8,8.4c-4.3,3-12.1,4-15.8,6.7-1.9,1.4-8.7,9.2-10.5,11.4-4.8,5.9-9.4,16.2-17.7,18.4v-.7c7-6.3,7.3-20.6,13.2-27.9,5.4-6.7,11.7-5.3,17.9-9.8,7-5,11.2-13.5,17.9-18.8,8.1-6.5,15.8-12.6,22.3-20.7,3.4-4.2,9.6-9,10.5-15.3l-.7.2c-7.7,7.9-33.6,27.4-47.7,27.4,4.4-8.8,29.5-21.3,38.8-27.2,4.1-2.6,12.4-6.1,13.5-11.4l-.2-.2-22.1,7.7.2-.7,2.3-2.3-1.4.5v-.7c14.5-8.1,38.3-45.5,41.6-64.8l-.7.2c-5.3,9.1-10.2,20.3-16.5,28.6-5.8,7.7-14.4,13.7-21.8,19.8l-9.1,8.8-1.6-.9-18.1,12.1c-2.8,2-4.5,5.5-7.2,7.4.5-6.8,7.7-11.1,11.2-15.3l14.9-17.7,10.5-15.6c3.1-3.9,13.1-12.9,11.4-20.2-6.1,8.9-13,16.4-20.5,23.9l-11.2,10.9c-10.3,12.9-23.1,31.2-37.9,39,5.1-10.1,12.1-20.9,19.1-29.5,5.3-6.5,13.8-10.4,17.7-18.4,1.7-3.5,8.5-17.2,7.7-20.9-4.8,6.9-13.2,20.1-20.2,24.2l-2.3.2-3.9,4.7-14.9,13.7c-6.6,8-12.2,16.9-20.2,23.5-13,10.7-26.5,21-39.7,31.6l-17.1,16v1.3c5-3.8,15.4-7.4,20.1-9.8,10.5-5.5,21.4-10.8,31.1-17.2l15.6-11.2-1.9,2.8,14.6-11.9c.5,1-7.2,12.8-8.6,14.9-8,12.2-15.5,22.3-27.7,30.5-3,2-8.9,7.5-13.7,6.3v-.2l.5-.2c6.3-5.8,13.6-10.9,16.7-19.8l-16.7,10.2c-10.7,6.4-21.1,12.4-30.4,20-3.5,2.9-6.6,6.2-9.4,9.8l-.6,2.3c-1,1.7-2.7,3.3-4.6,4.9-3.6,5.4-6.9,11-10.3,16.4h-.4ZM118,1132.2l13.5-3c.8.5.3,0,.7.9-4.4,2.6-6.8,7.4-10.7,10.5l-18.6,10.9-9.1,6.3-.5-.5c.7-10.8,15.6-22.2,24.6-25.1h0ZM294.6,1368.9h6c1-8,1.4-17.1,3.6-24s5.7-13.6,9.5-19.1c2.4-3.3,6.7-6.8,7.7-11.2l-.7.2c-6.5,8.4-20.7,20.4-24.2,30.7-1.5,4.3,3.4,9.8,1.6,15.8-.9,2.9-2.2,5.2-3.6,7.5h.1ZM307.3,1368.9h5.7c0-.8.1-1.6.2-2.4.7-4.9,2.4-8.5,3.3-12.6h-.2l-.7.5c-3,1.9-6,8.1-8.3,14.5ZM322.3,1368.9h7.5c-1.2-8.6,2.2-14.6,3-20.8h-.2l-.7.2c-2.8,3.5-7,12-9.6,20.5h0ZM337.2,1368.9h8.7v-.5c-1.3-8.8,2.6-14.5,3.4-20.7l-.9.2c-4.1,5.4-8.6,12.7-11.2,21ZM358.4,1368.9h2c0-.3.2-.7.3-1l4.2-9.3-.2-.2c-2.2,1-4.4,5.2-6.2,10.5h0ZM373.4,1368.9h3c0-1.2.2-2.4.3-3.6l-.7-.2-.2.5c-.9.9-1.7,2-2.3,3.3h0ZM385.2,1368.9h7.9c1.5-6.8,4.1-16.1,2.7-21.7h-.7c-3.1,7.5-6.7,14.4-9.9,21.7ZM403.4,1368.9h6l.6-1.7c1.6-4.5,7.6-17.8,5.6-23.7h-.2l-3.9,11.2c-2.1,5-5,9.8-8,14.3h-.1ZM424.8,1368.9h2c0-.9-.1-1.8-.4-2.6h-.5c-.4.9-.8,1.8-1.2,2.6h.1ZM506.8,1368.9h10.3l1.6-4c1.9-3.3,5.7-7,6.3-11.2l-.2-.2h-.9c-6.8,3.9-13.1,8.7-17,15.4h0ZM558.5,1368.9h3v-4.5c1.9-12.7,6.9-21.8,12.7-30.4,1.2-1.9,4.9-9.8,3-10.7-4.1,2-7.8,1.8-10.5,5.1-4.6,5.9-10.8,27-8.3,40.5h0ZM571.7,1368.9h6.4c3.5-7.6,11.6-18.2,11.2-26.3h-.5l-9.3,7c-3.1,3.9-6.2,11.3-7.9,19.4h0ZM595.1,1368.9h6.1c1-3.3,1.8-6.5,2.4-9.8h-.7l-7.7,9.8h0ZM1368.8,650.1c0-1.8,0-3.5-.4-5l-1.9-9.3c-1.8-3.3-18.5-13.1-22.8-15.8-19.9-12.6-40.5-24.3-62.5-35.1l-21.8-10.2-2.8,6.7v.2l16.5,8.8c24.6,14.5,49.1,31,59,60,4.4,12.7,1.4,30.4,3.5,45.1.9,6.4-1.7,17.9,3.3,20.2l1.4-.9c.2-13.8,2.3-29.8,0-43.5-1.8-10.7-5.2-23.5-3.9-32.3-1.3-2.4-4.1-3.3-5.4-5.3l-1.6-4.6c-5.9-9.7-14.9-18.4-23.9-25.1l-12.3-8.4c5.4,1.2,10.1,4.7,14.4,7.2,14.9,8.6,28.7,17.3,42.1,27.2,4.6,3.4,7.8,7.8,13.2,10.5.8,5.9,2.2,15.5-3.5,17-4.2-3.7-9.3-9.1-15.8-4l1.6,6.5c2.2.8,5.9,1,5.1,4.6-.5,2.5-2.8,4.9-3.5,8.1l-2.6,28.4-2.1,22.3-3-2.1c-3.5,3-3.9,14.1,2.8,10.7l.2.2c-.8,9.8-.8,19.7-2.8,28.6l-6.3,26-3-1.4,3.7-14.2,3.7-22.1c.7-2.8,1.9-5.2.5-8.1l-1.6-.2-.2.5c-2.9,3.1-2.1,11.4-3,16.3-1.6,8.6-3,18.4-6.3,25.8l-5.8-1.6v-.2l5.8-28.1c4.6-25.2,7.2-92.2-3.7-110.4h-.5l-.2.2c4.4,24.6,7.9,60.7,3.9,89.5l-.7,17.2c-2,11.9-5.4,22.8-8.1,33.5v.2c8.1-1.1,11.3,6.1,17.7,7.7l.5-.5c-1.1-4.2,5.5-25.1,6.7-31.4,4-19.8,4.3-41.8,7.4-62.3l1.4-23.7c3.1-9.4,6.1-4.6,12.8-8.1,3.2-1.7,4.8-8.8,4.8-15.2h0ZM982.4,42h-40.8c9.6,13.8,20.2,26.6,36.6,33l19.5,5.1c8.4,3.3,29.1,14.6,30.9,23.2.7,3.5-1.4,4.9-2.1,7,13.6,7,25.6,15.1,39.3,21.6,2.9,1.4,4.6,4.2,8.1,4.9,7.2-15.3-5.7-32-12.8-41.6-16.1-22-37.4-36.1-64.8-47-3-1.2-8.1-3.4-13.9-6.2h0ZM917.1,42h-40.7c3.8,4.8,7.8,9.3,11.7,13.9,4.5,5.4,11.9,14.2,18.8,16.7l10,1.9c7,1.6,12.2,3.1,12.3-6.5l-.9-8.6-8.4-13c-.9-1.5-1.8-2.9-2.8-4.4h0ZM847.2,42h-45.9c4,5.8,7.9,8.7,11.2,16.2,6.9,1.2,30.6,5.7,35.8,0,1.2-5.2.7-10.7-1.1-16.2ZM778.5,42h-65.1c3,4,5.4,8.4,6.8,13.4l27.2,1.2c6.4.9,18.5,2.1,24.4-.2,4.2-1.7,4.3-6.5,7.4-9.1,0-1.8-.4-3.6-.8-5.3h0ZM687.1,42h-141.2l6.5,4.4,3,.2,8.1,4.2,23.5,18.6,12.3,7.7c4.7,2.1,9.2,2.6,12.6,5.8,3.6-1.2,6.5-1.2,11.4-2.1,15.6-3,32.1-7.2,48.8-10,6.2-1,21.9-.9,24.9-4.4,5.5-6.5-1.8-14.4-5.6-19.3-1.4-1.7-2.8-3.4-4.3-5.1ZM371.7,42h-106.2c1.7,6.1,3.2,12.4,6.6,16.9,4.4,5.9,11.5,10.9,17.9,14.9,4.4,2.8,11.7,5.2,13.9,10-5-.7-8.1-1.5-11.2,1.9.2,4.4,2.8,4.9,5.6,6.7l-.7,1.6,13.5,8.1v.7l-3.9,2.6c-4.8-.6-14.2-7.9-18.6-10.5-16.2-9.4-39.1-15.2-46.5-33.2-2.3-5.5-2.1-13.6-.5-19.7h-65.9c8,8.8,14.8,20.9,18.9,29,5,9.9,7.6,21.9,21.4,22.8v-.7c-10.6-10.1-12-29.2-23.7-38.3l.2-.7h.2c15.2,1,38.4,37.9,42.1,52.3.9,3.5-1.8,3.5-2.3,6-1.1,5.2,2.8,11.9,4.6,15.1,4.4,7.5,9.8,11.4,16.3,16.7l17.4,18.4c4,3,8.1,5.1,11.9,8.1,10.5,8.6,14.1,23,22.1,34.2,2.8,3.9,8.9,4,11.6,7.9,5.4-1.5,12.4-8.5,18.4-11.2,6.9-3,17.4-4.1,23.9-7.4-.8-6.9-.3-14.7-1.9-21.2-5.2-20.9-23.6-51.1-40.2-59.7l-5.6,1.9c-2.4.5-4.4-.6-6.7.5l-8.4,4.6v-.5c2.2-2.2,3.9-4.6,6.7-6.3,6.2-3.6,13.1-4.7,17.4-10,10.4-12.7,17.5-28.8,29.3-40.2,4.7-4.5,21.4-14.9,22.3-21.1,0,0,0,0-.1-.2h.2ZM172.7,42h-30.7c5,9,15.4,20,13.1,33-1.8-2.9-3.2-9.6-6.3-11.2-2.9,5.7-6.8,27,3.3,27.9,2.4-1.5,4.3-6.4,5.1-9.3h.2c1.8,5,1.5,11,2.8,16.7,2.9,13.3,9.4,38.5,18.4,45.1l.9-.2c2.8-4.5-.9-15.7,3.5-18.6,5.5-3.6,11.4,4.9,13.5,7.7,10.3,13.8,10.8,32,6.5,52.1-1.1,5.4.9,14.7-2.8,17.4-.2-8.5-6.4-24.8-15.3-23l-.5.5c-2.6,10.2-8.8,19.3-10.9,30.9-1.1,6.1,2.4,19.6,3.7,24.9,5.4,21.6,16.6,51.3,39.3,54.9,16.1,2.5,28.6-13.2,38.1-19.1,1.6-1,3.2-2.9,5.1-2.8-4.3,7.9-7.3,16.8-11.6,25.6-10.3-13.9-34.9,17.8-38.6,27.2-1.9,4.8-2.4,12.5-6.7,14.9.1-3.8-.8-4.7-2.8-6.3-16.3-.1-29.6,27.5-32.1,43-2,12.5,1.1,37.3,12.3,35.8-3.9-13.6-10.4-46.5,10.2-45.3,3-6.9,6.9-17.8,13.5-20.9l-2.1,8.4.5,13.7c-2.5,18.9-.5,39.8,19.1,40,7.5-12-3-35.1-3-51.1s-.3-23.7,8.8-19.8v.5c-1.4.7-2.1,1.1-2.8,2.6v.2c1.9,4.4,11.3,7.3,14.9,2.3,1.8-2.5,1.4-6.6,2.1-10.2,1.7-8.9,2.8-21.5,7-28.8h.5l.2.5c-2.6,9.6.3,23.8,2.3,32.5,4.3,18.9,10.6,34.2,16.7,50.4l4.7,16.3c4,6.8,13.3,14.6,22.1,16.3l.2-.2c.9-20.1-5.8-35.8-10.2-51.6-2.9-10.2-4.9-20-7-31.4-1-5.4-5-27.8-3.7-31.6,7.8,4,12.5-3.3,13.5-10.2h.2c2.5.3,4,1.3,4.6,3.3,3.2,9.6-5.6,36.3,5.1,38.3,3.2.6,4.2-1.6,5.6-3.5l1.9.9.2-.2c-2.6-15.6-11.6-57.6-1.6-72.7h.2l.2.7c-3.7,12.3,1.7,27.1,3.3,37.7l-.9,5.1c0,4.6,1.6,14.1,4,17.2,9.3,12.2,11-13.8,20.2-11.6,2.2.5,3.6,1.4,4.6,3l5.6,18.6c3.3,10.7,7,21.4,9.3,33.5,1.6,8.4.6,17.1,1.9,26.5l.7,19.3c.5,3.6,2.4,8,1.4,12.3-.9,3.8-4.2,5.5-6,8.4-1.7,2.6-2.3,6.4-2.8,10-2.7,18.5,8.9,45.1,27.2,41.4,7.9-1.6,18.8-10.7,25.6-14.9v-.9c-2.7-2.2-9.1-19-3.3-22.5-.1,2.9.3,5.3,1.4,7,.9-.7.8-.8,2.1-.7,4.3,5.8,11.1,8.2,19.3,4.6,12.9-5.5,39-20.1,43.9-32.8l-6.7-16,.2-.2c4.4,2.8,4.9,8.3,10.9,10,16,4.5,45.2-10.9,54.2-17.4l6-5.8c3.9-3.2,15.1-12.6,13.9-19.1-3.1-2.8-8.7-7.3-7-13.9h.5l.2.2c2.5,12.8,21.8,4.7,28.4,1.4l18.6-7.2c4.6-2.7,23.2-19.9,25.1-24.4,1.4-3.2-2.9-10.8-.2-16.3h.5c1.1,10.7,6.8,7.9,17.2,9.5,2.2.3,4.4,1.9,6.7,1.2,17.3-5.3,32.2-26.7,50.4-28.4,3.9,5.2,13.4,3.4,19.1.9,14.8-6.4,25.3-20.4,45.3-20.7,9.5,14.8,34.6-11.3,49-7.9,12,16.4,25-3.8,35.6-2.1,5.7,9.6,20.1-.4,26-2.8,4.9-2,9.7-2.8,13.9-4.6l1.2,2.1c-.2,3.5-2.4,4.2-3.5,6.7l.2.2c6.7.5,13.3,1.8,17.7,4.6l-.2.9-5.6,4.6c4.6,7.4,29.3,2.4,34.9-1.4,3-2,4.6-5,6.5-8.1l.5.5c0,4.8-4.4,14.1-3.7,15.3,4.3,9.5,33.1,6.9,42.1,3,3.9-1.7,6.1-6,9.8-7.4l.2.2c-1,4.5-4,7.8-5.8,11.6,6,6.2,23,13.7,35.1,8.8,4.4-1.8,7.3-6.7,12.1-7.7.6,3.9-2.7,7-3.5,10.5,4,5.7,20.1,14,30.4,12.8,5.2-.6,9.3-6,11.9-9.5l.7.2c1,2.8.5,11.4,1.4,13,3.9,7.5,23.4,20.1,34.6,12.8,3.4-2.2,4.3-6,6-10h.2l.5.5c0,4.1.2,8.1-.9,11.6l-2.6,5.3v.5c1.5,5.9,18.2,19.8,27.9,16,3.9-1.5,4.5-6.5,7.9-8.4h.5l.5.5c.6,4.6-2.1,12.5-1.6,14.4,1.7,7.6,18.9,26.1,25.3,13-1-6.4.8-13.4-.5-19.8-2.9-14.7-8.6-26.2-13.9-38.1-1.6-3.5-7.2-17.2-10-18.4h-1.9l-.5.5c-.3,3.4,3.6,15.7,4.4,21.6,1.3,9-3.2,14.7-2.6,22.1-1-.2-.8-.2-1.4-.7,0-2.1,0-4.4-.7-5.6h-.2c-2.2,4.4-10,7.4-12.3.9s11.5-21.4,9.5-32.3c-1.5-8.5-6.2-16.2-9.3-23.7-6-16.1-11.9-32.2-17.9-48.3-3.4-10-5.1-21.1-7-32.5-.5-2.8-2-10.3-.7-11.6l6,17.9c7.2,23.1,15.2,44.5,26.3,63.9,11.5,20.1,23.2,40.3,32.3,62.8,4.6,11.4,14.5,45.8,2.1,55.8.4,5.3,13.4,25.6,17.2,27,11.3,4.2,12.5-9.2,11.2-18.4-2.4-16.5-5.7-28.7-11.2-41.6-19.3-45.8-42.5-88.2-59.7-136.2-1.9-5.2-4.4-11-5.8-15.6-4.1-13-4.3-35.3-16-40.4-11.4-5-5.8,12.6-4.4,16.7l-.7-.2c-7.6-16.4-11.6-39.8-29.3-46l-1.2,19.5,7.2,26c10,29.7,23.1,55.4,32.3,84.8,3.7,11.9,11.6,40.5-.9,48.8h-.2l-.2-3.5-.7.2c-1.1,5.1-9.2,14.3-14.2,7-3.1-4.5,1.5-9.5,2.8-12.8,1.6-4.1,6.9-32.1,6-36.7-4.8-13.2-9.6-26.5-14.4-39.7-9.6-25-16-50.1-19.1-81.6-.8-7.6-6.4-10.8-7.2-18.1-6.1-3-30.3-16.9-36.3-16.3-.4,5-2,11.9-1.9,16,.3,8.8,10.6,28.1,14.4,35.1,12.9,23.8,28.4,47.5,34.6,77.2,3.3,15.8,1.7,54.2-10.7,56.9-5.3,1.2-8.7-3.6-7.2-8.6,3.9-12.9,13.1-31.1,7.9-48.6-9.3-31.1-24.3-58.5-34.9-89.2l-5.3-20.7c-1.2-6.7,2.9-10.8-2.1-16.5-2.6-3-23.9-10.6-29.7-11.4l-7.7,1.2-3.5,10.9h-.2c-1.1-4.8,1.3-11.4-1.2-15.1-1.8-2.7-22.9-11.3-29.3-9.8l-5.8,2.8c-.7,3.4-1.6,12.6-4.2,14.4l-.7-.2c0-4.6,1.4-11.8-.7-15.1-1.8-2.9-19.4-10.3-24.4-7.4-7.5,4.3-5.6,14.7-10,22.1h-.7c.2-17.3,3.3-22.9-11.9-27.2-2.6-.7-8-2.2-10.7-.5-5.9,3.6-4.5,15.8-7.2,22.8h-.5l-.2-.2c0-7.4,1.7-17.2-1.9-22.1-3.7-5.1-30.4-9.6-37-3.7-1.9,1.7-3.2,17-3.5,20.9l-1.2.2-.5-.5c.4-23.9-3.1-24.6-21.8-28.1-11.4-2.1-27.4-.9-31.6,6-3.1,5.1,2.2,13,2.1,16.3-9.4-5.8-4.4-18.5-21.6-21.6-13.7-2.5-27,3-37,5.8l-7.9,1.4c-4.6,3.3-.3,11.7,2.3,13.7v.7h-.2c-6.6-2.8-10.7-9.1-18.1-10.9-9.5-2.3-36.4,8.5-42.3,12.1.2,8.9,5,11.9,8.1,17.7l8.8,19.3c6.5,16.6,10.7,35.2,15.1,53.7l4.4,23.9c6.4-8.6,15-15,26.5-18.6l10.2-1.6c8-2.6,13.6-8.8,19.5-13.5,6.9-5.5,14.4-9.9,23.9-12.8,3.2-1,8.1-2.8,12.6-2.1l5.8,1.9v-.7c5.9-21.6-5.6-48.4-10.5-65.3l.2-.2h.5c13.7,36.1,27.7,74.9,39,114.1,3.7,12.8,2.8,28.9-1.2,40.2-.7,2-.7,4.6-2.1,5.8h-.2c0-10.1-3.3-36.6-8.6-40.7l-5.3-2.3c-3.1-1.9-5.2-5-8.8-6.5-4.1-1.7-8.5-1-10.7-4.6-4.2-7,3-25.2-2.1-33-12-3.5-22.7,2.2-30,7.7,4.4,19.7,8.8,39.4,13.2,59,1.4,6.8,3.5,18,2.1,25.8l-.5-.2c-1.7-4.9-5.5-20.3-8.8-22.8l-7.2-3.5-5.4-5.8c-3.4-2.3-6.9-1.1-8.8-4.9-3.5-6.7.3-19.5-2.3-26.3-7.5-.1-11-3.3-17.9-1.4-9.2,2.5-19.4,8.9-22.3,17.4-1.7,4.9,3.5,37.9,4.9,43.9,1.3,5.6,4,17.4,2.8,23.7l-.5-.2-5.3-8.8c-2.8-7.1-3.3-17.9-14.6-15.8-9.4,1.7-14.2,11.4-23,10.9-3.5-5.2.3-16.4-1.9-24.6l-9.8-35.3-5.1-31.1c-1.4-8.2-4.5-21.9-.5-27.2l10.5,1.9c6-1.3,13.4-9.3,14.6-15.6.7-3.5-1-5.3-1.6-7.4l2.1-1.2c-.3-5.5-3.6-10.1-5.1-14.6-8.4-24.5-37.2-14.9-51.6-3.3-2.6,2.1-3.8,5.2-5.8,7.9l-4.9,5.6c-1.4,4.7,1.9,12.7,2.8,16.5l4.7,27.2c5.6,29.3,8.6,59.1,13.7,89.7l3.7,21.2.5,14.2.7,6-.7-.2c-.9-4.9-4.7-8.4-5.8-12.8v-6c-1.9-8.4-6.9-21.5-15.1-23.7-3-.8-5,.6-7.4.9l-.7-.9c-3-18.5-4-40.2-7-58.6-1.4-8.6-1-20.1,2.8-25.1h.7c.9,2.2,1.7,4,4.7,4.2,1.7-1,2.1-2.3,2.6-4.6l1.6.7.2-.2c0-10.8-2.1-47.7-6.7-51.4-5.9-4.6-17.2-.4-21.8,1.6-17.9,7.6-33,18.5-43.5,33.5h-.5l-.2-.2c.4-1.9.9-4.2,0-5.6-9.9,0-15.7,4.5-22.1,8.1-16.2,9.4-29.5,17.2-40.7,31.4l-8.6,7.7-.7-.2,2.1-9.3-.5-.5c-16-.3-26.2,10-36.7,16-5.9,3.4-12.8,4.5-17.4,9.1-3,2.9-10.4,8.3-8.4,14.9,3.8,12.6,24.9-17.8,29.7-4,1.9,5.3-2.3,13.7-3.2,18.6-1.7,9-2,21-.5,30.4,5.5,34.4,15.5,59.7,20.7,94.1,3.3,21.7-3.1,34.2-13.2,43.5-1.4,1.3-2.1,4.3-4.2,4.9l-.2-.2c.1-13.4-1.4-27.8-7-35.8-10.1,3.9-.2,46.1-4.7,60l-2.3-8.4c-5.8-16.7-8.1-37.6-12.1-56.5l-9.1-37.7c-2.1-12.4-4.2-24.8-6.3-37.2-1.9-10.6-4.1-24.6-2.3-37.2,1.4-9.7,4.1-19,5.1-27.7-2.6-1.9-4.6-7.6-7.7-8.4l-11.6,1.9c-3.3.4-8.4-.7-12.5,0-13.7,2.4-22.4,12.1-27.9,23l-.7-.2c-1.2-1.6-3.6-3.7-7-3-2.9.6-3.6,2.7-5.6,3.9-6.4,4.1-13.4,7.2-19.5,10.9l.5-.7c3.4-6.8,14.9-16.6,21.4-20.7.3-12.3-3.4-17.6-6.7-27.2-11.3-32.5-22.6-53.5-47.4-72.3l-3.3-6.3c-3.6-5.3-11.9-15.1-20-15.3l-1.2,1.9-.7-.2c-6.8-7-15-11.1-20.2-20-6.4-10.9-6.9-28-12.1-40-1.9-4.4-4.5-9.3-7.6-13.4l.4-.5ZM515,290.4c-5.7-23.9-13.3-43.5-17.4-69.7-2.5-16.2-1-50.4,5.6-60h.5l.2.2c-.8,5.4-3.3,13.6-1.9,19.8l.2.2,5.3-.7c4-8.6,7.2-16.2,15.3-20.7,9.9.2,8.3,18.5,11.4,25.6l5.6,9.1c9.2,26,10.9,58.9,10.9,93.7s0,14.7,1.4,20.9c.7,3.1,3.6,6.6,2.8,10.5l-2.3,3.5h-.7c.2-11.6-12.4-6-16.7-2.6-11.9,9.4-.5,18.3-5.1,27.7-9.9-14.9-10.4-37.7-15.1-57.4h0ZM446.2,378.5c-3.6-16-7.3-31.9-10.9-47.9-6.4-23.9-12.9-44.5-16.5-72.1-2.2-16.8,4.1-57.2,12.3-61.8l-3,9.3c-2.7,13-2.8,42.5,3,51.4h.5l.2-.5c-2.8-11.2.8-46.7,6.3-50.9,8.1-6.2,20.5-5.5,25.8-14.4,1.2.3.9.4,1.6,1.2.5,5.1-1.1,9.5-1.9,14.2l-1.9,23.7v21.4l1.2,25.3c3.7,23.8,8.6,43.9,16.7,62.5l4.4,11.4c2,2.8,5.7,3.5,8.1,5.8,0,4.3-8.2,9.8-12.8,8.4-2.2-.7-3.1-3-6.5-3.3-4.4-.3-6.5,3.2-10,2.3-4.4-7.3-11.5-34.9-16.7-38.1-.2,4.1-2.4,6.3-1.6,11.2l6.5,19.8c2.9,9.8,1.7,19.6,3.3,30.4l.9,9.1h-.5l-8.6-18.4h.1ZM696.8,92.1c12.5,13.3,18.2,32.4,24.2,52.3,1.2,4.1,4.1,9.8,3.7,14.2-4.9,3.1-9.4,7.2-12.8,11.9h-.5l-.7-2.8c-3.2,0-5-.3-6.3-2.1-1.8-2.4-9.6-29.5-8.4-33,1.6-4.6,5.4-3.4,10.2-4.9,4.4-9.4-1.9-20.8-5.3-27.2-1.3-2.3-4.5-5.5-4.2-8.4h0ZM804.8,167.2l-.9-16.3c-.9-6.7-4-13.5-3.3-19.8l.5-.5,2.1-.2c5.6,6.2,7.6,17.1,12.1,24.2l1.6.2.5-.5c-.2-2.7-.5-5,1.4-5.8-3.9-12.3-5.1-25.3-7.7-39-.6-3.1-1.7-8-.9-11.4h.7c4.4,16.6,7.1,32.2,12.8,47,6.8,17.7,15.6,34,20,53.7,2.7,11.9-1.2,38.6-7.7,43.9,0-7.9,1.9-27.8-1.9-32.8-17.9,3.6-26.4-27.5-29.3-42.8h0ZM871.1,176.7c-5.3-18.1-9.7-35.5-14.2-54.6-1.2-5.3-5.1-16.5-2.8-22.3,2.4,1.6,8.4,31.8,10,36.7,4.3,11.7,8.7,23.4,13,35.1,5.4,12.4,11.9,25.8,14.9,40.2,2.9,14.3-6.2,35.5-15.6,38.1.3-11.4,3.2-18.8,3.3-30h-.2l-3.2,2.1c-8.1-2.9-7-11.7-9.5-20.2-1.8-6.2-11.9-23.5-11.2-28.1,1.8-12.1,12.5.7,14.9,3.3l.7-.2h-.1ZM942,187.4c-7.1-16.1-14-31.5-19.1-49.7-1.6-5.7-6.8-24.3-3.9-31.1l3.3,11.6,8.8,23.7c12.7,28.9,29.4,55.1,39.3,87.4,4.1,13.3,3.1,25.5-.9,37.4-.7,2.1-.6,5-2.1,6.3l-.2-.2c-.9-4.3-.4-8.9-2.6-11.9h-.2c-1.8,4.2-8.5,14.4-13.7,6.5-2.9-4.3,1.5-10.5,2.3-14.9,1.7-9.3,0-21.4-1.2-30.4l.5-10.9-10.2-23.7h0ZM900.6,181.6c-5.4-14.1-9.1-28.6-13-44.2-1.5-6.1-6.3-22.3-3.7-28.8h.9c6.1,16.9,10.3,33.8,17,49.5,7.6,18,17.6,34.4,23.2,54.2,3.5,12.3,2.1,27.3-.2,39l-1.6,9.5-.5-.5-1.6-8.6h-.5c-2.4,5.5-11.6,6.4-12.6-.9-.5-3.8,1.8-7.8,1.2-12.8-.9-6.4-2.4-13.2-1.4-20.2l2.1-12.1-9.3-24.2h0ZM1001.7,227.6c-10.5-23.9-23-45.6-32.8-71.1-4.2-11.1-8.8-23.6-8.8-38.4,2.8,2.4,3.7,8.4,5.1,12.1l11.6,26c13,26.3,30,50.7,38.8,80.4,3.7,12.5,2.9,35.7-1.9,46.7h-.2l-.9-8.4h-.2c-.8,2.3-1.7,4.9-3.5,6.3-4.2,3.1-10.7.1-10-5.8l4.6-13.5c3.5-11.4,2.2-25.1-1.9-34.4h.1ZM907.1,1155l7.2-15.3c-1.9-2.1-1.2-5.3-2.1-8.6-1.2-4.5-4.7-9.1-7.4-12.3-.3-.4-29.5-5.4-32.1-5.3-14.1,7.5-12.1,30.8-9.5,48.6,1.4,9.4-6.5,18,2.8,23.2,7.4,4.2,13-5.5,16.7-9.1,4.6-4.4,10.8-6.7,15.8-10.7,2.1-1.7,1.9-4.5,3.5-6.7l5.1-3.7h0ZM1097.2,1190.3c5.6-4.3,10.8-24.2,12.8-32.8,2.7-11.7,4.3-32.9-9.3-33.2-15.1,11.9-14.8,29.9-20.9,50-1.8,6-6.5,16-3,22.1,5.6-1.2,16.6-3,20.5-6h0ZM1108.6,1206.9c3.2-4.1,9-4.9,11.9-9.5,4.9-7.9,6.9-46.5,1.2-55.8l-2.6-.2-3.7,2.1c-4.2,20.4-8.4,40.9-12.6,61.4l5.8,2.1h0ZM67.7,1105.1c0,.2,0,.4.2.6l1.5-1.3-1.7.7h0ZM366.2,1290.3c-1.1-7.5.6-15.2,2.6-20.2.9-2.2,6-9.5,5.1-10.7-6.8,8.8-29.3,40.1-10.9,51.4l.2-.2c1.4-3.1,3.3-5.2,3.9-9.1l-.9-11.2h0ZM371.4,1340c12.7.2,11-24.4,9.3-36.7-.6-4.4.9-15.7-2.3-17.4-2.6,5.1-1.2,14.7-2.3,20.7-1.7,8.9-4.7,16.5-7,24.2-1.3,4.2,0,7.3,2.3,9.3h0ZM390.2,1325.6c.4-3.2,1-9.9-1.2-11.2l-4.2,15.3-7.7,15.6c-1,3.9,1.1,6.5,4.6,6.7,8-4.1,6.9-15.9,8.4-26.5h.1ZM393.4,1277.5c5.9-5.9-.5-16.8.9-26.3.9-5.9,2.3-11.1,4.7-15.6,1.7-3.2,7.2-7.7,7.2-11.2h-.7c-9.4,9.2-17.6,20.9-21.4,35.6-2.3,8.7,0,18.6,9.3,17.4h0ZM811.9,1368.9h3.5l.3-2.2-3,.5-.8,1.7ZM42,347.5v38.2c3.2,10.7,7,20.7,11,30.6,2.7,6.9,5,18.9,13.7,19.5l.2-.9c2.7-6.1-.9-15.8-2.1-20.5-4.6-17.6-9.8-34-15.6-50.2-1.8-4.9-2.7-13.5-7.2-16.8h0ZM193.3,990.5c4.7-3.9,18.7-32.3,17-41.4h-.7l-8.4,23-7.9,18.4h0ZM634.5,380.1c.3-6,1.4-12.3-5.1-12.1l-4.4,2.3-.9,21.2c-.9,6.7-2.4,16.2-.9,23.2.7,3.2,2.6,6.8,5.1,8.1l3.7-1.4c1.9-3,0-11.4-3.3-12.5l-2.8,1.6-.5-.5c0-10.3,2-19,2.1-28.1,4.4,1,4,0,7-1.9h0ZM184.5,956.1c.9-5.2,3-16.1.9-21.4-4.3,12.4-4.7,26.2-9.1,37.7l-8.6,19.8c-1.9,3.3-4.5,6.3-5.6,10.5l.7-.2c12.4-13.3,17.7-24.1,21.6-46.3h.1ZM78.3,837.5c-.5-2-1.3-3-3.7-3l-1.2.9-.2,1.9.9,1.4,2.3.5,1.9-1.6h0ZM97.3,1028.6l8.6-9.8c4.6-7.6,5.8-26.6,6.5-37.7.4-6.1.8-18.7-2.6-21.4-1.9,1.6-4.6,1.2-7.2,2.3-1.6,13.6-13.7,53.8-6.3,66.5h1ZM361.8,727.6c1.8,13,1.4,30.8-.5,43.2-1.7,11.3-1.2,21.6-3.2,32.1-7,36.8-16.6,69-34.6,94.6-10.8,15.3-25.2,29.9-43.9,37.2l-15.8,4.6-8.8,1.2v3.3c4.4,1.8,9.5,1.5,14.9,2.3,29.1,4.2,51.6-8.5,66.9-20.2,40.9-31.2,57-82.9,67.4-145,2.1-12.6,1-26.2,3-40.2v-28.6l-1.4-21.4c-2.9-19.4-4.3-38.2-8.6-56-17.2-71.5-40.7-121.2-80.4-169.7-21.6-26.4-56.6-52.4-104.6-52.3-6.4,1.9-15-.9-16.5,6,1.8,5.5,28.8,15.8,35.3,19.8,22.7,13.9,41.7,33.9,56.9,55.3,37.9,53.3,57.5,115.8,70.9,194.3,2.2,12.9,1.1,25.7,3,39.5h0ZM373.2,588.1c-7.8,1.2-16.7,4.2-23.9.2-6.9-3.8-8.2-11.9-11.2-19.5-5.4-13.7-10.8-28-17.9-40.4-18.1-31.7-36.5-64.2-65.5-85.1-7.3-5.2-15.4-10.4-23.9-14.2l-20.2-8.4,4.9-.5c15.4,1.2,31.9,4.1,42.8,10.7-.5,1.3-1.6,2.1-.9,3.9,1.7,4.4,19.3,13.4,20.9,3.5h1.2c6.5,6.9,32.3,23.6,33.9,32.1-30.7-9.7-7.9,31.4-.2,37.2,12.4,9.4,15.1-3.6,15.8-13.9h.2c4.4.6,10.8,11.4,13.3,14.9,11.2,16,19.8,34.8,27.7,54.2,2.5,6.2,9.1,18.6,3.3,25.3h-.3ZM370.2,732c-1-12.6-2-25.3-3-37.9-3.1-18.1-5.6-35.2-9.1-52.5-2.8-14-4.4-25-8.1-37.2-1-3.2-4.1-9.6-.2-11.2l7.7.2c5.2-.8,11.2-1.3,15.1-3.7,12.7,2.5,17.4,37.8,20.5,52.1,1.1,5.1,3.1,11.8,1.6,17.2-.9,3.5-4.3,3.7-6.5,5.8v.5l.9,1.4c3.4,0,6.2.5,7.4,2.6,3.5,5.8,3.4,41-.2,45.1l-8.1,2.8v.5c4.6,1.2,9,2.7,11.2,6.3,3.7,6.1,2.1,42.9-1.4,49l-.7-.2c-4.4-10-10-6.7-14.9,0-4.1,5.6-7.7,13-10,20.2l-5.1,17.9h-.5c.9-17.7,1.7-35.5,2.6-53.2l.9-25.6h0ZM320.7,915.9c14-11.3,30.1-44.2,36.3-63.9l6.7-26.7h.9c8.4,11.2,19.8.4,24.4-6.5,1.9,5-4.6,21.7-6,26-8.5,25.1-20.1,44.5-35.1,62.8-4.9,6-11.4,15-22.5,11.9-2.4-.7-4-1.1-4.7-3.5h0ZM316.5,922.8c2.8,0,6.1,0,7.9.9l1.9,3c-6.3,4-30.1,17.9-41.1,14.6,8.6-4.9,16.3-12.3,24.9-17l6.5-1.6h0ZM1217.8,557.2c-19.3-7.4-40.1-13.5-64.6-13.5l-9.1,1.2c-11.3,2.5-17,6.3-21.1,16-1,2.2-2.6,5-1.4,8.1l2.3.7c2.8-4.4,4.6-9.3,7.7-13.2l.7.2c-.8,2.2-.2,4.5,1.9,5.1l1.4.2,4.6-5.8c2.8-2.2,7.9-3.9,3.7-7.9l.2-.7c6.8-.8,35.2-1.4,38.6,3-3.8,0-4.7,1.1-6.7,1.9l-7.4-.2-11.4,2.1c-14.9,5.2-25.5,21.2-30.4,36.3l-2.3,11.4h-.5c-3.7-4.9-8.8-1.8-10.5,2.8,1.7,5,5.2,8.7,6.5,14.9l1.4,19.1c3.3,20.7,3.2,45.1,6.3,65.8,1.3,8.8-.9,32.5,9.3,29.8l5.1,13,10.5,20.2c17,28.5,40.8,52.7,73,66-4,1.4-15.4-5.1-18.6-6.5-15.1-6.7-26.8-15.4-38.6-25.1l-8.1-7.7c.8-1.2,2.3-1.8,2.1-3.9-.6-5.2-14.3-21.3-18.6-23.5-4.9.2-3.2,4.6-2.1,7.4l-.7-.2-5.6-5.6c1.1,12.3,20.5,26.5,28.8,33l12.5,12.8c21.6,16.4,47.6,26.2,80.6,31.4,8,1.3,18.2,1.1,26,0,7.1-1,13.3-.8,19.5-2.6,10.7-3,16.5-16.1,21.1-25.3,2.8-5.6,10.1-17.1,7-23.2h-.5l-.2.2c-7.3,21.7-20.7,56.2-55.6,46.5v-.5c.9-.6,1.9-.9,1.6-2.1-2.6-1.5-6.2-.6-10.2-1.2-5.4-.8-21.4-2.2-24.6-4.9h7.9c5.4-1.2,17.7-6.9,12.1-14.2-6.4-8.3-39.9,1.1-47,3.7l.2.7,1.4.9c-6.7,1.5-30.9-21.6-34.9-26.5-4.9-6-10.6-11.4-15.1-17.9-16.4-23.2-27.2-53.2-34.6-85.1-3.1-13.2-3.5-27.2-5.6-41.8v-20c1.2-8.2.4-15.4,1.9-22.8,4.9-24.5,14.3-54.7,45.1-51.8-.5,1.3-1.1,1.9-.7,3.5l.2.2c21.6-1.2,42,3,58.3,9.1l20.5,7.9c2.2-1.1,4.5-2.9,5.3-5.3-12.6-4.9-25.3-10.8-38.8-16h.2ZM573.8,802l15.3-19.5c1.3-4.2-1-9.7-3.7-10.5-11.9,7.4-14,22.6-16.7,39l1.2.5c2.1-1.5,2.6-7.3,3.9-9.5ZM70.7,1192.6c-4.8,3.8-8.9,7.6-11.7,11.2l-4.8,7.1c5.1-6.5,10.6-12.6,16.5-18.3h0ZM153.1,1007.7c11.7-15.8,16.2-35.5,21.6-58.1,1.5-6.3,5.7-18.5.9-25.1-2.2,6.2-1.8,14.4-3.5,21.4-3.6,12.8-7.1,25.6-10.7,38.3l-8.4,23.5h0ZM653.7,460.5c-3.5-11.1-7.1-25.2-19.3-27.7l-1.2.7-.7.7.2,4.4,7.4,6.5c4.1,5.1,7,11.7,9.5,18.4,7.4,19.7,10.5,42.7,14.6,65.3,1.4,7.9,1.4,28.6,4.6,33.9.4-1.9,1.8-2.8,2.1-4.2l-2.6-27.7c-4.1-25.9-8-48.5-14.9-70.4h.3ZM505.5,794.1c3-3.9,4.6-15.2-1.6-16.7-2.1,4.7-4.1,10.3-4.2,16.7h5.8ZM235.6,1015.3c-5.3,7.2-13.7,16.5-17.2,25.1l7-3.9c14-8.5,19.3-20,25.6-36.3,1.4-3.6,4.6-9,4.2-13h-.5l-19.1,28.1ZM222.4,1069.3c5.5-3.5,11.1-14.2,15.1-19.8,6.1-8.5,12.2-17.6,18.4-26.3,3.6-5.1,8.8-10.4,10.7-17h-.7c-5.4,12.9-20.7,18.6-29.1,28.8-2.1,2.5-4.7,5.5-5.3,9.3v4.9c-1.8,6.5-7.7,12.7-9.1,20h0ZM437.8,1198.7c2-2.6,4.6-3.3,7.2-5.3,5.3-4.1,10.6-13.5,12.8-20.5h-.7c-6.1,7-14.8,5.7-24.2,9.5-10.3,4.2-18.4,21.5-18.4,35.8,1.6-1.3,1.7-4.8,2.6-6.7,3-6.6,9.1-15,16-17.7-.6,6-2.7,12.2-3,19.3l.7-.2c2.8-4.9,3.7-10,7-14.2h0ZM453.4,1334.5v-.7h-.9c-6.8,6.3-11.2,11.6-11.6,24.4v6h.2l.7-.9c.3-4.9,8.8-26.6,11.6-28.8h0ZM452.9,1321.4c-.2-13.3,10.2-20,16-27.7,5.7-7.5,9.8-16.8,13.9-25.8l-.9-.2-14.4,13.7c-5.2,6.5-10.1,14-13.5,22.1-1.1,2.7-5.5,15.8-1.2,17.9h.1ZM485.2,1299.4l3.7-8.4h-.7l-13,15.3c-8.3,11.7-12.5,32.9-8.4,52.1h1.2l.5-.7c-.2-18,6.8-31.5,12.1-44.2l4.6-14.2h0ZM150.3,1013.9l.2-.7h-.5l-.2.9.5-.2ZM149.6,978.1l3.3-1.4,1.2-4.2,7.9-15.1c2.9-7,10.8-30.3,1.9-36.5-8,25.8-16,38.8-29.5,58.1l-7.4,13.2c.2-5.8,5-11,7.4-15.1,7.1-12,16.7-26.8,16.7-44.9l-11.2,21.8c-7.9,13.4-16.5,25.2-21.4,41.8-4.7,16-3.6,34.5-7.7,51.4-1.5,6.1-4.7,10.2-6.7,14.9,12.8-5.3,14.2-25.8,18.6-39.7,5.7-18.2,15.8-31.7,27-44.4h0ZM179.6,636.9l-6.3-14.6c2.4-1.8,4.7-4.6,3.5-8.6-1.3-.8-2.5-.7-4.2-.9-7.1-16.8-33.9-44-57.6-44.2l-9.8,1.6c-6.1,1.9-19.5,10.7-20.7,16.7l.2.2c6.5-2.6,11-6.8,19.8-8.1,18.7-2.9,30.9,8.8,40,16.3,29,23.8,42,69.6,49.3,115.5,6.5,40.9-3,87.8-20.5,109.7-6.1,7.7-14.9,13.5-26.5,15.6l-13.2-.2.2.2c25.9,15.6,45.3-8.7,53.7-27.9,16-36.6,16.2-91.8,4.6-133.6-3.6-13-7.7-25.7-12.5-37.7h0ZM88.5,591.9c-7,5.5-12.2,13.6-16,22.3-20.6,46.7-4,108.2,9.3,150.6,4.2,13.3,9,24.4,16.3,34.4,8.2,11.2,27,33.2,48.3,29.3,34-6.2,49.8-64.9,43-110.4-7-46.7-18.7-81.4-42.3-110.6-8.6-10.6-20.9-22.8-39.7-22.8-8.5,2.8-12.6,2.4-18.8,7.2h-.1ZM71.5,672.5c-4.4-29,4.8-57.5,20.7-69.5,4.6-3.4,9.3-3.6,15.6-5.8,18.8-.2,30.3,10.8,38.6,21.4,19.6,25.3,27.6,48.8,33.7,88.3.8,5.5-8,8.5-7.4,12.5l.2-.5c1.7-.8,8.3-7.4,11.2-4-.6,1.8-2.4,2.8-2.8,4.2l.7,9.5-.2,22.5c-3,22-5.1,41.2-15.6,55.3-17.7,24-43.9,9.5-57.4-7.7-2.6-3.2-7.4-7.2-8.1-11.8,4.5-.5,7.6-2.7,11.4-4.2v-.2c-2.7-.6-5.1.3-7.2.7l-10.5-.9.2-.7,1.9-.7-.2-1.2c-3.5-3.9-13-27.8-13.5-34.6l12.8-16.7,23.5-32.1.5.2c1.8,6,2.3,15.3,5.8,20h.5c.3-22.6-2.3-35.2-7.4-52.5l-5.6-18.8.9-.2,16.5,34.6h.9l13.7-19.3c1-3.6-4.2-13.8-5.3-16.5-4.9-11.4-25.4-38.3-43.7-31.1-17.3,6.8-17.9,31.7-20.9,53.2v24.2h-.5l-.2-.2c-1.8-5.3-1.6-11.2-2.6-17.4h-.2ZM107.6,915.6c-1.9-1.4-1.3-3.1-4.2-3.9l-2.6,1.4c-2.4,5.6,2.1,12.7,9.5,10l5.4-3.9v-.5l-8.1-3h0ZM237.2,932.4l4.4,1.9c9,2.1,20.8-.5,27.7-2.6,28.6-8.7,45.2-29.8,58.8-53.5,12.5-21.7,18.4-48.8,23.7-77.6l2.6-27.7c1.6-11.2,2.4-26.3.7-37.9-2-14-.4-27.1-2.6-40.2-2.7-16.5-4.5-32.6-8.1-48.1-10.9-46.8-27.3-88.3-48.8-124.3-11.9-19.9-24.1-34.1-38.1-51.1-3-3.6-7.3-9.2-11.6-11.2l.9,6.3,9.1,10,17.7,23.5c17.7,26.6,31.4,56.2,41.6,90.4,4.3,14.3,13,46.2-.9,55.8-3.8,2.6-7.7,1.9-13.2,3.3l6.3,34.6c2.7,15,2.1,30.4,4.4,46.3l.2,18.1c0,15-.3,29.6-2.3,42.8-2.4,15.3-3.5,29.4-7.4,43-11.7,40.2-32.8,87.9-76.9,94.6-1,5.3,8.1,2.9,12.1,3.7h-.3ZM300.9,901.2c-.2-8.6-13.1-6.2-19.3-5.1v-1.2c3.9-3.1,5.8-8.1,8.4-12.6,7.6-13.1,13.5-27.4,20.9-40.9h.5c9.2,19.1,22.9-19.2,25.1-24.9,1.5,4.1-2.6,18.3-3.7,22.3-5.1,18.1-11.8,35.8-20.9,50.2-2.3,3.6-6.3,11.2-10.9,12.1h-.1ZM318.8,736l-.5-.7c0-10.4-5.8-32.9-1.4-40,3.1,2.3,5.5,2.2,9.3.2,14.9-7.7,11.7-24.8,11.2-44.6,2.3,2.7,2.5,8.1,3.5,12.1,4.6,19.1,4.2,40.5,6.7,63.2.7,6,1.5,22.6-.5,27l-2.3-12.3c-4.7-11.4-16.3-10.3-26-4.9h0ZM231.2,1004.2l-5.1,7.7.2-.2,4.9-7.4h0ZM87.3,282c-2-12.9.5-22.3-14.9-22.1l-7.2,1.4c-4.9,3.2-3.3,21.2-1.6,28.6h.9c3.3-3.1,9.9-5.1,14.9-6.3,2.4-.6,6.4-.2,7.9-1.6ZM297.7,598.8c2.6,9,4.1,30.7,11.9,33.9,2.1-.4,4-1.3,4.6-3.3,2.5-6.4-.2-17.5-1.4-22.8-4.9-22.6-10.9-35.4-18.8-53.5-13.8-31.4-31.2-57.1-51.1-81.8-7.2-8.9-15.8-18.4-25.1-25.1-11.9-8.6-26.2-16.8-39.7-23.2-15.7-7.5-35.3-13.7-44.9-27.2l-5.1-13.7c-6.9-18-12-37.6-17.2-57.6-1.2-4.6-4.1-29-6.3-30.7-4.5-3.5-12.6-3.8-20.5-3.7l-1.6.5,1.9,10.9c3.4,15.7,6.6,30.6,10.9,44.9,6.4,20.9,13.5,49.1,25.8,64.1,13.9,17.1,44.9,20.8,65.3,31.1,34.3,17.4,59.7,46.3,79,78.8,13.8,23.2,23.9,49.7,32.3,78.3h0ZM372.7,249.7l-.2-7.9c.7-2.9,2.7-5.1,3.3-8.6.9-5.5-1-8.6-6-8.6-10.6,8.2-7.9,38.7-4.7,53.2,1,4.3,4.1,13.7,8.1,13.7,2.7-7.4.8-32.5-.5-41.8h0ZM370.7,284.4l.5-.5c.4.5-.3.4-.5.5ZM369.5,143.3c6.7,4.2,14.1,7,23.7,8.4,5.7.8,12.1-.2,16.7-.9,15.9-2.4,24.5,3.5,29.1,13.9,6.2-.6,16.8-7.9,22.3-10.7l18.8-9.3c3.1-2.4,5.9-6.5,8.8-9.3l4.4-4.4c2.4-6.9-8.1-27.7-10.5-31.6-13.3-22.1-36.4-34.4-61.1-45.1-9-3.9-15.5-9.6-28.1-9.5l-14.9,3.5-8.4,5.8c-19.8,12.1-28.3,22.5-40.2,42.5l-8.8,12.8c9.6,6.4,18.2,16,24.9,25.3,3.4,4.8,6.6,12.8,11.9,15.6-.7-8.6-6.8-15.5-11.2-20.9,5.5-.5,17.9,11.1,22.5,13.9h.1ZM310.5,1074.1c14.4-17.6,29.7-32.7,50.7-43.9l-1.2-.2-16.5,7.9c-20.3,12.1-41.5,28.6-49.7,52.5l.9-.2c4.2-6.3,11.1-10.3,15.8-16h0ZM464.1,873.6c-.8-5.8,3.6-20.6,2.1-22.8-7.8,12.6-16.4,26.2-20,42.8l.5,9.1-3,12.5c-4,10.4-10.1,18.3-14.9,27.4h.7c4.6-4.5,10.7-7.3,14.9-12.3,4.3-5.2,7.6-11,11.9-16.5l5.4-4c3.9-8.3,4-25.3,2.6-36.3h-.2ZM79.2,901c0-.3,0-.3-.2-.7l.2.7ZM618.2,373.1l-17.7,7.7c-16.1,8.1-31.6,16.5-49,23.5l-9.3,5.8-21.4,10.5c-32.4,15.5-64.6,31.3-95.1,49-16.4,9.5-33,18.3-48.8,28.1-5.2,3.2-14,6.3-17.7,11.2l1.4,2.6,31.8-18.4c22.9-12.6,45.9-25.3,68.8-37.9l26.3-14.2c1.5-.8,7.1-4.9,9.1-2.3,1.7,2.2-2,4.6-2.6,6.5l.2.2c7.7-1.9,11.8-11.1,17.7-15.3,12.2-8.7,28.4-15.1,42.5-21.4,3.3-1.5,17.2-9.6,19.8-8.6-3,8.9-22.6,15-21.2,27.4,11.3,12.1,42.5-11.2,47.6-16.5,2.1-2.2,9.1-9.5,5.3-13.9-3.8-4.5-12.3-1.6-18.6-2.8v-.5l.2-.2c6.7-5.8,15.9-7.5,23.5-12.8,1.7-1.2,1.9-2.7,4.6-3.3-.2,12.1-2.2,26.8.2,37,.7,3-1.5,6.5,1.2,7.2-1.5,5.7-10.9,6.8-16,8.8-13.5,6-27,11.9-40.4,17.9-21.8,11-42.5,25-66,33.5l-16.5,3.9c-4,.5-5.2-.8-9.1.5-34.4,10.7-70.6,24.2-99.2,41.4l.9,2.6,18.4-9.3c12.7-5.4,25.4-10.7,38.1-16,13.4-5.3,27.3-9.6,41.6-13.7l19.1-3.3,26-9.3c25.8-12.3,51.6-24.6,77.4-37,10.9-4.9,21.6-11.2,33.7-14.6v-.2l-5.6-9.8c-2.4-6.8-2.1-19.6-.9-27.9.5-3.5,1.3-14.7-.5-16h.2ZM567.3,420.6c-6.7-9.5,18.2-18.7,23.7-21.1,23.2-.7-15.3,33-23.7,21.1ZM401.3,597c.2,3.6,2,5.4,3.7,7.4h.7l4.9-4.4-3.7-9.1-5.6,6h0ZM379.7,921.9c-8.6,3.5-17.9,11.5-17.9,23.5l.9-.2c5.2-7.3,13.4-10.8,20.5-16.3,4.4-3.4,7.8-7.8,12.8-10.7v-.2l-1.6-.2-14.6,4.2h0ZM354.6,961.2c1.5-1.8,7.3-6.3,6.7-8.1-6.8,6.3-31.5,17.9-25.1,32.8l.7-.2c1.9-9.9,12.1-17.3,17.7-24.4h0ZM302.8,996.3c-11.3,4.3-26.4,11.2-25.3,26.3l.2.2,10-9.1c5.3-3.5,29.9-13.4,31.8-17.2l-.2-.2h-16.5ZM315.6,1038.6c-13.4,9.1-26,21.5-35.3,34.6-3.7,5.2-11.8,16.1-8.6,25.8l.5-.2,9.8-11.2,11.9-21.8c9.8-15.5,22.2-25.2,37.2-35.6l-1.2-.2-14.2,8.6h0ZM431.8,655.3c-3.7,5.9-14,18.6-7.4,24.9l2.8-.2,13-19.5c-3.2-1.4-5.4-4-8.4-5.1h0ZM1108.6,190.7c-6.6,10.6,9.4,39.6,13.2,48.6,18.8,43.7,40.5,85.7,56.9,131.3,3.2,8.9,13.4,39.1,10.7,51.1l-3.3,8.4c-.7,4.1,3,7.7,7.2,6,14.7-5.9,3.4-51.6-.2-62.1-16.7-48.2-39.9-89.7-57.6-136.9l-2.6-8.8-3.2-6-1.9-15.8c-1.5-5.9-10.3-16.5-17.9-16.5l-1.4.7h.1ZM411.8,945.8c4.2-1.7,7.7-6.3,10.7-9.3,9.3-9.3,20.1-22.3,22.3-38.1.5-3.6-.7-8.5,0-12.6l2.6-13.7-.7.2c-1,1.3-10.1,10-11.4,10.5l-.2-.2c.2-4.6,3.8-9.1,5.3-13.2,3.2-8.6,4.6-19.6,4.7-30.9l-.7.2-3.7,5.3c-.8-.4-.6-.5-1.4-.5-.5,7.2-9,25.7-13.2,29.3,2.5-10.1,3.2-21.2,3.2-34.4s.9-6.1-.2-7.7l-.9,2.1-1.2-.7c.2,8.3-5,14.1-8.6,19.1-2-6.1,3-13.6.5-20-2.8,9.8-4.3,18.6-7.9,27-4.5,10.5-11.9,18.8-17,28.4,9.6-3.6,13.7-17.3,20.7-23.9h.5v.2c-4.9,13.7-8.7,28.4-14.2,41.4h.7c4.7-6.1,19.4-21.1,20.7-27.9h.9l.5.7-.5,11.6c-4.7,17.7-18.3,26.6-28.4,38.8-6.1,7.4-11.7,15.3-18.8,21.6-3.4,3-7.2,4.3-10,7.9-6.5,8.4-10,23-13.7,33.7h.7c4.8-8.9,10.1-18.5,16.3-26.3,4-5,8.1-9.6,12.1-14.9l3.5-3.5c1.2-3.4,4.5-9,6.5-11.6l20.9-17.7c9.1-7.5,14.1-17,21.1-26.7l.9-.2.5.5.7,6.5c-3.4,21.1-14.4,32.5-25.8,45.3-3.3,3.7-7.3,8.4-11.6,10.9-5.3,3-12.7,3.9-16.7,8.8-3.1,3.8-5.9,8-7.9,12.8-2.7,6.3-4.1,17.1-9.1,21.1l-7.2,3.7c-5.5,3.8-10.6,8.2-16.5,11.6-3.5,2.1-10.6,3.8-12.5,7.4,10.5-1.5,23.3-3.5,30.7-8.4,8.3-5.5,10.1-14.6,15.6-22.3,6.3-8.9,12.4-17,18.6-26.3l14.4-13,7.9-8.8-3.5,6-.2.2ZM175.2,290.2c-3.8-15.3-7.4-31.8-7.4-50s1.9-28.5,5.6-40.7l7.2-24.4c1.1-6.5-7.5-16.2-10-21.2-3.1-6.1-5.6-12.9-7.7-19.8l-2.1-9.3-3.5-3.3c-3.1-3.9-5.2-8.5-9.1-11.6l-10-6.3c-2.6-2-6.2-7.1-7.4-10.2-1.8-4.5-.4-11.5-5.8-12.3-4.3,3.3-4.5,12.4-6,18.4-5.5,21.1-8,51.6,2.6,70h.7c1.5-2.7,4.1-5.7,4.7-9.3.9-6-4.3-16.9,2.6-19.5,4,1,5.7,5,8.1,7.7,11,12.2,18.3,16.3,21.6,37.2,1.6,9.7.8,29.4-7.2,29.8-4-2.2-7.6-13.1-12.6-11.4-7.1,2.4-6.1,18.2-7.7,26.3-5.9,30.4-9.7,69.8,6.3,91.3,2.7,3.7,17.1,20.2,24.2,16.3,6.5-3.6,18.7-19.1,17.4-30l-4.4-17.7h-.1ZM651.7,348.3c5.6.2,15.2-1.7,19.5.7v.7c-18-.3-34.6,2.6-48.8,6.5-5.2,1.4-12.8,1.6-13.7,7.4l.2.2c10.4-.8,22.3-4.8,31.6-6.5l13.2-.9c3.5-.6,8.4-1.4,11.6-.2l-.2.7c-5.5,2.2-13.1,2.3-17.7,5.6l.5.5c32.4,4.7,64.8,9.5,97.2,14.2,2.3-2.9,7.1-4.6,8.4-8.4v-7.9c0-6.5,2.1-11.1,5.1-14.6,4.3-5,22.8-4.1,19.5-15.1-1.5-5-7.5-5.8-11.4-8.4-7.9-5.3-17.4-15.2-16.3-27.7h-.9l-24.2,5.3c-17.2,4.6-34.3,9.4-49.5,16.3v.2c5.5,2,12.5,1.5,17.4,3.7v.7c-13.3-.2-28-2.8-36.3,4,9.2,3.3,23.1-.8,30.7,3.9v.5c-13.7-1.5-47.6-.5-52.5,7.7l9.8.2c-.3,1.8-.9,3.8-1.9,4.9-8.9,0-24.1,2-26.7,8.6v.2l29.5-3c0-.5,4.6-12.8,4.7-12.8l.5,1.9c7.7,0,22.8-1,28.8,1.4v.5l-.2.7-25.6,1.6-4.4,6.3,2.1.5h0ZM1139.6,1195.2c2.3-7.4,2.2-17,1.1-25.1-.7-4.7.6-10.5-1.2-14.2l-3.3-.2c-2.4,1.1-4.8,2.3-5.8,4.7l-.5,10.9c-1.1,7.7-1.3,15.2-3.3,21.8l-5.1,13c6.2,1.7,10.7.2,13.8-3.1l2.7-4.5c.5-1.1,1-2.2,1.5-3.3h.1ZM1204.1,504.8l-3-3c.9,1,1.9,2,3,3ZM1194.6,503.5l-16.5-8.8v-.2c2.9-1,7.1-1.4,9.8-3,.5-4.6-.8-9.4-1.6-13.5-4.3-20.5-10.6-36.4-20-51.4-2.7-4.4-6.8-15.7-13.9-14.4-4.6,5.3-8,10.5-9.5,19.1l-.7,8.8h-.2c-2.8-8.1.4-18.7,1.6-25.3v-7.9l1.4-8.4c-.7-3-11.5-11.8-14.2-14.2-12.7-11.2-25.7-21.4-40.4-30.7-3.5-2.2-13.1-8.1-19.5-6.7-2.5.6-3.9,2.5-5.8,3.7-7.4-1-12.2-11-17.2-15.1-13.7-11.2-26.4-15.7-44.6-22.8-5.2-2-10.8-5.8-19.3-4.4-5.8.9-12.2,3.5-15.1,7.4l-2.6,5.3c-5.2,4.9-12.4,8.2-20,10.7,5.3-10.5,22-10.5,13.5-30-2.5-5.8-13.8-4.5-20.9-6-18.8-4.1-53.5-11.4-71.1-4.2,2.5,6.3,10.3,8.7,13.7,14.2l-12.6-6c-16.1-6.1-35.1-12.1-56.2-12.3l-16.5,1.2-28.8,3.7-8.1,1.4-2.3,5.8c-.7,1.5-2.5,1.8-2.1,4.4,2.8,17,31.6,18.4,27.4,36.5-2.8,12.4-13.3.4-21.6,7-8.8,7-.6,14.4-2.3,23.7l-3,7.9,31.6,5.6c31.2,6.9,61.9,13.1,89.5,23.7,25.5,9.8,46.7,21.4,72.3,30.9l15.6,5.8c1.8-3.8,11.6-15.2,15.6-14.9-2.8,5.7-6.6,11.6-7.2,19.5,14.9,10.5,21.3,24.9,33.5,37.7,2.1,2.2,10.9,10.4,14.6,3.7,3.2-9.1-6.1-28.1-9.1-33.2l-3.7-6.3,1.2-2.3c.4-2.4-1.8-6-2.8-7.7-9.4-16.2-20.8-30.1-35.6-40.9,3.8-.6,16.8,9.5,20.2,11.9,18.7,12.8,40.3,28.5,45.1,54.9,1.4,7.5-.2,15.6-2.6,20.9l-2.8,4.9c-1.3,6.7,5.4,23.2,8.1,26.7,4.7,6,11.9,5.5,20.9,7.4,14.8,3.2,37.6,13.2,47.6,0l.5.2.2.2c.6,3.3-1.8,6.5-1.4,9.1l3.9,6.5,9.5,1.4c6.4-1.3,11.7-5.7,19.1-7.2,7.3-1.5,15.4-.8,20.7-4.2,2-10.5,1.4-21.5-3.5-29.3l-5.1-5.4c8.4,2,13.1,14.6,15.3,22.8l1.9,9.3,10.7,8.6,31.8,7c10.6-16.6-6.8-36-16.3-42.8h-.1ZM1135.6,468.2l1.9,17.4,25.6,3.9v.7c-21.9-.2-39.6,8.4-47.6,22.3l-5.1,14.2h-.5l-.2-.2c-1.1-13.7-.4-26.8,8.6-33.9,1.3-1,13.5-6.3,13.5-6.3.3-.4,3.6-16.7,4-18.1h-.2ZM909.2,362c6.8,10.7,16.2,20,26.5,27.2l-5.6-1.4c-12.9-4.1-24.7-11.4-29.7-23.2-2.2-5-3.9-14.7.2-18.8,1.4.6,7.2,14,8.6,16.3h0ZM1065.4,351.8c5.8,4.5-4.5,23.3-7.9,16.5,2.6-3.2,5.5-12.4,7.9-16.5ZM840.2,440.5c-13.7,7.4-27.4,14.9-41.1,22.3,1.5-8.9-2.1-15-13.5-13.2-17,2.6-30.8,8.5-41.8,17-3.4,2.6-10,7.3-8.6,14.2,1.1,5.3,7.1,7.6,10,11.4l-33.9,16.3-18.4,6.5c2.7,49.2,10.9,92,28.1,127.1h.5c5.8-21.6,34.1-39.5,51.6-50.4l15.3-9.1c-7-1.7-15,7.7-21.4,6.3l.2-.2c8.2-4.8,20.4-7.9,27.9-13.5-14.2.6-24.6,10.4-36.7,13l.5-.9c8.1-4.6,16.6-9.6,25.6-13.5l19.8-8.6-12.5,3.5-29.7,10-12.6,5.4v-.2l.5-.5,28.6-14.6,20-9.5-14.9,4.6c-11.5,4.1-22.4,7.7-33.2,12.3l-14.4,6.3c2.4-3.5,15-8,19.5-10,16-7.5,31.9-15,47.9-22.5l-17.4,5.8c-12.6,4.9-24.9,9.3-37,14.4-2.8,1.2-17.4,7.4-18.1,6.7,24.6-11.9,49.3-23.7,73.9-35.6-3.3-.8-19.6,7.4-23.5,9.1-13.5,6-27,11.9-40.4,17.9l-25.3,12.8h-.2v-.9c12.4-7.3,24.8-14.6,37.2-21.8l24.9-13.5-20,9.8-34.6,17.9-16.7,9.1h-.2l.2-1.2c14-12.3,33-20.2,49.5-29.7,35-20.3,73.6-37.5,113-53,11.9-4.3,23.7-8.5,35.6-12.8l16.3-5.1-.2-.7-18.1-12.6c-13.4-8.4-27.3-15-43.7-20.7-5.4-1.9-11.6-4.7-17.9-5.1l-.6-.3ZM908,636.9c-4.2,5.2-15,22.8-20,25.1,1.5-5.2,5.3-9.7,8.1-13.7,11.4-16.2,24.2-31.1,40.4-42.5,10.1-7.1,21.8-11.9,29.5-21.4,10.9-13.3,25.2-34.3-9.3-34.2l-21.2,5.6c-15.9,6-30.3,13.3-42.5,23-6.4,5.1-16.9,20-29,17-4-7.8,12.8-23.5,14.4-31.4-9.8.7-23.7,10.6-31.1,15.1-26.2,16-52,34.6-70.7,58.1-4.8,6.1-27.6,34.2-11.2,40.4h.5c15-21.7,36.2-40.4,57.4-56,3.4-2.5,18.1-14.9,21.4-14.6-13.4,10.5-26.9,33.5-32.3,52.1-4.3,15,.9,29.4,11.4,33.9,19.4,8.4,43.5-9.3,54.2-17.4,3.1-2.4,6.1-7.1,10.5-7.9l.2.2c-2.9,17.5,15.4,12.4,23.5,7.4,22.2-13.5,43.8-32.8,59-53.5,2.9-3.9,14.4-17.7,9.5-25.3-5.9-9.4-25.1,2.6-30.2,5.6-16.8,9.8-30.8,19.8-42.5,34.4h0ZM793.2,783.8c1.9-4.8-.2-10.5.9-16.5,1.4-7.8,6.2-13.1,11.4-17.2v-.5c-3.8-1.1-3.3-3.1-5.8-4.9-4.2-2.9-10.1.3-10.5,4.4l1.4,4.4-2.1,1.4c-16-3.9-27.5-9.1-38.3-17.7v-.5l5.3-1.4c-1.4-10.3-12-10-20.2-13.5l-15.1-10.9-5.3.2c-12.8,0-19.6,8.1-23.7,17.2-1.2-.3-.8-.2-1.4-.9,3.3-11,12.2-18.2,20.9-23.9l-5.6-5.6c-3.8-3.8-7.6-7.9-10.5-12.5-2-3.2-1.9-5.4-3.3-9.8l-6-9.3-1.6-4.9c-10.1-12.4-17.4-27.3-23.7-43.7-3.2-8.5-9.2-30.3-18.8-29.7-3,5.1-.9,15.5.5,20.9,2.5,9.9,4.5,18.8,7.9,27.7l7.9,18.1-.5-.2-13-20.9c-12.3-21.5-19.5-45.9-24.4-74.8-1.6-9.8-2.7-23-1.2-33.9,1.4-9.4,2.8-18.4,6-26l5.6-10.2c1.1-8-11.8-11.9-20.2-11.9l-2.1.5c-3,5.2-6.7,9.8-9.1,15.8l-3.5,12.1-4.4-8.8c-3.2-4.5-15.6-16-24.6-13.9-23.1,8.5-46.2,17-69.3,25.6-10,3.1-10.6-4.6-16.3-3.5-10.4,2.1-20.9,6.6-30.2,10.2-21.9,8.6-53.8,18.7-55.3,46.7l16.5-11.9c15-10.6,30.5-20.2,46.7-29.7,7.1-4.2,14.7-9.2,23.7-11.2l-22.1,12.6c-17.5,11-32.9,24-48.6,36.7-3.9,3.2-14.6,11.3-16.3,15.8-1.1,3.6,2.6,8.9,4.9,10.2,12.6-9.5,25.1-19.1,37.7-28.6l.2.9.9,4.6c-9.6,9-19.6,17.4-28.6,27,.8,6.5,7.1,9.1,10.2,13.5l4.2,9.8-.7.2c-1.9-1.7-4.4-4.2-7.2-4.9l-9.5,11.6c.6,5,3.8,5.9,6.3,8.8l.9-.2,22.8-24.6c9.7-11.8,21.2-23.7,33-33.5,6-5,15.6-17.7,23.7-19.3l-.2.7c-19.9,18.9-39,39.4-55.8,61.4l-24.9,33.5c-.2,4.9,1,10.1,5.3,10.5l8.4-10.5.5-5.3c4.4.6,7.6,8.4,10.7,10.9s8.2,4.8,12.3,6c-.4,4.4-4.3,8.7-6.3,12.1-4.4,7.7-8.9,16.9-11.4,25.8.6,1.6,1.2,2.2,2.3,3.3l2.8-.5,7.7-14.4c9.7-15.7,20.1-31,30.7-45.8,3.7-5.1,7.5-11.8,13-15.1v.2h.2l-.5,1.2c-12.2,12.7-23,37.9-30.2,55.8-1.6,4-7.8,17.4-7.2,21.1l.5.5,7.7-.2,6.7-16c8.1-13.7,18-25.8,27-38.3h.7l-8.4,17c-3.8,8.7-6.1,17.6-8.8,27.7l-2.6,9.1c2.5,1.2,5.1.7,7.2-.7,3.2-12,16.1-41.7,25.1-45.3l-6.3,15.8-3.7,22.3.2.2.7-.5c5.3-2.7,3.4-10.5,5.8-16.3,2.7-6.4,8.4-12,12.5-17.2l.7.2c-.9,3.7-1.9,10-.9,13.9l.5-.2c8.4-11.7,16.9-25.2,20-42.1.7-3.7-1.4-5.2-1.9-7.9l.2-15.3-.9-10.5c2.4-16.3,5.2-30.5,10.5-43.2,1.7-4.1,3.4-17.8,2.6-23.5-.3-2-2.7-7.2-2.6-7.9v-.2l1.2-.5c5.9,1.8,8.7,9.9,11.2,15.1l.5-1.2c-1-5.5-2.5-10.3-3.5-15.1l.7.2c3.4,4.2,6.9,8.3,9.1,13.7,6.2,15.3-.5,31.1-13.7,34.4l.2-1.6c-1.4.5-4.3.7-5.1,1.9-3.2,4.2-10.2,27-5.6,35.3,2.1,3.7,3.2,9,4.9,13.2,10.6,27.4,4.9,50.5-9.3,70-2.4,3.3-5.4,9.3-9.1,11.2h-.2c-4.3-1.9-5-11.7-5.6-11.8-2,3.5-1.2,16.4,1.4,19.3,1.5,1.7,3.8,2.1,5.1,4.2,1.4,2.2,1.2,5.4,1.9,6.7,2,4.2,9.3,5.2,11.2,9.1-9-1.6-16.6-14.5-24.4-13.5-9.8,1.4-13.5,8.7-21.6,10.9-3.9,1.1-7.7-1.9-11.6.7-3.6,2.4-1,8.7-4.4,11.2l-10.2,5.1c-14.2,8.9-38.6,27.4-33.9,53.5h.5c2.5-4.8,11.7-22.1,17-22.5v.7c-3.8,3.2-10.9,26.7-9.8,34.2,1.5.8,2.2,1.2,3.5,0,1.5-8,10.6-26.3,15.8-30.9l1.4.7c-1.7,8.3-8.5,19.5-5.8,30.4,2.8.3,3.4,1.9,4.6,3.7h.5l1.9-7c3-8.6,5.8-19.7,10.7-27l.7.5c1.9,8.1-1.7,18.7-.2,27.4h.2c4.5-.8,11.3-23.7,14.9-28.4h.2c.4,2.3-1.1,4.5-1.6,6.7-1.1,4.7-.5,11.2.5,15.3h.2l3.7-1.4c2-7.5,11.8-24.6,5.6-30l-3.2.5-3.7,4.9c-1.9-1.5.3-5.7-.2-7.4-1-3.4-7.6-16.5-5.1-21.4,1.3,3.3,2,6.7,3.9,9.3,5.6,7.4,15.7,10.3,21.2,18.4,4.6,6.8,5.9,16,8.4,25.1l1.2,7.2c2.2,4.5,9.7,9.5,13.7,12.3,4.7,3.4,24.6,15.5,30.2,5.6-.9-7.2-8.8-9.4-5.6-18.8,4.4-12.8,20.3-27,28.8-36.5,3.9-4.4,3.1-9.4,9.5-12.3,7.2-3.2,14.1,3.1,17,6.7h4.7c4.3-10-6-9-5.6-15.6,1.2-17.3,17.9-39.2,36.7-27.4,10.7,6.7,10.2,23,23.9,25.3v.9l-1.2.2c-14.9-3.3-11.3-13.4-20.5-19.8-11.6-8.1-27.9-1.4-32.1,8.1-1,2.4-2.7,7.2-1.6,11.2l4.4,6c1.9,4.9.2,14.4-3,16.5-6.7,4.3-12.8-16.3-22.3-9.1-2.5,1.9-3.9,5-4,9.3,8.4,6.1,13.3,14.7,14.4,27.4l-2.6,7c-1.8,4.1-6.5,6.2-4.7,13.7h.5c1.2-1.3,2.5-2.5,4.6-2.8.9,4.3,0,8.7,1.6,12.8l16,13.7h.5c3.2-4.5,7.8-9.7,13-12.1l.2.2-.2.7c-2.1,1.6-8.9,12.9-7.7,17.2l7.7,8.8.9-.2c4.7-6.4,10.6-11.1,17.2-15.6-1.9-5.3-4.5-8.1-6.7-12.3l.2-.2.7.2c.8,1,9.7,7.4,10.9,7,2.9-.9,4.2-5.7,8.4-5.3-.7,1.9-1.8,2.1-2.1,4.7,1,2.1,9.3,10.9,12.1,10l2.1-2.6c3.3-2.5,14.6-10.1,20-8.8l.5,1.6-.7.5c-5.5.5-11.8,5.6-13.5,10,5.8,8.1,19.6,4.9,28.6,3.5,0-3.4,5.4-6,3.9-10l-12.3-5.3c-11.1-4.5-25.4-7.9-34.6-14.6v-.7l16,5.3c11.1,3.3,25.7,4,35.1,9.5v2.8c1.7.8,4.3,1.7,6.3,1.4,3-3.8,21.2-19.1,26.5-18.1-9.9,5.4-14.8,13.8-10.2,26.3l.9,5.1c1.6,2.3,7.6,3.8,9.8,5.6,4.2,3.3,7.9,8.1,16.7,6.7,10.8-1.6,22.7-9.3,28.4-16.5l5.8-10-5.6-13.7c-2.1-6.4-1.7-17-5.8-21.6l-9.1.5c-3.4.9-6.5,4.5-11.2,3.7v-.7c8.1-3.7,14.6-7.6,17.9-16v-.2ZM545.2,786.9c9.2-4.5,16.6-28.9,27.9-31.8l.2.7c-7.2,5-12.7,15.7-15.3,25.1-1.2,4.2.2,11.5-2.1,14.6-1.9,2.5-3.6.8-6.7,2.3-2.9,1.4-3.8,6.1-9.5,3.9-3.8-1.4-4.6-4.4-6.5-7.7-1.7-2.8-5.3-6.1-4.6-10.9,1-7.6,21.7-30.3,27.7-34.9h1.2l.2.9c-3.9,3.5-19,29.1-16.5,35.8l4.2,1.9h-.2ZM449.2,773.6l.2-.5.5.2-.2.2h-.5ZM640.3,774.1c5.2,2.3,30.5,30.4,32.5,36l-.2.2c-8.9-1.8-18.9-2.2-20.7-10.9-1.2-5.6-.9-9-3-13l-8.6-12.3ZM462.2,630.4c8.4-11.1,17.4-21.2,27.4-30.7l.7.2-15.1,18.6c-8.5,11.5-16.1,23.8-23.7,36.3l-.7-.2c-1.1-1.7-2.1-3-2.3-5.6l13.7-18.6ZM583.3,700.4c8.8,1.8,11.8,21.9,2.1,25.1l-.2-.2c1.2-1.9,2.6-2.8,3-5.6h-.2c-7,2.3-9.2-5.3-7.9-11.9l-.5-.5h-1.4c-6.5,2.9-5.1,9.5-3.9,15.8l-2.1-.2c-5.7-7.8-.2-24.9,11.2-22.5h0ZM675.8,742.2l13.2-12.8c5.5,4.2-9,12.8-13.2,12.8ZM540.8,748c-.5,5.8-7.1,11.7-9.5,16.7l-3.5,8.6c-.8,1.1-1.9,1.7-3.7,1.9-1.3-.9-1.9-1.4-2.3-3.3,2.4-9.9,12.6-16.2,17.4-24.2l1.6.2h0ZM484.5,537.7c2.8-2.1,8.5-8.4,12.3-7.9l-.2.5c-18,13.3-34.9,29.6-50.7,45.3l-22.3,22.8h-.5c-1.5-1.8-3.5-3.2-4.2-5.8l30.4-26.5v-.2c-1.9-.5-4.9-.8-5.8-2.3-2.2-3.5-2.6-15.8-.9-18.6l1.9,4.6,17-12.3c9.4-6.6,19.5-12,29.1-18.8h1.9l-.2.7c-7.2,3.9-42.2,29.2-44.6,34.9,2.8,2.7,3.6,6.7,2.3,11.2l.2.2.5-.2c9.8-10.2,22.5-18.9,33.9-27.4v-.2ZM540.1,520c.7.5.7.8.9,1.9l-.9,1.2-.2-.2.2-2.8h0ZM455.5,610.7c10.3-12.6,22.6-22.5,35.3-32.8l.5.2-21.6,22.3-19.5,25.6-9.5,14.4h-.9l-5.4-4.4.2-.9,20.9-24.4h0ZM592.2,786.2c-6.3,4-7.8,17.4-8.4,26.7l.5.5,2.6.5c2.8-5.6,15.9-17.4,13.5-23.2-2.5-1.9-3.8-4.4-8.1-4.4h0ZM381.1,998.1c5.4-1.4,24.3-28.8,24.2-35.6h-.5l-10.2,7.9c-6.2,5-12.4,18.2-13.5,27.7h0ZM1307.5,846.1c-1.9.8-4.2,1.5-6.6,2.3,2.5-.4,4.8-1.1,6.6-2.3ZM349.3,1074.8c-.4-1,.1-.4-.7-.9l-15.8,9.3c-6.4,4.6-23.3,25.7-20.2,37l.9.2.2-.2c7-11.6,17.1-19.7,24.9-30.2,3.7-5,6-11.2,10.7-15.1h0ZM409,1020.9c-7.3,4.2-34.3,15.2-30,27h.9c5.9-7.7,14.6-14.5,22.1-20.7,2-1.7,6.2-3.7,7.2-6.3h-.2ZM387.9,1003.7h.2c8.7-3.5,22.6-15.1,26.5-23.5,1.6-3.4,2.7-12.7-.7-15.3l-7,8.1c-6.4,10.4-9.9,22.5-19.1,30v.7h.1ZM549.2,1351.4c-3.5-24.4,14.8-29.4,20.2-46.9l-.5-.5-5.6-.7c-11,4.8-14.8,16.8-17,30.2-.9,5.6-.9,15.7,2.8,17.9h0ZM341.6,1320.7c1.4-2.8,5.2-10.8,2.3-13.7-2,3.2-3.1,6.5-5.3,9.3-10.8,13.2-19.1,10.4-21.6,34.2,9.2-3.3,20.2-20.8,24.6-29.7h0ZM352.8,1274.3l6-16.7,4.6-8.1h-.7c-8.5,9.8-16.1,22.6-20.7,36-1.8,5.4-2.7,13.9,3.5,15.1l3.3-4,4-22.3h0ZM176.1,901c19.8,8.7,41.1,6.9,57.6-3.5,7.7-4.9,14.5-11.9,19.8-19.3,14.7-20.8,21.4-48.7,27.2-78.6,1.9-9.8,1.5-19.2,3-29.7,1.3-8.8,2.1-21.4.7-30.9l-1.6-31.8c-2.9-17.5-4.6-34.4-8.4-50.7-11.9-51.2-31.7-95.5-59.5-130.9-16.9-21.5-38.3-45.7-76.5-45.6l-10.2,1.4c-6.4,1.7-12.7,4.5-17.7,7.9-22.3,15.4-34.6,42.3-42.1,72.5l-4.9,28.4c-6.4,1.4-6.7,21.8-5.1,29.3l.9.7,1.2-.2c3.6-5,4.9-12.9,7.4-18.8,7.7-17.9,19.7-33.7,40.7-38.4,22.5-5,41.7,11.9,51.6,21.8,25.4,25.4,39.4,63.3,48.3,105.1,2.7,12.7,2.6,26.1,4.6,40l-.2,21.4-2.1,24.4c-5,26.3-12.6,50.2-30,64.2-8.2,6.5-20.3,13.3-36,10-11.1-2.4-19.8-7.7-27.4-13.7l-8.6-7.7c2.4,6.2,6.4,11.4,9.8,16.7,14.2,22.5,32,44.9,57.4,56h0ZM217.5,702.5c-.3,1-.2.5-.9.5-3.3-4.9-3.1-14.2-4.6-20.7-3.5-14.3-7.4-27.9-11.2-41.4l.2-.2c17.7,8,43.6-3.7,50-18.1,2-4.6,2.2-10,2.1-16.3,3.8,5.3,5,13.7,7.2,20.2,4,11.6,7.2,23.5,10.7,36,1.6,5.7,3.8,12.4,3,19.5-3-2.2-3-5.8-7.4-7-7.3-2-39.9,3.7-42.5,6.5v.2c-3.2,3.7-4.9,7.7-6,13.7l-.5,7h-.1ZM210.7,543.5c-5.4,1-31.1,22.9-32.1,27.7-1.5,6.9,6.8,21,5.1,27.9-13.5-21.6-41.7-56.1-80.9-43.2-6.8,2.2-12.6,5.8-17.7,9.8l-6.3,5.6c1-9.1,8.4-13.9,12.3-20.5,3.1-5.2,4.1-11.7,5.8-18.4,1.1-4.4,4-12.4,1.2-17-2.8-1-4.4-.3-6.5,1.2,3.2-6.7,24.6-21,32.1-24.6,4.3-2.1,9.3-2.3,13.9-4.4l1.9.2c-4.5,3.1-10.5,6.3-13.7,10.7-4.6,6.3-8.8,23.1-11.4,31.6-1.7,5.4-5.7,13.4-4,20.5,3-.5,5.2-1.8,7.2-2.6,5-1.9,18.4,2.3,21.6,3.5,3.8,1.5,13.9,8.7,17.2,8.4,8.6-.9,22.4-18.4,27.7-24.4l8.6-8.8c1.5-4.4-2.6-15.4-3.7-18.1,6,2.6,33.1,34.5,35.6,41.4-3.6-2.3-7.2-7.5-13.9-6.3v-.2ZM233.1,892.1c-9.2,6.9-22.9,12.8-39.3,9.1-3.4-.8-7-1.2-9.3-3,18.1-6.6-1.2-26.5-7.9-32.1l-4.2-5.1c-3-1.9-7.3-.6-8.8-3.9l.2-.2c24.3-2.7,36.2-24.9,46.3-42.5,3.8.5,5.2,6.3,7.2,8.8,5.2,6.7,20.6,21.4,32.8,13.9,9.2-5.7,13.7-14.7,13.7-30s0-7.5-1.6-9.3-34.8-13.7-39-13.9l-5.4,3.5-2.3,5.1h-.2l.2-.5c2-14.9,4-29.9,6-44.9v-21.6c2.4,3.7,5.2,7.5,7,11.4,9.7,0,27.1,6.2,36.5.5,6.6-4.1,9.2-23.3,10.5-33.5,2.5,2.7,1.6,9.8,2.3,14.2,1.5,9.3,2.7,22.8,1.2,33.5l-.7,19.3c1.7,12.8-2.4,28.1-4.9,39-7.7,33.5-16.8,64.7-40.2,82.3h0ZM275.1,786.9c-.3,1.4-.8,1.9-.5,3.5.6-.9,1.2-2.6.5-3.5ZM257.2,791.7c4.9,1.6,11.5,3,13.5-1.4,2.1-4.5,2.9-16.1-.9-18.8-3.2-2.2-35.6-4.5-42.3-4.6-6.4,1.9-10.3,8.1-3.9,13.2l3.7-.7,9.8,4.9c6.1,2.7,13.7,5.3,20.2,7.4h-.1ZM1040.7,1039c2.3,14.8-.7,36.7-10.5,41.4-.2,14.7,2.3,21.5,15.3,23.2l10-.9c3.8.6,5.8,3,10.5,3,2.5-3.5,9.4-4.1,11.2-7.9,6.8-14.5,5.6-40.7-.7-56-1.1-2.8-4.2-5.2-5.6-8.4-2.8-6.4-3.9-15.8-9.3-19.5-2.8,2.2-9.1,1.1-11.8,3.3-6.3,5-13.6,12.7-15.6,21.8l-.2,12.1-3.3,18.1.9-.2c3.9-5.3,5.5-11.1,6.7-19.5l.7-10.5,1.2-.5.5.5h0ZM1063,1012.5l.2,1.2,1.2-.5-.2-.2-1.2-.5ZM852,1170.6c.9.2.6.2,1.2-.5l-.5-.2-.7.7ZM371.1,1108.5l5.3-7.2h-.9l-10.2,6.3c-8,5-14.1,11.9-17.2,21.8-1,3.3-2.2,8.9-.7,12.8h.7c5.2-13.3,15.6-22.1,23-33.7h0ZM530.8,1324c1.2-2.4,5.6-9,4.2-11.8-5.4,8.5-28.3,29.5-27.2,39.5l.5-.2,8.4-6.7c5.9-4.8,10.6-13.6,14.2-20.7h-.1ZM532.4,1285.9l2.3-17.4h-.7c-5.2,7.9-7,19.9-10.7,28.8-5.2,12.7-12.8,25-17.4,38.3l.9-.2,12.3-13c7.4-9.7,10.5-22,13.2-36.5h.1ZM561.7,1278.4c.9-3.4.2-19.6-1.9-21.2-4.9,12.6-23.1,46.1-17.4,62.8h.5l.2-.2c-1.1-19,14.3-25.7,18.6-41.4h0ZM1043.5,543.5c-4.3,11.5,3,24.3,10.7,26.7,7.1,2.2,24.4,2.5,27.7-2.3,10.1-14.8-22.3-29.2-33.7-30-1.4,2.1-3.7,3-4.7,5.6ZM1160,1035.3l-.7-.2.2,1.2.5-.9h0ZM1079.6,698.3c6.7,5.9,27-25.6,13.7-27.7-4.4,1.6-22.1,22.5-13.7,27.7ZM1037.5,754.3c-.8-5.3,1.6-10.2,2.6-14.4,5-22.8,13.5-39,20.5-59,1.1-3.2,7.3-24.8,3.7-28.8.2,17.7-8.9,28.9-14.4,41.4-6.3,14.2-10.6,27.8-14.6,45.3-2.2,9.5-5.8,26-1.6,36.3,12.5,3.1,18.2,2.4,25.3,11.2l7.7,12.1v-.7l-.5-6.3c-2.1-13.3-9.5-12.7-18.8-18.4-6.5-4-8.4-9.2-9.8-18.6h0ZM1062.1,747.3c.8,3.9,3.7,6.8,8.4,5.3,2.8-4.3-.3-9.1-5.8-8.8-1.5,1-1.9,1.5-2.6,3.5ZM1315.7,796.2c1.1-2.6,3.7-6.7,3.3-9.8h-.7c-3.8,2.4-10.1,18.9-13.5,23.7-8.3,11.7-17.9,16.8-32.3,22.8,5.1,3.4,14.3-2.4,17.7-4.4,12.3-7.4,19.7-18.5,25.6-32.3h0ZM1321,799.2c-4.1,8.7-9.3,17.2-15.8,23.7-2.3,2.3-16,11-16.5,12.6,5.7,2.6,12.1-3.4,15.6-6.3,9-7.3,21.8-26.4,23.9-40l-.5-.5h-2.1l-4.6,10.5ZM1316.4,764.8c4.9-22.1,9.3-59.1,5.3-86l-1.2-23.7c-2.2-9.1-12-26.7-18.8-30.9-1.6-1-3.2-.7-4.4-1.9-25.2-24.3-76.7-51.3-126.2-51.1-6.8,2.1-14.1-.4-16.5,6,20.8-6.5,66.4,5.3,82.5,12.5v.2c-10.7,4.5-18.5,12.2-27.4,18.6-19.2,13.8-37.3,28.5-55.5,43.2l-21.6,19.5c0,15.9,6.2,32,10.5,45.1,1.1,3.5,2.1,11,4.9,13,10.5-13.8,25.5-29.4,38.8-40.4,17.4-14.4,32.7-31.4,50.7-45.3,12.8-9.5,25.6-18.9,38.3-28.4,7.7.7,16.1,8.9,20.7,13.5,17.4,17.4,24.8,37.7,20.7,72.5l-.9.2c-6.5-8.5-25.2,4.1-30.2,7.4-18.5,12.3-33.1,27.8-50,41.6-4.4,3.6-13.9,15.5-21.2,14.2l-1.2-1.9c-1.7-4.7,9.1-17.1,11.4-20.2,8.8-11.8,17.5-23.6,26.3-35.3,3.7-5.3,8.6-11,10.5-17.9l-.2-.2c-10.8,1.4-23.9,11.3-32.1,16.5-24.6,15.5-49,32.8-68.8,53.2.8,7.5,11.7,20.9,15.8,26.5,5.4,7.3,14.4,20.5,22.1,24.9,9.4,5.4,28.5-5.7,34.2-9.1,20.5-12,38.3-25.8,56.2-40.2,3.8-3.1,19.5-19.1,23-19.5,8.3,9.7-3.2,29.4-.9,40.4h.2l.7-.9,4.4-16.3v.2ZM348.6,1182.9c-13.1,5.7-32.3,18.1-30,37.7h.2l10.5-9.1,13.2-22.1c2.2-2.8,8.3-4.7,9.3-6l-3.3-.5h0ZM353.2,1235.2c-8.6,6.7-17.2,16-21.8,26.5-2.1,4.8-3.9,12.3,1.4,15.1,6.6-3.1,9.4-24.5,13.2-31.6l7.2-10h0ZM320.2,1258.4c1.3.6,7.7-6.9,8.4-8.4,4.2-9.1,5.3-19.3,10.7-27,3-4.2,9.2-6.3,11.6-9.8h-2.1l-7.2,3.3c-8.7,5.4-17.4,15.1-21.6,24.9-1.2,2.8-3.7,15.3.2,17ZM736.7,856.1c-4.9,3.8-15.2,10.3-13.7,19.1,9.2,7.1,21.7,5.9,25.8-5.6-.4-5.9-6.6-12.5-12.1-13.5ZM712.8,866.8c5.1-6.5,12.7-10.3,20-14.6v-.5c-5.3-2.5-7.4-5.4-16.3-5.3-6.7,2.6-10.1,4.1-14.9,7.9,0,5,7.1,11.1,10.7,12.5h.5ZM679.3,851.9c-8.6,3.3-14.1,13.7-14.2,25.3,3.2,1.7,6.9,3.6,11.2,4.2,3.6-9.2,8.6-17.7,17.2-21.8v-1.4c-4-2.8-7.5-6.1-14.2-6.3ZM654.9,870.1c4.3-9.1,11.8-14.4,19.1-20.5-.4-8.7-8.1-11.6-15.1-13.5-6.4,4.9-20.2,19.1-9.8,29.3,1.7,1.6,3.2,4,5.8,4.7ZM410.9,1252.4c.9-3.2,7-14.4,6.5-14.9-10.1,9.5-23.8,35.1-17.9,54.6,1.2,4.1,4.4,7.5,6.7,10.9l.5-.2c1.7-4.1,4.2-6.8,5.1-11.6l-1.4-12.1c-1.5-8.4-1.7-19,.5-26.7h0ZM422.3,1298.7c5.8-8.7,14-17.3,11.4-33-.4-2.3,0-4.1-1.6-5.1-2.5,9.3-5.1,17.7-7.4,26-1.2,4.4-1.6,8.5-3.3,12.1l.2.2.7-.2h0ZM235.4,1115c7.6-1.9,9.8-11.2,12.6-18.4,5.3-13.8,10.6-26.8,18.8-37.7l10-10.7c2-1.6,4.8-2.8,6-5.1h-.7c-18.8,9.8-39.4,37.1-46,59-1.1,3.8.2,8.6-.7,12.8h0ZM271.9,1130.4c2.1-2.2,8.6-7.4,5.3-11.6-1-1.1-2.2-1.5-4.4-1.4-7.1,4.3-24.8,30.9-20.2,43.9l.7.2c0-13.9,11.5-23.7,18.6-31.1ZM276.8,1161.3c6.3-.5,22.5-34.4,24.2-42.3h-.9l-11.6,8.4c-6.7,5.3-12.8,21.9-11.6,33.9h-.1ZM284.7,1172.4c10-4.6,18.7-13.6,21.6-25.1.7-2.6,2.8-10.6,1.6-12.6l-8.8,10.5-14.6,26.5.2.7h0ZM310.5,1216.1l1.9-8.4c-2.8,4.7-17.5,37.2-16.5,41.8,3.3-5.2,9.4-14.1,11.6-19.3l3-14.2h0ZM301.2,1190.3c6.3-14.4,15.5-20,27.9-28.1,4.2-2.8,7.7-6.4,12.8-8.4l-.2-.7h-.9l-15.1,3.3c-8.3,3.4-28,21.5-24.9,33.9h.5,0ZM392.7,1178c3.6-5.5,9.9-12.6,17.9-13.5l-.2.7c-4.5,4.3-19.5,26.7-13.5,35.8l.7.2.2-.2c-.1-18,14.8-26.3,24.9-34.4l6.3-7.9c3.7-2.6,10.4-4.1,12.8-7.9h-1.4l-12.8,1.6c-14.9,3.3-31.5,11.7-35.6,25.8l.7-.2ZM51.1,540.3c.9-8.2,4-16.6,6.5-23.7,10.4-29.1,23.9-54.1,52.5-64.8,6.1-2.3,16.3-4.3,24.9-3,3.9.6,9.5,1.7,13,.5l.2-.2c-.9-6-22.2-8-30.7-7.9l-17.2,6.3c-20.9,12.3-34.6,34.6-43.2,59.3-1.4,3.9-9.8,32.6-6.5,34.2l.5-.5v-.2ZM370.4,1244.3c-2.1,4.8-2.1,12.5,2.8,14.2,3.7,1.3,6.5-1.4,7.4-3.7,2.4-6.2.9-15.4,2.6-21.4,2.3-8.1,7.2-13.2,10.2-19.8h-.7c-7.6,9.7-17.1,18.5-22.3,30.7h0ZM367.2,1236.6c2.9-7.2,3-15.1,5.8-21.6,2.5-5.8,7.4-10.3,9.5-15.8l-.2-.2h-.9c-8.2,7-17.5,17.1-21.8,27.7-2.6,6.2-1.8,13.6,3.9,15.8l3.7-5.8h0ZM421.1,1146.7c3.3-.7,25.4-18.7,27.7-21.6l4.6-9.5-4.6-1.2c-10.6,9.1-23.3,16.7-27.7,32.1v.2ZM753.9,1156.9c.3-20.2,6.7-37.8-10.5-45.1l-9.1-1.6c-2.2-.7-2.8-2.8-5.1-3.3-8.6,5.2-17.4,27.6-13.2,43.2l3.3,4.9c2.3,8.9,1.8,19.4,10.2,21.6,5.7,1.5,20.8-16.2,24.4-19.8h0ZM602.4,1076.2c.6,1.6,1.2,2.6,3,3,2.8,1.2,6.2-2,5.1-4.6-.5-2.3-1.9-3.3-4.7-3.3-2.1,1.2-3.4,1.7-3.5,4.9h.1ZM639.6,1071.8c-1.7,1.8-.5,4.6,1.9,5.1h2.1l1.6-2.1-.2-3c-1.1-.9-1.6-1.3-3.7-1.4l-1.6,1.4h0ZM653.5,1128.3c7.3-3.8-2.8-20.3-7.4-21.4l-1.6.7c-3.5,4.9.2,25.2,9.1,20.7h0ZM655.4,1019c3,4.4,17.7,7,24.4,8.4,17.2,3.5,35.4-.8,49.5-3.7l22.8-3.7,17-4.7c-6.4,5.4-16.1,7.6-23.9,11.4v.2c4.4,1.2,4.8-.9,7.9-1.6,3.1-.7,4.1,1.6,6.5,1.4,8.3-.6,17.3-4.1,24.2-7,2.3,3.3,9.2,0,12.1-1.4,10.7-5.2,20.9-11.6,29.5-19.1v-.5l-4.4,1.6.2-.5c13.1-9.2,25.1-20.6,34.9-33.2l6.5-8.1c-8.2,3.4-14.4,11.4-20.9,16.7-13.1,10.7-30.7,26.8-49.7,30.7l-.9-.5.2-.7c17.6-11.1,31.9-25.8,48.1-38.1l12.8-8.8,15.6-18.8,8.4-8.4c-19.9,4.3-28.5,23.9-43,33.7l1.6-2.8-15.6,13.9c-12.5,9.9-25.2,17.4-39.7,25.8-7.6,4.4-16,9.6-25.1,12.1l.2-.5c5.3-2.8,18.5-10.3,21.2-15.1-15.7,5.9-27.6,12.1-46.3,15.3l-16.5,2.1,14.2-5.3c5.8-2.8,10-7,15.1-10.2l13-6.7c13.1-9.3,22.2-22.4,35.6-31.8v-.5l-.2-.2c-13.3,3.8-35.8,22.3-45.3,31.4-2.6,2.5-14.1,10.8-20.2,7.4l.5-.5c8.5-3.5,22.1-20.3,25.1-29.3l-.2-.2-1.4.5c-24.9,29.4-108.9,53-138.3,10.7-1.6-2.3-1.7-6.1-3-8.8-7.6-.4-12.5-18.9-14.4-26.3-2.4-9.1-5.6-21.9-3.7-33.9,2.9-18.7,14.3-45,37-39.7l.5-.9-.2-.9c-2.3-1.7-4.9-2.2-9.3-2.1-8.5,3.1-14.9,5-20,11.2-14.8,18-22.2,61-10,88.3,15.3,34.4,54.1,51.4,102.5,39.7,5.5-1.3,12.6-1,17.2-2.6l.2.2c-5.9,13.8-31.7,15.6-51.8,14.4h-.5ZM825,971.6c-.2.9-1.4,2.5-2.6,3l2.6-3ZM753,965.1l.9-.2,11.9-10c7.5-6.1,13.2-14.4,20.9-20.5v-.7h-.9l-11.2,5.6c-8.5,5.3-17.8,16.2-21.6,25.8h0ZM799.5,980c9.8-2.2,22.1-18.9,27.9-26.3,1.9-2.4,8.2-7.7,8.1-10.7-6.3,4.7-13.9,8.6-18.6,14.9-2.9,3.9-4.7,8.2-7.7,11.9l-9.8,10.2h0ZM802,1151.8c1.1-6.9,4.7-16.9,2.6-24.6-1.7-6.3-17-16.1-25.8-16-5.9,2.5-11.7,3.5-14.6,8.8l-1.4,16.5c-2.5,14-8.8,34.8,3.5,42.3,13.7,8.4,21.7-24.8,35.3-18.4l.5-8.6h0ZM787.4,1100.4c13.5,2.7,19.7-9.8,26.5-14.6-.5-9.6-3.8-21-2.6-32.1.4-3.8,2-13.9,0-17.2-4.7-4.6-6.9-11.7-16.3-11.6l-13.2,4.2c-1.8,7.6-8.4,13.1-11.4,20.7-4.4,11.3-2.5,23.2-2.6,36.5-17-4.5-5.8-44.2-18.8-53.9-26.6.4-29.3,21.6-28.8,48.1l-.7-.2-2.6-10.9c-2.4-13.2,3.5-34.6-14.9-31.1-4.2,6.9-8.1,14.2-12.3,21.4l-5.8,10c-3.9,18.3,18.8,22.8,32.1,24.9,2.1-3,5.9-9,4.4-13,9.4.4,9.1,9.7,13.2,15.6,2.1,3,5.7,4.9,9.5,6.3.3-1.2,0-.6.7-1.2,6.6,6.2,19.6-11.9,26-13,4.5-.8,10.9,10.1,17.4,11.4l.2-.3ZM842.7,1169.2c8.4-5.6,7-21.1,5.3-33.2l.2-13.2c-.9-2.7-3.4-3.1-3.7-7.2-5-2.3-11.2-3.3-18.6-3.3-4.9,1.6-9.4,1.2-12.1,4.9-2.2,3,0,9.5-.9,13.7-3,12.8-10.5,31-2.3,43.7,1.2,1.9,2.5,4.1,4.9,4.7,5.7,1.4,10.9-3.8,14.6-5.4l12.6-4.6h0ZM842.5,1098.5c9.4,1.2,11.2-8.6,19.8-8.1v-.2c-1.5-5.7-4.9-7.2-7.4-11.4-2.8-4.6-4.2-11.2-5.1-17.4-1.3-8.8,5.4-26,1.6-31.6-2.1-3.1-6.7-3.6-12.1-3.5-17.4,9.5-28.3,38.2-16.3,60.7,8.9,2,10.4,10.5,19.5,11.6h0ZM1261.5,1006.7c-1.5,1.2-3,2.4-4.5,3.5,1.7-.8,3.2-2,4.5-3.5ZM198.9,1122.9c2-2.1,7.4-7,7.2-10l-27.7,22.3c-2.1,3.3-3.4,8.5-4.9,11.9,10.1-4.7,17.8-16.4,25.3-24.2h0ZM693.3,864.3c-3,5.2-6.9,10.9-7.4,18.6l9.5-.7c1.7-6.5,4.7-15.2-1.9-18.1l-.2.2h0ZM209.6,1271.2c5.8-5.5,15.8-8.4,14.6-20l-1.4-.2c-6.1,4.1-12,12.4-14.2,20.2l.2.2.7-.2h0ZM562.9,1265.2c2.6-3.5,21.1-27.3,18.8-31.1-7.5,9.6-16,17.6-19.5,31.4l.7-.2h0ZM376.9,1133.4c6.5-8.5,14.1-17.4,19.8-26.7l-.9-.2-13.9,8.4c-7.6,4.6-13.7,12.4-16.5,21.8-.9,3.2-1.9,9-.5,12.5h.9l11.2-15.8h-.1ZM924.3,1035.3c-5.7,10.4-14.8,38.7-5.8,50.2,2.6,3.3,29.6,10.9,36,9.3,5.1-1.3,8.5-4.5,12.8-6.3,1.4-.6,3.8-.3,4.7-1.4,2.3-8.1,4.1-15.1,2.6-24.6l-.2-6.3c-1-2.6-4.7-4.4-5.6-7.7l-.9-9.5c-1.4-6.6-3.8-11.8-6.5-16.7l-1.4-7.2c-1.5-4.8-7.2-6.1-13.7-6l-7.7,3.5-1.9,5.1-7.9,10.9v.5c3.8,2,9.5,12.2,7.2,18.1l-.9-.7c-.4-5.2-6.6-9.8-10.7-11.2h0ZM962.4,1162.2c3.7-9.8-.3-23.4,1.2-34.6.6-4.2,1.7-7.6,2.1-11.2-3.4-4.3-6-8.3-13.7-8.4-2.3,2-3.8,1-7.2,1.9-4.9,1.3-11.7,7.4-13.5,11.9,1.3,4,9,13.7,6.7,19.1l-.2-.2c-1.5-2.7-8.6-11.7-11.2-12.8l-.2.2c-8.1,14.5-11.1,20.6-7.2,40.7,1.6,8.1.4,15.6,8.8,17,6.2,1,11.9-4.7,15.6-7,2.3-1.4,12.3-5.7,13.5-7l2.1-5.6,3.2-4h0ZM878.7,961.9c-7,8.6-15.3,16-23,23.9-.4-3.8,18.4-24.8,20.9-30.2l-20.2,18.1-6.3,10.7c-4.9,4.2-17.9,13.4-20.7,18.6l13.5-7.4c-2.4,4.3-4.9,9.5-5.8,15.3l.7-.2c2.5-3.2,6.5-7.5,10.2-9.3l8.6-2.8c5.9-3.4,11.8-7.5,18.4-10.2,5.4-2.2,15.5-3.1,18.6-7.7l-13.9,2.8.2-.2c18.7-9.9,38.4-26,48.1-44.6l-13.2,10-33.5,27c-5,3.8-11.5,11.7-19.1,12.1v-.7c13.7-9.3,27.5-27.1,37.7-40.2l10-13-.9-.2-17,12.8-13.2,15.6v-.2ZM700.9,1175.9c13-1,10.5-39.7,13-53.2.9-4.8,2.3-14.5-.5-18.1l-4.7-.2c-3.1,1.4-5.9,2.1-8.4,3.9-7.6,5.8-16.5,22.1-13,36.7,1.6,6.5,5.5,11.1,7.9,16.7,2,4.6,2.7,10.4,5.6,14.2h.1ZM424.6,1102.5l13-16c5.5-7.4,11.2-14.8,15.6-23.2.8-1.6,5-6.5,4.2-7.7-10.1,10.8-21.6,20.5-30.9,32.1-5.1,6.3-9.2,13.5-14.4,19.8l-9.3,5.8c-9.2,7.5-16.8,23.3-18.8,37.7h-.2l.2-7.7c-9.7,13.1-14.9,31.4-29.5,39.5l.2.7.2.2c12.5-.3,22.6-12.7,26.5-22.1l1.9-9.1c4.8-6.4,8.5-14.1,13.5-20.2l11.4-11.2,5.8-4.4,1.2-3.9,9.5-10.2h-.1ZM907.1,1076.5c-1.4-5.7.7-12.6-.5-17.9-2-9.4-6.7-15.1-10-22.8l-5.6-14.6-9.1-1.2c-9.5,5.4-10.6,15-15.6,24.9l-5.6,10,1.4,18.4-.7,10c1.9.7,2.1,3.1,3.7,4.2l10.2,2.8c10.6,1.6,22.9-9,34.6-7.9-.4-2.9-2.4-3.4-3-5.8h.2ZM1052.4,1113.4c-1.7-1.9-21.7-5.6-26.5-5.6-5.9,3.2-7.7,14.3-8.6,22.1l.7.5c5.4,0,8.8-1.7,13.2-2.6,8.9-1.6,13.3,1.7,20-3.7l1.2-10.7h0ZM1028.2,1182.4c7.6-4.7,19.3-36,20.5-47.9-4.2-2.5-6.2-5.4-13.5-5.3-6.1,2.3-12.3,2.5-17,6-3.7,2.8-12.7,34.4-10,42.8,1.6,5,8.1,6.3,10.7,10.7,5.3,1.2,6.2-4.4,9.3-6.3h0ZM1068.4,1184.5c8.4-10.7,34.6-72.1,1.6-71.6-5,2-8.6,4-11.2,8.4l-4,15.1c-3.8,12.5-7.6,27.3-11.4,40.4-2.3,8,5.2,16.9,10.5,17.9,7.6,1.5,11.5-6.6,14.4-10.2h0ZM603.5,1162.7c2.2-8.7,6-15.8,8.8-23-1.4-10-8.6-28.1-14.2-33.9-12.6-.7-29.9,0-40.2,4.4h-.2v-1.4c3.5-2.7,8.3-5.9,13.2-7,3-.6,4.5,1,6.5,1.4,7.8,1.5,13.3-6.2,15.8-10.5-1.2-10.2-7-21.8-17-21.6-6.1,0-9.8,4.3-13.7,6.5l-.2-.2c1.1-7.6,11.9-8.1,17.2-11.9l6-6.7-1.9-17.7.2-23.9-2.6-4.2c-4.9-3.6-13.7,2.1-16,3.9-9,7.1-13.9,15-20.7,24.4-2.7,3.7-6.5,7.1-7.9,12.3l1.9,1.2c2.3-.4,5.8-.2,8.1-1.2,3.3-1.4,4.6-4.6,9.3-5.1-3.3,5.2-12.5,11.8-17.4,15.8-5.3,4.3-9.7,11.9-13.2,17.9-2.6,4.4-5.6,18.4-9.8,20.2-14.2-4.2,5.7-21,5.1-24.9-8.2,1.1-23.9,19.2-33.9,17,5.3-4,9.9-5.7,13.7-11.2,3.6-5,5.4-12.9,10.2-16.7,2-1.6,4.9-.8,7.4-2.3,3.7-2.3,12.1-15.9,11.6-21.4-9.4,2.2-28.9,24.3-37.7,17.7l.2-.5c10.3,3.9,15.2-10.7,19.1-16,13.1-18.4,35.7-28.7,44.9-51.1l-26.3,24.4-9.3,10.9.2-.9c7.3-11.7,12.9-24,20.2-35.3,2-3.1,8-9.7,7.7-13.5-7.4,8.9-18.2,14.2-25.3,23.5-2.3,3-7.3,14.3-9.8,15.8,4-14.1,11.8-27.4,19.5-38.3,7.7-10.9,17.7-20.4,19.1-37.7l-.7.2c-14.5,19.7-33.7,35.8-45.1,58.6h-.7l-.2-.2c2.2-11.3,8.3-20.2,12.3-29.8h-1.4c3.3-5.1,7.9-10.6,11.9-15.3,2-2.4,5.7-3.3,7-6.3,3.9-8.9,1.6-20.9,3.3-32.8l1.2-11.4-.2.2-15.1,25.6,2.6-9.3c-3.7-6.4-8.1-15.2-6-26l2.3-8.6-.2.2c-4.9,8.5-7,14.7-8.8,27.4l-.7,10,.5-.2c.5-1.3.8-3.3,2.1-3.9l.2.2,6.3,7.4c6.9,14.9-6.2,36.4-11.9,44.2-2.3,3.1-7.3,11.7-12.1,10.9v-.5l.2-.2c10.3-8.2,16.3-33.1,12.3-53.5-1.4-7.3-4.6-16.8-3.3-26.7l1.9-16,6-17.4-.5.2c-4.2,6.5-8.9,13.2-11.4,21.4-2.2,7.4-2.3,16.2-3.5,23.7h-.5l-.2-.2c-1.7-3.3-3.8-6.9-4.7-10.9-1.6-8,2.6-29.4,4.9-35.3l4.7-9.5c-3.7,3.1-8.7,10.3-9.8,15.6l-1.2,13.2-3.3,10.7v6h-.5l-.9-2.1-.5.2c-2.1,5.3-5.5,12.8-10.9,14.6.4-4.3,3.3-8.4,4.2-13.2,2.6-13.8.6-29.8,3-42.8.6-3.1,4.6-15.5,4.2-16.3-4,4.8-9.3,9.1-11.6,15.6l-.7,13.5c-2.3,13.6-6.8,30.5-14.9,39,2.2,6-4.4,11.9-7.4,15.8-5.8,7.4-25.9,26.5-27.4,34.9h.2l20.2-11.8-.2.9c-6.3,9.2-9.8,20.4-16,29.5l.2-9.3h-.5c-2.3,4.4-6.1,6.7-8.8,10.5-8.6,11.6-16.3,22.2-27.7,30.9v.7c6-1.1,25.6-14.6,29.1-18.8,2.6-3.2,4.2-7,6.7-10.5l7.9-6.7,23-22.5c4.4-5.4,10.7-14.8,17.4-17.4l.2.2c-1.2,6.3-7.2,10.5-10.2,15.3l-.9,4.2-13,20.7-14.2,19.3c12.1-4.1,23.2-16.8,29.1-27.4h.7c-1,8.9-17.4,31.2-23.9,35.1l-25.1,7.9c-5.9,2.5-9.3,7.5-14.6,10.5v.7l15.6-1.9-.2.7c-7.3,4-28.4,22.3-31.4,29.5,8.5-2.4,13.8-9.2,20.9-12.6l.2.2c-.6,8-8.5,13.4-12.5,18.4-5.4,6.5-12.8,10.9-20.7,14.9l-7.7,3.3-4.9,6.5c-8.2,3.7-19.1,7.4-25.1,14.6-5.9,7.2-8.9,13.6-10.2,25.8-.2,1.4-.6,3.1.5,4,5.7-13.1,14.4-19.6,22.3-29.8,3.3-4.3,6.5-11.2,11.6-13.5l-3.9,6.7,14.9-9.5c14-8.8,28.6-18.8,38.6-31.6,2.6-3.3,3.1-8.8,5.6-12.3,6.9-9.9,17.4-17.9,27-25.1,3.5-2.7,14.1-15.8,16.3-16.5v.2c-3.1,9.8-12.1,17.3-17.9,24.9l-16.7,22.8c-2.5,3.1-9.5,4.6-11.2,7.2l-3,8.1-7.2,14.9c16.6-5.3,23.7-21.5,32.8-34.4l13.7-17.9c3.3-4.2,6.7-9.6,11.9-11.8.4,4.9-15.3,23.3-13.9,30.9l.2-.5c7.1-3.9,19.5-22.5,24.6-29.7,2.4-3.4,5-10.3,10.5-9.8,3.4,6-2.3,13.5-3.3,18.6,7.3-3,15.9-15.1,22.1-17l.5.5c-1.8,8.3-14.7,24.2-20.9,28.8-3.1,2.3-8.1,1.9-11.6,4.2-2.1,1.4-8.2,17.7-7.4,21.4h.2c6.1-6.1,13.9-11.1,20.2-17l1.2.5c-.5,5.7-10.6,17.4-13,23.9,4.7-1.1,9.5-6.9,13.5-6.7-8.5,14.3-19.9,23.7-32.5,33.9l-10.5,12.1v.7h.2c7-2.3,12-7.3,17.4-11.2,11.3-8,21.3-14.2,28.1-26.7h.5l.2.2c-1.1,14.9-15.4,27.3-21.8,37.7l3-.2v.5c-2.2,1.6-5.9,5.8-4.6,9.3,7.2-3.2,18.3-11.9,26.7-12.3l.5.5v1.6c-4.1,4-7.6,8.7-12.1,12.3-11.9,9.6-36.7,25.1-39.7,42.1h.2l.7-.5c7.3-3.2,10-12.8,16-17.7l18.4-12.5c4.4-2.6,11.7-4,14.9-7.9h.7v.2l-.2.7c-5.7,4.4-31.7,25.6-28.1,34.9h.7c3.4-7.8,16.4-16.1,24.2-19.5h.2c-.2,7-5.9,10.3-7.4,16.3,4.6-2,9.4-6.8,14.9-7.2,1.8,4.4-16.8,20.3-20,24.2-4.7,5.7-7.8,11.8-10.9,19.3-2.4,5.6-7.2,10-9.3,17l-5.1,27.7c-2.1,7.5-6,13.2-9.1,19.1l.2.2c6.1-.6,9.6-9.4,13.2-13,7.3-7.3,16.5-12.7,24.9-19.1l9.3-8.1c-.3,9.2-6.2,12.2-10.2,17.7-7.9,10.7-15.1,21.2-23.2,31.4-2.9,3.6-13.1,15.1-10.9,21.8h.2c2.5-3.7,3.6-7.7,6.3-10.9,7.3-9,18.8-14.3,26-23.5,4.7-6,7.7-12.9,11.9-19.5l17.2-25.3c2.1-3,17.8-25.8,22.3-15.3-3.1,7-12,9.6-13,19.1l.2.2h.7c5.9-6,15.3-13.1,24.4-15.3l-.2.9c-6.8,6.1-12.4,15.3-17.4,23-3,.6-7.1-.3-9.8.9-7.7,3.4-19.9,21.1-18.4,32.8l.7.2c10.1-16.2,21-22.3,33.7-34.6,4.2-4,10.7-12.1,17.9-11.9l.5.5s-16.2,27.4-17,27.9c-2.1,1.4-5.5,1.1-7.4,2.3-5.9,3.5-9.6,9.8-12.8,16-1.1,2.2-7.7,19.2-5.1,21.6,3.2-12.9,16.2-26.4,27.2-31.6l-2.6,7.2.2.2.7-.2c8.9-11.4,20.6-22.3,34.2-28.8l.5.5c-1.2,17-21,22.3-17.9,41.4l.9.2.2-.2c2.8-4.6,5.3-9.7,9.3-13l9.5-7.9,7-10.9c2.7-4.1,5.2-14.7,8.6-17.4-1,0-13.7,11.2-15.1,13h-.7c1.6-7.5,8-15.5,11.4-21.8-.4-3.3-3.4-14.7-5.8-15.1-4.6,10.3-12.4,15.3-18.8,23.5h-.2l-.2-.7c2.2-5.7,4-12.6,6.5-18.8l4.2-9.3c.9-4.7-3.7-8.4-2.6-14.9,1-5.8,9.3-20.9,14.9-20.2-4.5,9.1-3.9,24,1.9,31.6h.2c1.6-7.8-.7-16.3,5.1-19.8.7,3.7-1.1,8.6-.2,13.2,2.5,12.8,8.3,22.9,11.2,34.4l-.2,9.1c2.4-4.1,3.9-27.1,1.9-32.8,2.1-6.1,2.1-14.5,3.7-20.9l-.6-.6ZM535,1232.2c4.8-4.1,7-9.8,12.5-13.2l1.4.5c-2.9,5-6.8,9.4-9.5,14.9l-4.6-1.2.2-.9h0ZM491.5,917.5c8.2,9.2-7.2,43.8-14.2,45.8l-.2-.2,4.9-13.2c3.3-10.6,4.5-23.5,9.5-32.3h0ZM497.6,928.6c2.4,2.4-.3,15-.2,18.1.7,19.7-12.2,51.7-31.4,49l-.2-.2c3.5-9.7,9.3-14.9,14.9-22.1,9.2-11.8,15.5-25.2,17-44.9h0ZM550.5,1151.5c2.2-7,11-23.2,17.9-24.6l-.2.7c-7.2,6.5-8.8,21.7-6.5,34.9.5,3.2,3.1,6,2.3,10-2.3,11.9-13.6,17.7-20,25.8h-.7v-.2l10-23.7c-3.7-3.5-4.7-9.1-4.6-16.5h-.2c-3.1,1.2-3.9,3.5-5.8,5.8-2.5,3.1-15.3,12.8-19.5,12.6v-.2c2.5-7.3,9.2-15.2,11.4-23,.8-3-.4-8.1-.2-11.4l-.7.2c-2.9,3.8-17.4,18.2-23,16.3v-.9c6.8,2,12.4-19.2,10.9-26.3h-.2c-3.4,3.2-15.5,14.9-21.4,13.5l-.5-.9c4.8-1,12.4-14.1,13.5-19.5.6-3.1-3.1-6.7-.7-12.5,4.2-10.1,18.3-25.5,28.1-30.2h1.2l.2.7-.2.2c-6.3,1.6-19.9,23.9-17.2,32.5l4.6.9c5.9-6.5,10.5-15.5,18.8-19.5v.7c-7.2,5.6-15.9,18.3-13.7,32.5l1.6,7.2,6-10.9c3.3-5.3,7.6-9,12.1-13.2h.7v.2l-.5.7-4.4,6.3c-5.2,9.7-5.2,23.1.5,32.1h.5v-.3ZM500.3,1122.9l1.4.2-2.6.7v-.2l1.2-.7ZM491.7,1184.5c5.9-2.5,20.7-19.2,27-15.6-1.7,6-8.9,11.2-12.5,15.8-7.3,9.1-15.1,20.4-24.2,27.7l-17.9,12.8h-.7v-.2c4.5-17.2,16-29.6,20.7-46.3l-10.7,5.8.2-.5c10.8-8.4,20.3-19.4,32.5-26l2.8.7,1.4,2.3-18.8,23.5h.2ZM426.5,1473c-2.4-.3-5.1-.7-8.3-1s-7-.8-11.4-1.5v-36.9h53.1v45c-5.7-.7-11.3-1.5-16.7-2.5-5.4-1-11-2-16.7-3h0Z"/>
</svg>