<svg xmlns="http://www.w3.org/2000/svg" viewBox="0 0 471.02666 471.02662">
	<path fill="#fff" d="M370.10665997 389.80132325c-6.59199984-16.45599959-13.545333-32.06133253-19.59599951-41.89466562-18.21333288-29.5973326-8.1959998-35.9719991-20.94399948-42.34533227-12.74933301-6.37466651-32.06666586 0-32.06666586 0-3.35733325-4.95199988-6.8386665-10.9306664-8.77733312-16.74799958-4.55333322-13.65999966-8.49866645-22.15999945-4.24933322-33.39066584 4.24933322-11.23199972 5.76666652-18.21333287 4.24933322-30.96266589 0 0 3.03599993 5.76799986 3.03599993 12.14266636 0 0 3.64266657-6.07199984-2.73199993-19.42799951 0 0 4.24933322 1.5173333 5.76666652 6.6786665 0 0 .91066664-8.49999979-5.46399987-13.96399965 0 0 5.1613332 1.21466663 6.37466651 5.46399986 0 0-2.12399994-6.6786665-8.19466646-17.30266623-6.07199985-10.62399974-6.07199985-23.9799994-6.37599984-30.9626659-.30266666-6.98133315 5.76799986-28.53333261 5.46399986-29.74799925-.30399999-1.2133333-1.81999995-1.5173333-1.81999995-1.5173333l-10.01733308 10.62399974 8.52533312-16.37866626s-3.32666659-14.3066663-5.75466653-13.69866632c-2.42799994.60666665-10.35999974 14.59599963-16.43066625 16.72133291-6.07199985 2.12533328-5.46399987 6.6786665-7.8919998 8.49999979-2.42933328 1.82133329-10.62533307 1.5173333-12.75066635 11.83866637-2.12399995 10.31999974-1.8213333 16.69466625-10.92799973 18.81999953-9.1053331 2.12399995-10.90533306 16.72533291-10.90533306 16.72533291s12.60399968.82133332 23.95866607-10.95866639c0 0 .30399999 9.41066643-3.64266658 13.053333-3.94666657 3.64266658-1.82133329 9.7133331-9.10666644 16.99866625s-10.62399973 15.48133295-20.03466616 20.64133282c-9.4093331 5.1613332-21.85466612 7.89333313-30.05199925 19.42799951-8.1959998 11.53466638-20.03466617 18.21333288-23.37333275 37.94399905-3.33866658 19.73066618-16.99866624 47.96133214-38.8546657 35.51599912 0 0 21.10399948 24.91599937 42.80133227 1.82133328 16.17733293-17.21999957 16.0879996-35.5159991 28.23066596-38.24799904 0 0-1.65066663 18.38399954-10.97333306 27.73866597-2.24933328 2.25733328-2.92933326 5.62399986-1.7013333 8.56533312 2.72133327 6.51999984 6.30133318 17.72399956 3.26399993 26.22799935 0 0 4.01866656 3.8519999 5.95733318 8.8933331-9.61066643 9.01999978-27.6039993 27.06933266-31.27866588 30.00933259-2.26133328 1.80799996-17.53866623 9.45199976-32.79733252 17.0253329-53.03066534-36.7133324-87.77466447-97.96933088-87.77466447-167.35066247 0-112.34133053 91.07199772-203.41332825 203.41332825-203.41332825 112.34266386 0 203.41332825 91.07199772 203.41332825 203.41332825 0 61.27999846-27.09999933 116.22799709-69.96666492 153.5213295zm-92.89866435-73.17599817c-.71466664-2.48399994-1.61466662-4.85999988-2.75199993-6.8666665-5.1613332-9.10666643-.30399999-25.19466603-.30399999-38.24799904 0 0 3.64266658 17.60666623 2.73199993 25.49866603 0 0 8.19866646 5.98666652 13.689333 12.3359997-3.55999992 1.94266661-8.22533313 4.48533321-13.365333 7.27999981zm-40.52399898 21.71733279c-3.80533324 1.94133329-8.71066645 3.54399991-13.91866632 4.93599988-1.07199997-6.49599984-1.78533329-15.81333294 1.29999997-21.98533279 5.1613332-10.32133307 12.14266636-21.2493328 12.14266636-26.10533268 0-4.8573332 17.90933288-11.53466638 25.19466604-27.01599932 0 0-1.8213333 8.80266644-5.46399987 12.74933301 0 0 6.9826665 14.5706663 4.25066656 24.2839994 0 0 6.23599985 6.93599982 7.45199982 16.61199958-12.2359997 6.62799983-24.92666605 13.449333-30.95733256 16.52533292zm-27.44133265-22.86399943c1.99999995 5.6853332 5.49066653 17.91599955 3.79866657 30.15199925-6.2826665 1.40799996-12.2959997 2.63199993-16.69466625 3.88266657-1.69066662-7.54533315-4.29733322-21.1173328-3.24399992-29.13066594 1.51866663-11.53466638 22.76799943-19.12399952 26.714666-32.78399918 0 0-2.96666659 14.33333297-9.56666643 22.2626661-1.30266663 1.56666664-1.68266662 3.69466658-1.00799997 5.6173332zM235.51333-3.4e-7C105.44266659-3.4e-7.00000255 105.44399703.00000255 235.51332711c0 130.07066341 105.44266404 235.51332744 235.51332745 235.51332744s235.51332745-105.44266403 235.51332745-235.51332744C471.02665745 105.44399703 365.5839934-3.4e-7 235.51333-3.4e-7"/>
</svg>
